STARTFONT 2.1
FONT -Misc-Fixed-Medium-R-Normal--13-120-75-75-C-80-ISO10646-1
SIZE 13 75 75
FONTBOUNDINGBOX 8 13 0 -2

STARTPROPERTIES 24
FONTNAME_REGISTRY ""
FOUNDRY "Misc"
FAMILY_NAME "Fixed"
WEIGHT_NAME "Medium"
SLANT "R"
SETWIDTH_NAME "Normal"
ADD_STYLE_NAME ""
PIXEL_SIZE 13
POINT_SIZE 120
RESOLUTION_X 75
RESOLUTION_Y 75
SPACING "C"
AVERAGE_WIDTH 80
CHARSET_REGISTRY "ISO10646"
CHARSET_ENCODING "1"
COPYRIGHT "Public domain font.  Share and enjoy."
_XMBDFED_INFO "Edited with xmbdfed 4.5."
CAP_HEIGHT 9
X_HEIGHT 6
WEIGHT 10
QUAD_WIDTH 8
DEFAULT_CHAR 0
FONT_DESCENT 2
FONT_ASCENT 11
ENDPROPERTIES

CHARS 3703

STARTCHAR char0
ENCODING 0
SWIDTH 568 0
DWIDTH 8 0
BBX 8 13 0 -2
BITMAP
00
00
AA
00
82
00
82
00
82
00
AA
00
00
ENDCHAR

STARTCHAR space
ENCODING 32
SWIDTH 568 0
DWIDTH 8 0
BBX 8 13 0 -2
BITMAP
00
00
00
00
00
00
00
00
00
00
00
00
00
ENDCHAR

STARTCHAR exclam
ENCODING 33
SWIDTH 568 0
DWIDTH 8 0
BBX 8 13 0 -2
BITMAP
00
00
10
10
10
10
10
10
10
00
10
00
00
ENDCHAR

STARTCHAR quotedbl
ENCODING 34
SWIDTH 568 0
DWIDTH 8 0
BBX 8 13 0 -2
BITMAP
00
00
24
24
24
00
00
00
00
00
00
00
00
ENDCHAR

STARTCHAR numbersign
ENCODING 35
SWIDTH 568 0
DWIDTH 8 0
BBX 8 13 0 -2
BITMAP
00
00
00
24
24
7E
24
7E
24
24
00
00
00
ENDCHAR

STARTCHAR dollar
ENCODING 36
SWIDTH 568 0
DWIDTH 8 0
BBX 8 13 0 -2
BITMAP
00
00
10
3C
50
50
38
14
14
78
10
00
00
ENDCHAR

STARTCHAR percent
ENCODING 37
SWIDTH 568 0
DWIDTH 8 0
BBX 8 13 0 -2
BITMAP
00
00
22
52
24
08
08
10
24
2A
44
00
00
ENDCHAR

STARTCHAR ampersand
ENCODING 38
SWIDTH 568 0
DWIDTH 8 0
BBX 8 13 0 -2
BITMAP
00
00
00
00
30
48
48
30
4A
44
3A
00
00
ENDCHAR

STARTCHAR quotesingle
ENCODING 39
SWIDTH 568 0
DWIDTH 8 0
BBX 8 13 0 -2
BITMAP
00
00
10
10
10
00
00
00
00
00
00
00
00
ENDCHAR

STARTCHAR parenleft
ENCODING 40
SWIDTH 568 0
DWIDTH 8 0
BBX 8 13 0 -2
BITMAP
00
00
04
08
08
10
10
10
08
08
04
00
00
ENDCHAR

STARTCHAR parenright
ENCODING 41
SWIDTH 568 0
DWIDTH 8 0
BBX 8 13 0 -2
BITMAP
00
00
20
10
10
08
08
08
10
10
20
00
00
ENDCHAR

STARTCHAR asterisk
ENCODING 42
SWIDTH 568 0
DWIDTH 8 0
BBX 8 13 0 -2
BITMAP
00
00
24
18
7E
18
24
00
00
00
00
00
00
ENDCHAR

STARTCHAR plus
ENCODING 43
SWIDTH 568 0
DWIDTH 8 0
BBX 8 13 0 -2
BITMAP
00
00
00
00
10
10
7C
10
10
00
00
00
00
ENDCHAR

STARTCHAR comma
ENCODING 44
SWIDTH 568 0
DWIDTH 8 0
BBX 8 13 0 -2
BITMAP
00
00
00
00
00
00
00
00
00
38
30
40
00
ENDCHAR

STARTCHAR hyphen
ENCODING 45
SWIDTH 568 0
DWIDTH 8 0
BBX 8 13 0 -2
BITMAP
00
00
00
00
00
00
7C
00
00
00
00
00
00
ENDCHAR

STARTCHAR period
ENCODING 46
SWIDTH 568 0
DWIDTH 8 0
BBX 8 13 0 -2
BITMAP
00
00
00
00
00
00
00
00
00
10
38
10
00
ENDCHAR

STARTCHAR slash
ENCODING 47
SWIDTH 568 0
DWIDTH 8 0
BBX 8 13 0 -2
BITMAP
00
00
02
02
04
08
10
20
40
80
80
00
00
ENDCHAR

STARTCHAR zero
ENCODING 48
SWIDTH 568 0
DWIDTH 8 0
BBX 8 13 0 -2
BITMAP
00
00
18
24
42
42
42
42
42
24
18
00
00
ENDCHAR

STARTCHAR one
ENCODING 49
SWIDTH 568 0
DWIDTH 8 0
BBX 8 13 0 -2
BITMAP
00
00
10
30
50
10
10
10
10
10
7C
00
00
ENDCHAR

STARTCHAR two
ENCODING 50
SWIDTH 568 0
DWIDTH 8 0
BBX 8 13 0 -2
BITMAP
00
00
3C
42
42
02
04
18
20
40
7E
00
00
ENDCHAR

STARTCHAR three
ENCODING 51
SWIDTH 568 0
DWIDTH 8 0
BBX 8 13 0 -2
BITMAP
00
00
7E
02
04
08
1C
02
02
42
3C
00
00
ENDCHAR

STARTCHAR four
ENCODING 52
SWIDTH 568 0
DWIDTH 8 0
BBX 8 13 0 -2
BITMAP
00
00
04
0C
14
24
44
44
7E
04
04
00
00
ENDCHAR

STARTCHAR five
ENCODING 53
SWIDTH 568 0
DWIDTH 8 0
BBX 8 13 0 -2
BITMAP
00
00
7E
40
40
5C
62
02
02
42
3C
00
00
ENDCHAR

STARTCHAR six
ENCODING 54
SWIDTH 568 0
DWIDTH 8 0
BBX 8 13 0 -2
BITMAP
00
00
1C
20
40
40
5C
62
42
42
3C
00
00
ENDCHAR

STARTCHAR seven
ENCODING 55
SWIDTH 568 0
DWIDTH 8 0
BBX 8 13 0 -2
BITMAP
00
00
7E
02
04
08
08
10
10
20
20
00
00
ENDCHAR

STARTCHAR eight
ENCODING 56
SWIDTH 568 0
DWIDTH 8 0
BBX 8 13 0 -2
BITMAP
00
00
3C
42
42
42
3C
42
42
42
3C
00
00
ENDCHAR

STARTCHAR nine
ENCODING 57
SWIDTH 568 0
DWIDTH 8 0
BBX 8 13 0 -2
BITMAP
00
00
3C
42
42
46
3A
02
02
04
38
00
00
ENDCHAR

STARTCHAR colon
ENCODING 58
SWIDTH 568 0
DWIDTH 8 0
BBX 8 13 0 -2
BITMAP
00
00
00
00
10
38
10
00
00
10
38
10
00
ENDCHAR

STARTCHAR semicolon
ENCODING 59
SWIDTH 568 0
DWIDTH 8 0
BBX 8 13 0 -2
BITMAP
00
00
00
00
10
38
10
00
00
38
30
40
00
ENDCHAR

STARTCHAR less
ENCODING 60
SWIDTH 568 0
DWIDTH 8 0
BBX 8 13 0 -2
BITMAP
00
00
02
04
08
10
20
10
08
04
02
00
00
ENDCHAR

STARTCHAR equal
ENCODING 61
SWIDTH 568 0
DWIDTH 8 0
BBX 8 13 0 -2
BITMAP
00
00
00
00
00
7E
00
00
7E
00
00
00
00
ENDCHAR

STARTCHAR greater
ENCODING 62
SWIDTH 568 0
DWIDTH 8 0
BBX 8 13 0 -2
BITMAP
00
00
40
20
10
08
04
08
10
20
40
00
00
ENDCHAR

STARTCHAR question
ENCODING 63
SWIDTH 568 0
DWIDTH 8 0
BBX 8 13 0 -2
BITMAP
00
00
3C
42
42
02
04
08
08
00
08
00
00
ENDCHAR

STARTCHAR at
ENCODING 64
SWIDTH 568 0
DWIDTH 8 0
BBX 8 13 0 -2
BITMAP
00
00
3C
42
42
4E
52
56
4A
40
3C
00
00
ENDCHAR

STARTCHAR A
ENCODING 65
SWIDTH 568 0
DWIDTH 8 0
BBX 8 13 0 -2
BITMAP
00
00
18
24
42
42
42
7E
42
42
42
00
00
ENDCHAR

STARTCHAR B
ENCODING 66
SWIDTH 568 0
DWIDTH 8 0
BBX 8 13 0 -2
BITMAP
00
00
78
44
42
44
78
44
42
44
78
00
00
ENDCHAR

STARTCHAR C
ENCODING 67
SWIDTH 568 0
DWIDTH 8 0
BBX 8 13 0 -2
BITMAP
00
00
3C
42
40
40
40
40
40
42
3C
00
00
ENDCHAR

STARTCHAR D
ENCODING 68
SWIDTH 568 0
DWIDTH 8 0
BBX 8 13 0 -2
BITMAP
00
00
78
44
42
42
42
42
42
44
78
00
00
ENDCHAR

STARTCHAR E
ENCODING 69
SWIDTH 568 0
DWIDTH 8 0
BBX 8 13 0 -2
BITMAP
00
00
7E
40
40
40
78
40
40
40
7E
00
00
ENDCHAR

STARTCHAR F
ENCODING 70
SWIDTH 568 0
DWIDTH 8 0
BBX 8 13 0 -2
BITMAP
00
00
7E
40
40
40
78
40
40
40
40
00
00
ENDCHAR

STARTCHAR G
ENCODING 71
SWIDTH 568 0
DWIDTH 8 0
BBX 8 13 0 -2
BITMAP
00
00
3C
42
40
40
40
4E
42
46
3A
00
00
ENDCHAR

STARTCHAR H
ENCODING 72
SWIDTH 568 0
DWIDTH 8 0
BBX 8 13 0 -2
BITMAP
00
00
42
42
42
42
7E
42
42
42
42
00
00
ENDCHAR

STARTCHAR I
ENCODING 73
SWIDTH 568 0
DWIDTH 8 0
BBX 8 13 0 -2
BITMAP
00
00
7C
10
10
10
10
10
10
10
7C
00
00
ENDCHAR

STARTCHAR J
ENCODING 74
SWIDTH 568 0
DWIDTH 8 0
BBX 8 13 0 -2
BITMAP
00
00
1F
04
04
04
04
04
04
44
38
00
00
ENDCHAR

STARTCHAR K
ENCODING 75
SWIDTH 568 0
DWIDTH 8 0
BBX 8 13 0 -2
BITMAP
00
00
42
44
48
50
60
50
48
44
42
00
00
ENDCHAR

STARTCHAR L
ENCODING 76
SWIDTH 568 0
DWIDTH 8 0
BBX 8 13 0 -2
BITMAP
00
00
40
40
40
40
40
40
40
40
7E
00
00
ENDCHAR

STARTCHAR M
ENCODING 77
SWIDTH 568 0
DWIDTH 8 0
BBX 8 13 0 -2
BITMAP
00
00
82
82
C6
AA
92
92
82
82
82
00
00
ENDCHAR

STARTCHAR N
ENCODING 78
SWIDTH 568 0
DWIDTH 8 0
BBX 8 13 0 -2
BITMAP
00
00
42
42
62
52
4A
46
42
42
42
00
00
ENDCHAR

STARTCHAR O
ENCODING 79
SWIDTH 568 0
DWIDTH 8 0
BBX 8 13 0 -2
BITMAP
00
00
3C
42
42
42
42
42
42
42
3C
00
00
ENDCHAR

STARTCHAR P
ENCODING 80
SWIDTH 568 0
DWIDTH 8 0
BBX 8 13 0 -2
BITMAP
00
00
7C
42
42
42
7C
40
40
40
40
00
00
ENDCHAR

STARTCHAR Q
ENCODING 81
SWIDTH 568 0
DWIDTH 8 0
BBX 8 13 0 -2
BITMAP
00
00
3C
42
42
42
42
42
52
4A
3C
02
00
ENDCHAR

STARTCHAR R
ENCODING 82
SWIDTH 568 0
DWIDTH 8 0
BBX 8 13 0 -2
BITMAP
00
00
7C
42
42
42
7C
50
48
44
42
00
00
ENDCHAR

STARTCHAR S
ENCODING 83
SWIDTH 568 0
DWIDTH 8 0
BBX 8 13 0 -2
BITMAP
00
00
3C
42
40
40
3C
02
02
42
3C
00
00
ENDCHAR

STARTCHAR T
ENCODING 84
SWIDTH 568 0
DWIDTH 8 0
BBX 8 13 0 -2
BITMAP
00
00
FE
10
10
10
10
10
10
10
10
00
00
ENDCHAR

STARTCHAR U
ENCODING 85
SWIDTH 568 0
DWIDTH 8 0
BBX 8 13 0 -2
BITMAP
00
00
42
42
42
42
42
42
42
42
3C
00
00
ENDCHAR

STARTCHAR V
ENCODING 86
SWIDTH 568 0
DWIDTH 8 0
BBX 8 13 0 -2
BITMAP
00
00
82
82
44
44
44
28
28
28
10
00
00
ENDCHAR

STARTCHAR W
ENCODING 87
SWIDTH 568 0
DWIDTH 8 0
BBX 8 13 0 -2
BITMAP
00
00
82
82
82
82
92
92
92
AA
44
00
00
ENDCHAR

STARTCHAR X
ENCODING 88
SWIDTH 568 0
DWIDTH 8 0
BBX 8 13 0 -2
BITMAP
00
00
82
82
44
28
10
28
44
82
82
00
00
ENDCHAR

STARTCHAR Y
ENCODING 89
SWIDTH 568 0
DWIDTH 8 0
BBX 8 13 0 -2
BITMAP
00
00
82
82
44
28
10
10
10
10
10
00
00
ENDCHAR

STARTCHAR Z
ENCODING 90
SWIDTH 568 0
DWIDTH 8 0
BBX 8 13 0 -2
BITMAP
00
00
7E
02
04
08
10
20
40
40
7E
00
00
ENDCHAR

STARTCHAR bracketleft
ENCODING 91
SWIDTH 568 0
DWIDTH 8 0
BBX 8 13 0 -2
BITMAP
00
00
3C
20
20
20
20
20
20
20
3C
00
00
ENDCHAR

STARTCHAR backslash
ENCODING 92
SWIDTH 568 0
DWIDTH 8 0
BBX 8 13 0 -2
BITMAP
00
00
80
80
40
20
10
08
04
02
02
00
00
ENDCHAR

STARTCHAR bracketright
ENCODING 93
SWIDTH 568 0
DWIDTH 8 0
BBX 8 13 0 -2
BITMAP
00
00
78
08
08
08
08
08
08
08
78
00
00
ENDCHAR

STARTCHAR asciicircum
ENCODING 94
SWIDTH 568 0
DWIDTH 8 0
BBX 8 13 0 -2
BITMAP
00
00
10
28
44
00
00
00
00
00
00
00
00
ENDCHAR

STARTCHAR underscore
ENCODING 95
SWIDTH 568 0
DWIDTH 8 0
BBX 8 13 0 -2
BITMAP
00
00
00
00
00
00
00
00
00
00
00
FE
00
ENDCHAR

STARTCHAR grave
ENCODING 96
SWIDTH 568 0
DWIDTH 8 0
BBX 8 13 0 -2
BITMAP
00
10
08
00
00
00
00
00
00
00
00
00
00
ENDCHAR

STARTCHAR a
ENCODING 97
SWIDTH 568 0
DWIDTH 8 0
BBX 8 13 0 -2
BITMAP
00
00
00
00
00
3C
02
3E
42
46
3A
00
00
ENDCHAR

STARTCHAR b
ENCODING 98
SWIDTH 568 0
DWIDTH 8 0
BBX 8 13 0 -2
BITMAP
00
00
40
40
40
5C
62
42
42
62
5C
00
00
ENDCHAR

STARTCHAR c
ENCODING 99
SWIDTH 568 0
DWIDTH 8 0
BBX 8 13 0 -2
BITMAP
00
00
00
00
00
3C
42
40
40
42
3C
00
00
ENDCHAR

STARTCHAR d
ENCODING 100
SWIDTH 568 0
DWIDTH 8 0
BBX 8 13 0 -2
BITMAP
00
00
02
02
02
3A
46
42
42
46
3A
00
00
ENDCHAR

STARTCHAR e
ENCODING 101
SWIDTH 568 0
DWIDTH 8 0
BBX 8 13 0 -2
BITMAP
00
00
00
00
00
3C
42
7E
40
42
3C
00
00
ENDCHAR

STARTCHAR f
ENCODING 102
SWIDTH 568 0
DWIDTH 8 0
BBX 8 13 0 -2
BITMAP
00
00
1C
22
20
20
7C
20
20
20
20
00
00
ENDCHAR

STARTCHAR g
ENCODING 103
SWIDTH 568 0
DWIDTH 8 0
BBX 8 13 0 -2
BITMAP
00
00
00
00
00
3A
44
44
38
40
3C
42
3C
ENDCHAR

STARTCHAR h
ENCODING 104
SWIDTH 568 0
DWIDTH 8 0
BBX 8 13 0 -2
BITMAP
00
00
40
40
40
5C
62
42
42
42
42
00
00
ENDCHAR

STARTCHAR i
ENCODING 105
SWIDTH 568 0
DWIDTH 8 0
BBX 8 13 0 -2
BITMAP
00
00
00
10
00
30
10
10
10
10
7C
00
00
ENDCHAR

STARTCHAR j
ENCODING 106
SWIDTH 568 0
DWIDTH 8 0
BBX 8 13 0 -2
BITMAP
00
00
00
04
00
0C
04
04
04
04
44
44
38
ENDCHAR

STARTCHAR k
ENCODING 107
SWIDTH 568 0
DWIDTH 8 0
BBX 8 13 0 -2
BITMAP
00
00
40
40
40
44
48
70
48
44
42
00
00
ENDCHAR

STARTCHAR l
ENCODING 108
SWIDTH 568 0
DWIDTH 8 0
BBX 8 13 0 -2
BITMAP
00
00
30
10
10
10
10
10
10
10
7C
00
00
ENDCHAR

STARTCHAR m
ENCODING 109
SWIDTH 568 0
DWIDTH 8 0
BBX 8 13 0 -2
BITMAP
00
00
00
00
00
EC
92
92
92
92
82
00
00
ENDCHAR

STARTCHAR n
ENCODING 110
SWIDTH 568 0
DWIDTH 8 0
BBX 8 13 0 -2
BITMAP
00
00
00
00
00
5C
62
42
42
42
42
00
00
ENDCHAR

STARTCHAR o
ENCODING 111
SWIDTH 568 0
DWIDTH 8 0
BBX 8 13 0 -2
BITMAP
00
00
00
00
00
3C
42
42
42
42
3C
00
00
ENDCHAR

STARTCHAR p
ENCODING 112
SWIDTH 568 0
DWIDTH 8 0
BBX 8 13 0 -2
BITMAP
00
00
00
00
00
5C
62
42
62
5C
40
40
40
ENDCHAR

STARTCHAR q
ENCODING 113
SWIDTH 568 0
DWIDTH 8 0
BBX 8 13 0 -2
BITMAP
00
00
00
00
00
3A
46
42
46
3A
02
02
02
ENDCHAR

STARTCHAR r
ENCODING 114
SWIDTH 568 0
DWIDTH 8 0
BBX 8 13 0 -2
BITMAP
00
00
00
00
00
5C
22
20
20
20
20
00
00
ENDCHAR

STARTCHAR s
ENCODING 115
SWIDTH 568 0
DWIDTH 8 0
BBX 8 13 0 -2
BITMAP
00
00
00
00
00
3C
42
30
0C
42
3C
00
00
ENDCHAR

STARTCHAR t
ENCODING 116
SWIDTH 568 0
DWIDTH 8 0
BBX 8 13 0 -2
BITMAP
00
00
00
20
20
7C
20
20
20
22
1C
00
00
ENDCHAR

STARTCHAR u
ENCODING 117
SWIDTH 568 0
DWIDTH 8 0
BBX 8 13 0 -2
BITMAP
00
00
00
00
00
44
44
44
44
44
3A
00
00
ENDCHAR

STARTCHAR v
ENCODING 118
SWIDTH 568 0
DWIDTH 8 0
BBX 8 13 0 -2
BITMAP
00
00
00
00
00
44
44
44
28
28
10
00
00
ENDCHAR

STARTCHAR w
ENCODING 119
SWIDTH 568 0
DWIDTH 8 0
BBX 8 13 0 -2
BITMAP
00
00
00
00
00
82
82
92
92
AA
44
00
00
ENDCHAR

STARTCHAR x
ENCODING 120
SWIDTH 568 0
DWIDTH 8 0
BBX 8 13 0 -2
BITMAP
00
00
00
00
00
42
24
18
18
24
42
00
00
ENDCHAR

STARTCHAR y
ENCODING 121
SWIDTH 568 0
DWIDTH 8 0
BBX 8 13 0 -2
BITMAP
00
00
00
00
00
42
42
42
46
3A
02
42
3C
ENDCHAR

STARTCHAR z
ENCODING 122
SWIDTH 568 0
DWIDTH 8 0
BBX 8 13 0 -2
BITMAP
00
00
00
00
00
7E
04
08
10
20
7E
00
00
ENDCHAR

STARTCHAR braceleft
ENCODING 123
SWIDTH 568 0
DWIDTH 8 0
BBX 8 13 0 -2
BITMAP
00
00
0E
10
10
08
30
08
10
10
0E
00
00
ENDCHAR

STARTCHAR bar
ENCODING 124
SWIDTH 568 0
DWIDTH 8 0
BBX 8 13 0 -2
BITMAP
00
00
10
10
10
10
10
10
10
10
10
00
00
ENDCHAR

STARTCHAR braceright
ENCODING 125
SWIDTH 568 0
DWIDTH 8 0
BBX 8 13 0 -2
BITMAP
00
00
70
08
08
10
0C
10
08
08
70
00
00
ENDCHAR

STARTCHAR asciitilde
ENCODING 126
SWIDTH 568 0
DWIDTH 8 0
BBX 8 13 0 -2
BITMAP
00
00
24
54
48
00
00
00
00
00
00
00
00
ENDCHAR

STARTCHAR space
ENCODING 160
SWIDTH 568 0
DWIDTH 8 0
BBX 8 13 0 -2
BITMAP
00
00
00
00
00
00
00
00
00
00
00
00
00
ENDCHAR

STARTCHAR exclamdown
ENCODING 161
SWIDTH 568 0
DWIDTH 8 0
BBX 8 13 0 -2
BITMAP
00
00
10
00
10
10
10
10
10
10
10
00
00
ENDCHAR

STARTCHAR cent
ENCODING 162
SWIDTH 568 0
DWIDTH 8 0
BBX 8 13 0 -2
BITMAP
00
00
10
38
54
50
50
54
38
10
00
00
00
ENDCHAR

STARTCHAR sterling
ENCODING 163
SWIDTH 568 0
DWIDTH 8 0
BBX 8 13 0 -2
BITMAP
00
00
1C
22
20
70
20
20
20
62
DC
00
00
ENDCHAR

STARTCHAR currency
ENCODING 164
SWIDTH 568 0
DWIDTH 8 0
BBX 8 13 0 -2
BITMAP
00
00
00
00
42
3C
24
24
3C
42
00
00
00
ENDCHAR

STARTCHAR yen
ENCODING 165
SWIDTH 568 0
DWIDTH 8 0
BBX 8 13 0 -2
BITMAP
00
00
82
82
44
28
7C
10
7C
10
10
00
00
ENDCHAR

STARTCHAR brokenbar
ENCODING 166
SWIDTH 568 0
DWIDTH 8 0
BBX 8 13 0 -2
BITMAP
00
00
10
10
10
10
00
10
10
10
10
00
00
ENDCHAR

STARTCHAR section
ENCODING 167
SWIDTH 568 0
DWIDTH 8 0
BBX 8 13 0 -2
BITMAP
00
18
24
20
18
24
24
18
04
24
18
00
00
ENDCHAR

STARTCHAR dieresis
ENCODING 168
SWIDTH 568 0
DWIDTH 8 0
BBX 8 13 0 -2
BITMAP
00
24
24
00
00
00
00
00
00
00
00
00
00
ENDCHAR

STARTCHAR copyright
ENCODING 169
SWIDTH 568 0
DWIDTH 8 0
BBX 8 13 0 -2
BITMAP
00
38
44
92
AA
A2
AA
92
44
38
00
00
00
ENDCHAR

STARTCHAR ordfeminine
ENCODING 170
SWIDTH 568 0
DWIDTH 8 0
BBX 8 13 0 -2
BITMAP
00
00
38
04
3C
44
3C
00
7C
00
00
00
00
ENDCHAR

STARTCHAR guillemotleft
ENCODING 171
SWIDTH 568 0
DWIDTH 8 0
BBX 8 13 0 -2
BITMAP
00
00
00
12
24
48
90
48
24
12
00
00
00
ENDCHAR

STARTCHAR logicalnot
ENCODING 172
SWIDTH 568 0
DWIDTH 8 0
BBX 8 13 0 -2
BITMAP
00
00
00
00
00
00
7E
02
02
02
00
00
00
ENDCHAR

STARTCHAR hyphen
ENCODING 173
SWIDTH 568 0
DWIDTH 8 0
BBX 8 13 0 -2
BITMAP
00
00
00
00
00
00
3C
00
00
00
00
00
00
ENDCHAR

STARTCHAR registered
ENCODING 174
SWIDTH 568 0
DWIDTH 8 0
BBX 8 13 0 -2
BITMAP
00
38
44
92
AA
AA
B2
AA
44
38
00
00
00
ENDCHAR

STARTCHAR macron
ENCODING 175
SWIDTH 568 0
DWIDTH 8 0
BBX 8 13 0 -2
BITMAP
00
00
7E
00
00
00
00
00
00
00
00
00
00
ENDCHAR

STARTCHAR degree
ENCODING 176
SWIDTH 568 0
DWIDTH 8 0
BBX 8 13 0 -2
BITMAP
00
00
18
24
24
18
00
00
00
00
00
00
00
ENDCHAR

STARTCHAR plusminus
ENCODING 177
SWIDTH 568 0
DWIDTH 8 0
BBX 8 13 0 -2
BITMAP
00
00
00
10
10
7C
10
10
00
7C
00
00
00
ENDCHAR

STARTCHAR twosuperior
ENCODING 178
SWIDTH 568 0
DWIDTH 8 0
BBX 8 13 0 -2
BITMAP
00
30
48
08
30
40
78
00
00
00
00
00
00
ENDCHAR

STARTCHAR threesuperior
ENCODING 179
SWIDTH 568 0
DWIDTH 8 0
BBX 8 13 0 -2
BITMAP
00
30
48
10
08
48
30
00
00
00
00
00
00
ENDCHAR

STARTCHAR acute
ENCODING 180
SWIDTH 568 0
DWIDTH 8 0
BBX 8 13 0 -2
BITMAP
00
08
10
00
00
00
00
00
00
00
00
00
00
ENDCHAR

STARTCHAR mu
ENCODING 181
SWIDTH 568 0
DWIDTH 8 0
BBX 8 13 0 -2
BITMAP
00
00
00
00
00
42
42
42
42
66
5A
40
00
ENDCHAR

STARTCHAR paragraph
ENCODING 182
SWIDTH 568 0
DWIDTH 8 0
BBX 8 13 0 -2
BITMAP
00
00
3E
74
74
74
34
14
14
14
14
00
00
ENDCHAR

STARTCHAR periodcentered
ENCODING 183
SWIDTH 568 0
DWIDTH 8 0
BBX 8 13 0 -2
BITMAP
00
00
00
00
00
00
18
00
00
00
00
00
00
ENDCHAR

STARTCHAR cedilla
ENCODING 184
SWIDTH 568 0
DWIDTH 8 0
BBX 8 13 0 -2
BITMAP
00
00
00
00
00
00
00
00
00
00
00
08
18
ENDCHAR

STARTCHAR onesuperior
ENCODING 185
SWIDTH 568 0
DWIDTH 8 0
BBX 8 13 0 -2
BITMAP
00
20
60
20
20
20
70
00
00
00
00
00
00
ENDCHAR

STARTCHAR ordmasculine
ENCODING 186
SWIDTH 568 0
DWIDTH 8 0
BBX 8 13 0 -2
BITMAP
00
00
30
48
48
30
00
78
00
00
00
00
00
ENDCHAR

STARTCHAR guillemotright
ENCODING 187
SWIDTH 568 0
DWIDTH 8 0
BBX 8 13 0 -2
BITMAP
00
00
00
90
48
24
12
24
48
90
00
00
00
ENDCHAR

STARTCHAR onequarter
ENCODING 188
SWIDTH 568 0
DWIDTH 8 0
BBX 8 13 0 -2
BITMAP
00
40
C0
40
40
42
E6
0A
12
1A
06
00
00
ENDCHAR

STARTCHAR onehalf
ENCODING 189
SWIDTH 568 0
DWIDTH 8 0
BBX 8 13 0 -2
BITMAP
00
40
C0
40
40
4C
F2
02
0C
10
1E
00
00
ENDCHAR

STARTCHAR threequarters
ENCODING 190
SWIDTH 568 0
DWIDTH 8 0
BBX 8 13 0 -2
BITMAP
00
60
90
20
10
92
66
0A
12
1A
06
00
00
ENDCHAR

STARTCHAR questiondown
ENCODING 191
SWIDTH 568 0
DWIDTH 8 0
BBX 8 13 0 -2
BITMAP
00
00
10
00
10
10
20
40
42
42
3C
00
00
ENDCHAR

STARTCHAR Agrave
ENCODING 192
SWIDTH 568 0
DWIDTH 8 0
BBX 8 13 0 -2
BITMAP
00
10
08
00
18
24
42
42
7E
42
42
00
00
ENDCHAR

STARTCHAR Aacute
ENCODING 193
SWIDTH 568 0
DWIDTH 8 0
BBX 8 13 0 -2
BITMAP
00
08
10
00
18
24
42
42
7E
42
42
00
00
ENDCHAR

STARTCHAR Acircumflex
ENCODING 194
SWIDTH 568 0
DWIDTH 8 0
BBX 8 13 0 -2
BITMAP
00
18
24
00
18
24
42
42
7E
42
42
00
00
ENDCHAR

STARTCHAR Atilde
ENCODING 195
SWIDTH 568 0
DWIDTH 8 0
BBX 8 13 0 -2
BITMAP
00
32
4C
00
18
24
42
42
7E
42
42
00
00
ENDCHAR

STARTCHAR Adieresis
ENCODING 196
SWIDTH 568 0
DWIDTH 8 0
BBX 8 13 0 -2
BITMAP
00
24
24
00
18
24
42
42
7E
42
42
00
00
ENDCHAR

STARTCHAR Aring
ENCODING 197
SWIDTH 568 0
DWIDTH 8 0
BBX 8 13 0 -2
BITMAP
00
18
24
18
18
24
42
42
7E
42
42
00
00
ENDCHAR

STARTCHAR AE
ENCODING 198
SWIDTH 568 0
DWIDTH 8 0
BBX 8 13 0 -2
BITMAP
00
00
6E
90
90
90
9C
F0
90
90
9E
00
00
ENDCHAR

STARTCHAR Ccedilla
ENCODING 199
SWIDTH 568 0
DWIDTH 8 0
BBX 8 13 0 -2
BITMAP
00
00
3C
42
40
40
40
40
40
42
3C
08
10
ENDCHAR

STARTCHAR Egrave
ENCODING 200
SWIDTH 568 0
DWIDTH 8 0
BBX 8 13 0 -2
BITMAP
00
10
08
00
7E
40
40
78
40
40
7E
00
00
ENDCHAR

STARTCHAR Eacute
ENCODING 201
SWIDTH 568 0
DWIDTH 8 0
BBX 8 13 0 -2
BITMAP
00
08
10
00
7E
40
40
78
40
40
7E
00
00
ENDCHAR

STARTCHAR Ecircumflex
ENCODING 202
SWIDTH 568 0
DWIDTH 8 0
BBX 8 13 0 -2
BITMAP
00
18
24
00
7E
40
40
78
40
40
7E
00
00
ENDCHAR

STARTCHAR Edieresis
ENCODING 203
SWIDTH 568 0
DWIDTH 8 0
BBX 8 13 0 -2
BITMAP
00
24
24
00
7E
40
40
78
40
40
7E
00
00
ENDCHAR

STARTCHAR Igrave
ENCODING 204
SWIDTH 568 0
DWIDTH 8 0
BBX 8 13 0 -2
BITMAP
00
20
10
00
7C
10
10
10
10
10
7C
00
00
ENDCHAR

STARTCHAR Iacute
ENCODING 205
SWIDTH 568 0
DWIDTH 8 0
BBX 8 13 0 -2
BITMAP
00
08
10
00
7C
10
10
10
10
10
7C
00
00
ENDCHAR

STARTCHAR Icircumflex
ENCODING 206
SWIDTH 568 0
DWIDTH 8 0
BBX 8 13 0 -2
BITMAP
00
18
24
00
7C
10
10
10
10
10
7C
00
00
ENDCHAR

STARTCHAR Idieresis
ENCODING 207
SWIDTH 568 0
DWIDTH 8 0
BBX 8 13 0 -2
BITMAP
00
44
44
00
7C
10
10
10
10
10
7C
00
00
ENDCHAR

STARTCHAR Eth
ENCODING 208
SWIDTH 568 0
DWIDTH 8 0
BBX 8 13 0 -2
BITMAP
00
00
78
44
42
42
E2
42
42
44
78
00
00
ENDCHAR

STARTCHAR Ntilde
ENCODING 209
SWIDTH 568 0
DWIDTH 8 0
BBX 8 13 0 -2
BITMAP
00
64
98
00
82
C2
A2
92
8A
86
82
00
00
ENDCHAR

STARTCHAR Ograve
ENCODING 210
SWIDTH 568 0
DWIDTH 8 0
BBX 8 13 0 -2
BITMAP
00
20
10
00
7C
82
82
82
82
82
7C
00
00
ENDCHAR

STARTCHAR Oacute
ENCODING 211
SWIDTH 568 0
DWIDTH 8 0
BBX 8 13 0 -2
BITMAP
00
08
10
00
7C
82
82
82
82
82
7C
00
00
ENDCHAR

STARTCHAR Ocircumflex
ENCODING 212
SWIDTH 568 0
DWIDTH 8 0
BBX 8 13 0 -2
BITMAP
00
18
24
00
7C
82
82
82
82
82
7C
00
00
ENDCHAR

STARTCHAR Otilde
ENCODING 213
SWIDTH 568 0
DWIDTH 8 0
BBX 8 13 0 -2
BITMAP
00
64
98
00
7C
82
82
82
82
82
7C
00
00
ENDCHAR

STARTCHAR Odieresis
ENCODING 214
SWIDTH 568 0
DWIDTH 8 0
BBX 8 13 0 -2
BITMAP
00
44
44
00
7C
82
82
82
82
82
7C
00
00
ENDCHAR

STARTCHAR multiply
ENCODING 215
SWIDTH 568 0
DWIDTH 8 0
BBX 8 13 0 -2
BITMAP
00
00
00
00
42
24
18
18
24
42
00
00
00
ENDCHAR

STARTCHAR Oslash
ENCODING 216
SWIDTH 568 0
DWIDTH 8 0
BBX 8 13 0 -2
BITMAP
00
02
3C
46
4A
4A
52
52
52
62
3C
40
00
ENDCHAR

STARTCHAR Ugrave
ENCODING 217
SWIDTH 568 0
DWIDTH 8 0
BBX 8 13 0 -2
BITMAP
00
20
10
00
42
42
42
42
42
42
3C
00
00
ENDCHAR

STARTCHAR Uacute
ENCODING 218
SWIDTH 568 0
DWIDTH 8 0
BBX 8 13 0 -2
BITMAP
00
08
10
00
42
42
42
42
42
42
3C
00
00
ENDCHAR

STARTCHAR Ucircumflex
ENCODING 219
SWIDTH 568 0
DWIDTH 8 0
BBX 8 13 0 -2
BITMAP
00
18
24
00
42
42
42
42
42
42
3C
00
00
ENDCHAR

STARTCHAR Udieresis
ENCODING 220
SWIDTH 568 0
DWIDTH 8 0
BBX 8 13 0 -2
BITMAP
00
24
24
00
42
42
42
42
42
42
3C
00
00
ENDCHAR

STARTCHAR Yacute
ENCODING 221
SWIDTH 568 0
DWIDTH 8 0
BBX 8 13 0 -2
BITMAP
00
08
10
00
44
44
28
10
10
10
10
00
00
ENDCHAR

STARTCHAR Thorn
ENCODING 222
SWIDTH 568 0
DWIDTH 8 0
BBX 8 13 0 -2
BITMAP
00
00
40
7C
42
42
42
7C
40
40
40
00
00
ENDCHAR

STARTCHAR germandbls
ENCODING 223
SWIDTH 568 0
DWIDTH 8 0
BBX 8 13 0 -2
BITMAP
00
00
38
44
44
48
50
4C
42
42
5C
00
00
ENDCHAR

STARTCHAR agrave
ENCODING 224
SWIDTH 568 0
DWIDTH 8 0
BBX 8 13 0 -2
BITMAP
00
00
10
08
00
3C
02
3E
42
46
3A
00
00
ENDCHAR

STARTCHAR aacute
ENCODING 225
SWIDTH 568 0
DWIDTH 8 0
BBX 8 13 0 -2
BITMAP
00
00
04
08
00
3C
02
3E
42
46
3A
00
00
ENDCHAR

STARTCHAR acircumflex
ENCODING 226
SWIDTH 568 0
DWIDTH 8 0
BBX 8 13 0 -2
BITMAP
00
00
18
24
00
3C
02
3E
42
46
3A
00
00
ENDCHAR

STARTCHAR atilde
ENCODING 227
SWIDTH 568 0
DWIDTH 8 0
BBX 8 13 0 -2
BITMAP
00
00
32
4C
00
3C
02
3E
42
46
3A
00
00
ENDCHAR

STARTCHAR adieresis
ENCODING 228
SWIDTH 568 0
DWIDTH 8 0
BBX 8 13 0 -2
BITMAP
00
00
24
24
00
3C
02
3E
42
46
3A
00
00
ENDCHAR

STARTCHAR aring
ENCODING 229
SWIDTH 568 0
DWIDTH 8 0
BBX 8 13 0 -2
BITMAP
00
18
24
18
00
3C
02
3E
42
46
3A
00
00
ENDCHAR

STARTCHAR ae
ENCODING 230
SWIDTH 568 0
DWIDTH 8 0
BBX 8 13 0 -2
BITMAP
00
00
00
00
00
6C
12
7C
90
92
6C
00
00
ENDCHAR

STARTCHAR ccedilla
ENCODING 231
SWIDTH 568 0
DWIDTH 8 0
BBX 8 13 0 -2
BITMAP
00
00
00
00
00
3C
42
40
40
42
3C
08
10
ENDCHAR

STARTCHAR egrave
ENCODING 232
SWIDTH 568 0
DWIDTH 8 0
BBX 8 13 0 -2
BITMAP
00
00
10
08
00
3C
42
7E
40
42
3C
00
00
ENDCHAR

STARTCHAR eacute
ENCODING 233
SWIDTH 568 0
DWIDTH 8 0
BBX 8 13 0 -2
BITMAP
00
00
08
10
00
3C
42
7E
40
42
3C
00
00
ENDCHAR

STARTCHAR ecircumflex
ENCODING 234
SWIDTH 568 0
DWIDTH 8 0
BBX 8 13 0 -2
BITMAP
00
00
18
24
00
3C
42
7E
40
42
3C
00
00
ENDCHAR

STARTCHAR edieresis
ENCODING 235
SWIDTH 568 0
DWIDTH 8 0
BBX 8 13 0 -2
BITMAP
00
00
24
24
00
3C
42
7E
40
42
3C
00
00
ENDCHAR

STARTCHAR igrave
ENCODING 236
SWIDTH 568 0
DWIDTH 8 0
BBX 8 13 0 -2
BITMAP
00
00
20
10
00
30
10
10
10
10
7C
00
00
ENDCHAR

STARTCHAR iacute
ENCODING 237
SWIDTH 568 0
DWIDTH 8 0
BBX 8 13 0 -2
BITMAP
00
00
10
20
00
30
10
10
10
10
7C
00
00
ENDCHAR

STARTCHAR icircumflex
ENCODING 238
SWIDTH 568 0
DWIDTH 8 0
BBX 8 13 0 -2
BITMAP
00
00
30
48
00
30
10
10
10
10
7C
00
00
ENDCHAR

STARTCHAR idieresis
ENCODING 239
SWIDTH 568 0
DWIDTH 8 0
BBX 8 13 0 -2
BITMAP
00
00
48
48
00
30
10
10
10
10
7C
00
00
ENDCHAR

STARTCHAR eth
ENCODING 240
SWIDTH 568 0
DWIDTH 8 0
BBX 8 13 0 -2
BITMAP
00
24
18
28
04
3C
42
42
42
42
3C
00
00
ENDCHAR

STARTCHAR ntilde
ENCODING 241
SWIDTH 568 0
DWIDTH 8 0
BBX 8 13 0 -2
BITMAP
00
00
32
4C
00
5C
62
42
42
42
42
00
00
ENDCHAR

STARTCHAR ograve
ENCODING 242
SWIDTH 568 0
DWIDTH 8 0
BBX 8 13 0 -2
BITMAP
00
00
20
10
00
3C
42
42
42
42
3C
00
00
ENDCHAR

STARTCHAR oacute
ENCODING 243
SWIDTH 568 0
DWIDTH 8 0
BBX 8 13 0 -2
BITMAP
00
00
08
10
00
3C
42
42
42
42
3C
00
00
ENDCHAR

STARTCHAR ocircumflex
ENCODING 244
SWIDTH 568 0
DWIDTH 8 0
BBX 8 13 0 -2
BITMAP
00
00
18
24
00
3C
42
42
42
42
3C
00
00
ENDCHAR

STARTCHAR otilde
ENCODING 245
SWIDTH 568 0
DWIDTH 8 0
BBX 8 13 0 -2
BITMAP
00
00
32
4C
00
3C
42
42
42
42
3C
00
00
ENDCHAR

STARTCHAR odieresis
ENCODING 246
SWIDTH 568 0
DWIDTH 8 0
BBX 8 13 0 -2
BITMAP
00
00
24
24
00
3C
42
42
42
42
3C
00
00
ENDCHAR

STARTCHAR divide
ENCODING 247
SWIDTH 568 0
DWIDTH 8 0
BBX 8 13 0 -2
BITMAP
00
00
00
10
10
00
7C
00
10
10
00
00
00
ENDCHAR

STARTCHAR oslash
ENCODING 248
SWIDTH 568 0
DWIDTH 8 0
BBX 8 13 0 -2
BITMAP
00
00
00
00
02
3C
46
4A
52
62
3C
40
00
ENDCHAR

STARTCHAR ugrave
ENCODING 249
SWIDTH 568 0
DWIDTH 8 0
BBX 8 13 0 -2
BITMAP
00
00
20
10
00
44
44
44
44
44
3A
00
00
ENDCHAR

STARTCHAR uacute
ENCODING 250
SWIDTH 568 0
DWIDTH 8 0
BBX 8 13 0 -2
BITMAP
00
00
08
10
00
44
44
44
44
44
3A
00
00
ENDCHAR

STARTCHAR ucircumflex
ENCODING 251
SWIDTH 568 0
DWIDTH 8 0
BBX 8 13 0 -2
BITMAP
00
00
18
24
00
44
44
44
44
44
3A
00
00
ENDCHAR

STARTCHAR udieresis
ENCODING 252
SWIDTH 568 0
DWIDTH 8 0
BBX 8 13 0 -2
BITMAP
00
00
28
28
00
44
44
44
44
44
3A
00
00
ENDCHAR

STARTCHAR yacute
ENCODING 253
SWIDTH 568 0
DWIDTH 8 0
BBX 8 13 0 -2
BITMAP
00
00
08
10
00
42
42
42
46
3A
02
42
3C
ENDCHAR

STARTCHAR thorn
ENCODING 254
SWIDTH 568 0
DWIDTH 8 0
BBX 8 13 0 -2
BITMAP
00
00
00
40
40
5C
62
42
42
62
5C
40
40
ENDCHAR

STARTCHAR ydieresis
ENCODING 255
SWIDTH 568 0
DWIDTH 8 0
BBX 8 13 0 -2
BITMAP
00
00
24
24
00
42
42
42
46
3A
02
42
3C
ENDCHAR

STARTCHAR Amacron
ENCODING 256
SWIDTH 568 0
DWIDTH 8 0
BBX 8 13 0 -2
BITMAP
00
7E
00
18
24
42
42
7E
42
42
42
00
00
ENDCHAR

STARTCHAR amacron
ENCODING 257
SWIDTH 568 0
DWIDTH 8 0
BBX 8 13 0 -2
BITMAP
00
00
00
7E
00
3C
02
3E
42
46
3A
00
00
ENDCHAR

STARTCHAR Abreve
ENCODING 258
SWIDTH 568 0
DWIDTH 8 0
BBX 8 13 0 -2
BITMAP
00
42
3C
00
18
24
42
42
7E
42
42
00
00
ENDCHAR

STARTCHAR abreve
ENCODING 259
SWIDTH 568 0
DWIDTH 8 0
BBX 8 13 0 -2
BITMAP
00
00
42
3C
00
3C
02
3E
42
46
3A
00
00
ENDCHAR

STARTCHAR Aogonek
ENCODING 260
SWIDTH 568 0
DWIDTH 8 0
BBX 8 13 0 -2
BITMAP
00
00
18
24
42
42
42
7E
42
42
42
04
03
ENDCHAR

STARTCHAR aogonek
ENCODING 261
SWIDTH 568 0
DWIDTH 8 0
BBX 8 13 0 -2
BITMAP
00
00
00
00
00
3C
02
3E
42
46
3A
04
03
ENDCHAR

STARTCHAR Cacute
ENCODING 262
SWIDTH 568 0
DWIDTH 8 0
BBX 8 13 0 -2
BITMAP
00
08
10
00
3C
42
40
40
40
42
3C
00
00
ENDCHAR

STARTCHAR cacute
ENCODING 263
SWIDTH 568 0
DWIDTH 8 0
BBX 8 13 0 -2
BITMAP
00
00
08
10
00
3C
42
40
40
42
3C
00
00
ENDCHAR

STARTCHAR Ccircumflex
ENCODING 264
SWIDTH 568 0
DWIDTH 8 0
BBX 8 13 0 -2
BITMAP
00
18
24
00
3C
42
40
40
40
42
3C
00
00
ENDCHAR

STARTCHAR ccircumflex
ENCODING 265
SWIDTH 568 0
DWIDTH 8 0
BBX 8 13 0 -2
BITMAP
00
00
18
24
00
3C
42
40
40
42
3C
00
00
ENDCHAR

STARTCHAR Cdotaccent
ENCODING 266
SWIDTH 568 0
DWIDTH 8 0
BBX 8 13 0 -2
BITMAP
00
18
00
3C
42
40
40
40
40
42
3C
00
00
ENDCHAR

STARTCHAR cdotaccent
ENCODING 267
SWIDTH 568 0
DWIDTH 8 0
BBX 8 13 0 -2
BITMAP
00
00
00
18
00
3C
42
40
40
42
3C
00
00
ENDCHAR

STARTCHAR Ccaron
ENCODING 268
SWIDTH 568 0
DWIDTH 8 0
BBX 8 13 0 -2
BITMAP
00
24
18
00
3C
42
40
40
40
42
3C
00
00
ENDCHAR

STARTCHAR ccaron
ENCODING 269
SWIDTH 568 0
DWIDTH 8 0
BBX 8 13 0 -2
BITMAP
00
00
24
18
00
3C
42
40
40
42
3C
00
00
ENDCHAR

STARTCHAR Dcaron
ENCODING 270
SWIDTH 568 0
DWIDTH 8 0
BBX 8 13 0 -2
BITMAP
00
24
18
00
78
44
42
42
42
44
78
00
00
ENDCHAR

STARTCHAR dcaron
ENCODING 271
SWIDTH 568 0
DWIDTH 8 0
BBX 8 13 0 -2
BITMAP
00
24
18
02
02
3A
46
42
42
46
3A
00
00
ENDCHAR

STARTCHAR Dcroat
ENCODING 272
SWIDTH 568 0
DWIDTH 8 0
BBX 8 13 0 -2
BITMAP
00
00
78
44
42
42
F2
42
42
44
78
00
00
ENDCHAR

STARTCHAR dcroat
ENCODING 273
SWIDTH 568 0
DWIDTH 8 0
BBX 8 13 0 -2
BITMAP
00
00
04
1E
04
74
8C
84
84
8C
74
00
00
ENDCHAR

STARTCHAR Emacron
ENCODING 274
SWIDTH 568 0
DWIDTH 8 0
BBX 8 13 0 -2
BITMAP
00
7E
00
7E
40
40
78
40
40
40
7E
00
00
ENDCHAR

STARTCHAR emacron
ENCODING 275
SWIDTH 568 0
DWIDTH 8 0
BBX 8 13 0 -2
BITMAP
00
00
00
7E
00
3C
42
7E
40
42
3C
00
00
ENDCHAR

STARTCHAR Ebreve
ENCODING 276
SWIDTH 568 0
DWIDTH 8 0
BBX 8 13 0 -2
BITMAP
00
42
3C
00
7E
40
40
78
40
40
7E
00
00
ENDCHAR

STARTCHAR ebreve
ENCODING 277
SWIDTH 568 0
DWIDTH 8 0
BBX 8 13 0 -2
BITMAP
00
00
42
3C
00
3C
42
7E
40
42
3C
00
00
ENDCHAR

STARTCHAR Edotaccent
ENCODING 278
SWIDTH 568 0
DWIDTH 8 0
BBX 8 13 0 -2
BITMAP
00
18
00
7E
40
40
78
40
40
40
7E
00
00
ENDCHAR

STARTCHAR edotaccent
ENCODING 279
SWIDTH 568 0
DWIDTH 8 0
BBX 8 13 0 -2
BITMAP
00
00
00
18
00
3C
42
7E
40
42
3C
00
00
ENDCHAR

STARTCHAR Eogonek
ENCODING 280
SWIDTH 568 0
DWIDTH 8 0
BBX 8 13 0 -2
BITMAP
00
00
7E
40
40
40
78
40
40
40
7E
10
1C
ENDCHAR

STARTCHAR eogonek
ENCODING 281
SWIDTH 568 0
DWIDTH 8 0
BBX 8 13 0 -2
BITMAP
00
00
00
00
00
3C
42
7E
40
42
3C
10
1C
ENDCHAR

STARTCHAR Ecaron
ENCODING 282
SWIDTH 568 0
DWIDTH 8 0
BBX 8 13 0 -2
BITMAP
00
24
18
00
7E
40
40
78
40
40
7E
00
00
ENDCHAR

STARTCHAR ecaron
ENCODING 283
SWIDTH 568 0
DWIDTH 8 0
BBX 8 13 0 -2
BITMAP
00
00
24
18
00
3C
42
7E
40
42
3C
00
00
ENDCHAR

STARTCHAR Gcircumflex
ENCODING 284
SWIDTH 568 0
DWIDTH 8 0
BBX 8 13 0 -2
BITMAP
00
18
24
00
3C
42
40
4E
42
46
3A
00
00
ENDCHAR

STARTCHAR gcircumflex
ENCODING 285
SWIDTH 568 0
DWIDTH 8 0
BBX 8 13 0 -2
BITMAP
00
00
18
24
00
3A
44
44
38
40
3C
42
3C
ENDCHAR

STARTCHAR Gbreve
ENCODING 286
SWIDTH 568 0
DWIDTH 8 0
BBX 8 13 0 -2
BITMAP
00
42
3C
00
3C
42
40
4E
42
46
3A
00
00
ENDCHAR

STARTCHAR gbreve
ENCODING 287
SWIDTH 568 0
DWIDTH 8 0
BBX 8 13 0 -2
BITMAP
00
00
42
3C
00
3A
44
44
38
40
3C
42
3C
ENDCHAR

STARTCHAR Gdotaccent
ENCODING 288
SWIDTH 568 0
DWIDTH 8 0
BBX 8 13 0 -2
BITMAP
00
18
00
3C
42
40
40
4E
42
46
3A
00
00
ENDCHAR

STARTCHAR gdotaccent
ENCODING 289
SWIDTH 568 0
DWIDTH 8 0
BBX 8 13 0 -2
BITMAP
00
00
00
18
00
3A
44
44
38
40
3C
42
3C
ENDCHAR

STARTCHAR Gcommaaccent
ENCODING 290
SWIDTH 568 0
DWIDTH 8 0
BBX 8 13 0 -2
BITMAP
00
00
3C
42
40
40
40
4E
42
46
3A
08
10
ENDCHAR

STARTCHAR gcommaaccent
ENCODING 291
SWIDTH 568 0
DWIDTH 8 0
BBX 8 13 0 -2
BITMAP
00
08
10
18
00
3A
44
44
38
40
3C
42
3C
ENDCHAR

STARTCHAR Hcircumflex
ENCODING 292
SWIDTH 568 0
DWIDTH 8 0
BBX 8 13 0 -2
BITMAP
00
18
24
00
42
42
42
7E
42
42
42
00
00
ENDCHAR

STARTCHAR hcircumflex
ENCODING 293
SWIDTH 568 0
DWIDTH 8 0
BBX 8 13 0 -2
BITMAP
00
0C
12
40
40
40
5C
62
42
42
42
00
00
ENDCHAR

STARTCHAR Hbar
ENCODING 294
SWIDTH 568 0
DWIDTH 8 0
BBX 8 13 0 -2
BITMAP
00
00
42
42
FF
42
7E
42
42
42
42
00
00
ENDCHAR

STARTCHAR hbar
ENCODING 295
SWIDTH 568 0
DWIDTH 8 0
BBX 8 13 0 -2
BITMAP
00
00
40
F8
40
5C
62
42
42
42
42
00
00
ENDCHAR

STARTCHAR Itilde
ENCODING 296
SWIDTH 568 0
DWIDTH 8 0
BBX 8 13 0 -2
BITMAP
00
64
98
00
7C
10
10
10
10
10
7C
00
00
ENDCHAR

STARTCHAR itilde
ENCODING 297
SWIDTH 568 0
DWIDTH 8 0
BBX 8 13 0 -2
BITMAP
00
00
64
98
00
30
10
10
10
10
7C
00
00
ENDCHAR

STARTCHAR Imacron
ENCODING 298
SWIDTH 568 0
DWIDTH 8 0
BBX 8 13 0 -2
BITMAP
00
7C
00
7C
10
10
10
10
10
10
7C
00
00
ENDCHAR

STARTCHAR imacron
ENCODING 299
SWIDTH 568 0
DWIDTH 8 0
BBX 8 13 0 -2
BITMAP
00
00
00
7C
00
30
10
10
10
10
7C
00
00
ENDCHAR

STARTCHAR Ibreve
ENCODING 300
SWIDTH 568 0
DWIDTH 8 0
BBX 8 13 0 -2
BITMAP
00
44
38
00
7C
10
10
10
10
10
7C
00
00
ENDCHAR

STARTCHAR ibreve
ENCODING 301
SWIDTH 568 0
DWIDTH 8 0
BBX 8 13 0 -2
BITMAP
00
00
44
38
00
30
10
10
10
10
7C
00
00
ENDCHAR

STARTCHAR Iogonek
ENCODING 302
SWIDTH 568 0
DWIDTH 8 0
BBX 8 13 0 -2
BITMAP
00
00
7C
10
10
10
10
10
10
10
7C
10
18
ENDCHAR

STARTCHAR iogonek
ENCODING 303
SWIDTH 568 0
DWIDTH 8 0
BBX 8 13 0 -2
BITMAP
00
00
00
30
00
30
10
10
10
10
7C
10
18
ENDCHAR

STARTCHAR Idotaccent
ENCODING 304
SWIDTH 568 0
DWIDTH 8 0
BBX 8 13 0 -2
BITMAP
00
10
00
7C
10
10
10
10
10
10
7C
00
00
ENDCHAR

STARTCHAR dotlessi
ENCODING 305
SWIDTH 568 0
DWIDTH 8 0
BBX 8 13 0 -2
BITMAP
00
00
00
00
00
30
10
10
10
10
7C
00
00
ENDCHAR

STARTCHAR IJ
ENCODING 306
SWIDTH 568 0
DWIDTH 8 0
BBX 8 13 0 -2
BITMAP
00
00
EE
42
42
42
42
42
42
52
EC
00
00
ENDCHAR

STARTCHAR ij
ENCODING 307
SWIDTH 568 0
DWIDTH 8 0
BBX 8 13 0 -2
BITMAP
00
00
00
42
00
C6
42
42
42
42
F2
12
0C
ENDCHAR

STARTCHAR Jcircumflex
ENCODING 308
SWIDTH 568 0
DWIDTH 8 0
BBX 8 13 0 -2
BITMAP
00
0C
12
00
1E
04
04
04
04
44
38
00
00
ENDCHAR

STARTCHAR jcircumflex
ENCODING 309
SWIDTH 568 0
DWIDTH 8 0
BBX 8 13 0 -2
BITMAP
00
00
0C
12
00
0C
04
04
04
04
44
44
38
ENDCHAR

STARTCHAR Kcommaaccent
ENCODING 310
SWIDTH 568 0
DWIDTH 8 0
BBX 8 13 0 -2
BITMAP
00
00
42
44
48
50
60
50
48
44
42
20
C0
ENDCHAR

STARTCHAR kcommaaccent
ENCODING 311
SWIDTH 568 0
DWIDTH 8 0
BBX 8 13 0 -2
BITMAP
00
00
40
40
40
44
48
70
48
44
42
20
C0
ENDCHAR

STARTCHAR kgreenlandic
ENCODING 312
SWIDTH 568 0
DWIDTH 8 0
BBX 8 13 0 -2
BITMAP
00
00
00
00
00
42
44
78
44
42
42
00
00
ENDCHAR

STARTCHAR Lacute
ENCODING 313
SWIDTH 568 0
DWIDTH 8 0
BBX 8 13 0 -2
BITMAP
00
08
10
40
40
40
40
40
40
40
7E
00
00
ENDCHAR

STARTCHAR lacute
ENCODING 314
SWIDTH 568 0
DWIDTH 8 0
BBX 8 13 0 -2
BITMAP
08
10
00
30
10
10
10
10
10
10
7C
00
00
ENDCHAR

STARTCHAR Lcommaaccent
ENCODING 315
SWIDTH 568 0
DWIDTH 8 0
BBX 8 13 0 -2
BITMAP
00
00
40
40
40
40
40
40
40
40
7E
08
10
ENDCHAR

STARTCHAR lcommaaccent
ENCODING 316
SWIDTH 568 0
DWIDTH 8 0
BBX 8 13 0 -2
BITMAP
00
00
30
10
10
10
10
10
10
10
7C
10
20
ENDCHAR

STARTCHAR Lcaron
ENCODING 317
SWIDTH 568 0
DWIDTH 8 0
BBX 8 13 0 -2
BITMAP
48
30
00
40
40
40
40
40
40
40
7E
00
00
ENDCHAR

STARTCHAR lcaron
ENCODING 318
SWIDTH 568 0
DWIDTH 8 0
BBX 8 13 0 -2
BITMAP
48
30
00
30
10
10
10
10
10
10
7C
00
00
ENDCHAR

STARTCHAR Ldot
ENCODING 319
SWIDTH 568 0
DWIDTH 8 0
BBX 8 13 0 -2
BITMAP
00
00
40
40
40
48
48
40
40
40
7E
00
00
ENDCHAR

STARTCHAR ldot
ENCODING 320
SWIDTH 568 0
DWIDTH 8 0
BBX 8 13 0 -2
BITMAP
00
00
30
10
10
12
12
10
10
10
7C
00
00
ENDCHAR

STARTCHAR Lslash
ENCODING 321
SWIDTH 568 0
DWIDTH 8 0
BBX 8 13 0 -2
BITMAP
00
00
40
40
40
60
C0
40
40
40
7E
00
00
ENDCHAR

STARTCHAR lslash
ENCODING 322
SWIDTH 568 0
DWIDTH 8 0
BBX 8 13 0 -2
BITMAP
00
00
30
10
10
18
30
10
10
10
7C
00
00
ENDCHAR

STARTCHAR Nacute
ENCODING 323
SWIDTH 568 0
DWIDTH 8 0
BBX 8 13 0 -2
BITMAP
00
08
10
42
42
62
52
4A
46
42
42
00
00
ENDCHAR

STARTCHAR nacute
ENCODING 324
SWIDTH 568 0
DWIDTH 8 0
BBX 8 13 0 -2
BITMAP
00
00
08
10
00
5C
62
42
42
42
42
00
00
ENDCHAR

STARTCHAR Ncommaaccent
ENCODING 325
SWIDTH 568 0
DWIDTH 8 0
BBX 8 13 0 -2
BITMAP
00
00
42
42
62
52
4A
46
42
42
42
20
40
ENDCHAR

STARTCHAR ncommaaccent
ENCODING 326
SWIDTH 568 0
DWIDTH 8 0
BBX 8 13 0 -2
BITMAP
00
00
00
00
00
5C
62
42
42
42
42
20
40
ENDCHAR

STARTCHAR Ncaron
ENCODING 327
SWIDTH 568 0
DWIDTH 8 0
BBX 8 13 0 -2
BITMAP
00
24
18
42
42
62
52
4A
46
42
42
00
00
ENDCHAR

STARTCHAR ncaron
ENCODING 328
SWIDTH 568 0
DWIDTH 8 0
BBX 8 13 0 -2
BITMAP
00
00
24
18
00
5C
62
42
42
42
42
00
00
ENDCHAR

STARTCHAR napostrophe
ENCODING 329
SWIDTH 568 0
DWIDTH 8 0
BBX 8 13 0 -2
BITMAP
00
C0
40
80
00
5C
62
42
42
42
42
00
00
ENDCHAR

STARTCHAR Eng
ENCODING 330
SWIDTH 568 0
DWIDTH 8 0
BBX 8 13 0 -2
BITMAP
00
00
42
42
62
52
4A
46
42
42
42
02
0C
ENDCHAR

STARTCHAR eng
ENCODING 331
SWIDTH 568 0
DWIDTH 8 0
BBX 8 13 0 -2
BITMAP
00
00
00
00
00
5C
62
42
42
42
42
02
0C
ENDCHAR

STARTCHAR Omacron
ENCODING 332
SWIDTH 568 0
DWIDTH 8 0
BBX 8 13 0 -2
BITMAP
00
00
7C
00
7C
82
82
82
82
82
7C
00
00
ENDCHAR

STARTCHAR omacron
ENCODING 333
SWIDTH 568 0
DWIDTH 8 0
BBX 8 13 0 -2
BITMAP
00
00
00
7E
00
3C
42
42
42
42
3C
00
00
ENDCHAR

STARTCHAR Obreve
ENCODING 334
SWIDTH 568 0
DWIDTH 8 0
BBX 8 13 0 -2
BITMAP
00
44
38
00
7C
82
82
82
82
82
7C
00
00
ENDCHAR

STARTCHAR obreve
ENCODING 335
SWIDTH 568 0
DWIDTH 8 0
BBX 8 13 0 -2
BITMAP
00
00
42
3C
00
3C
42
42
42
42
3C
00
00
ENDCHAR

STARTCHAR Ohungarumlaut
ENCODING 336
SWIDTH 568 0
DWIDTH 8 0
BBX 8 13 0 -2
BITMAP
00
24
48
00
7C
82
82
82
82
82
7C
00
00
ENDCHAR

STARTCHAR ohungarumlaut
ENCODING 337
SWIDTH 568 0
DWIDTH 8 0
BBX 8 13 0 -2
BITMAP
00
00
12
24
00
3C
42
42
42
42
3C
00
00
ENDCHAR

STARTCHAR OE
ENCODING 338
SWIDTH 568 0
DWIDTH 8 0
BBX 8 13 0 -2
BITMAP
00
00
7E
90
90
90
9C
90
90
90
7E
00
00
ENDCHAR

STARTCHAR oe
ENCODING 339
SWIDTH 568 0
DWIDTH 8 0
BBX 8 13 0 -2
BITMAP
00
00
00
00
00
6C
92
9C
90
92
6C
00
00
ENDCHAR

STARTCHAR Racute
ENCODING 340
SWIDTH 568 0
DWIDTH 8 0
BBX 8 13 0 -2
BITMAP
00
08
10
00
7C
42
42
7C
48
44
42
00
00
ENDCHAR

STARTCHAR racute
ENCODING 341
SWIDTH 568 0
DWIDTH 8 0
BBX 8 13 0 -2
BITMAP
00
00
08
10
00
5C
22
20
20
20
20
00
00
ENDCHAR

STARTCHAR Rcommaaccent
ENCODING 342
SWIDTH 568 0
DWIDTH 8 0
BBX 8 13 0 -2
BITMAP
00
00
7C
42
42
42
7C
50
48
44
42
20
40
ENDCHAR

STARTCHAR rcommaaccent
ENCODING 343
SWIDTH 568 0
DWIDTH 8 0
BBX 8 13 0 -2
BITMAP
00
00
00
00
00
5C
22
20
20
20
20
10
20
ENDCHAR

STARTCHAR Rcaron
ENCODING 344
SWIDTH 568 0
DWIDTH 8 0
BBX 8 13 0 -2
BITMAP
00
24
18
00
7C
42
42
7C
48
44
42
00
00
ENDCHAR

STARTCHAR rcaron
ENCODING 345
SWIDTH 568 0
DWIDTH 8 0
BBX 8 13 0 -2
BITMAP
00
00
24
18
00
5C
22
20
20
20
20
00
00
ENDCHAR

STARTCHAR Sacute
ENCODING 346
SWIDTH 568 0
DWIDTH 8 0
BBX 8 13 0 -2
BITMAP
00
08
10
00
3C
42
40
3C
02
42
3C
00
00
ENDCHAR

STARTCHAR sacute
ENCODING 347
SWIDTH 568 0
DWIDTH 8 0
BBX 8 13 0 -2
BITMAP
00
00
08
10
00
3C
42
30
0C
42
3C
00
00
ENDCHAR

STARTCHAR Scircumflex
ENCODING 348
SWIDTH 568 0
DWIDTH 8 0
BBX 8 13 0 -2
BITMAP
00
18
24
00
3C
42
40
3C
02
42
3C
00
00
ENDCHAR

STARTCHAR scircumflex
ENCODING 349
SWIDTH 568 0
DWIDTH 8 0
BBX 8 13 0 -2
BITMAP
00
00
18
24
00
3C
42
30
0C
42
3C
00
00
ENDCHAR

STARTCHAR Scedilla
ENCODING 350
SWIDTH 568 0
DWIDTH 8 0
BBX 8 13 0 -2
BITMAP
00
00
3C
42
40
40
3C
02
02
42
3C
08
10
ENDCHAR

STARTCHAR scedilla
ENCODING 351
SWIDTH 568 0
DWIDTH 8 0
BBX 8 13 0 -2
BITMAP
00
00
00
00
00
3C
42
30
0C
42
3C
08
10
ENDCHAR

STARTCHAR Scaron
ENCODING 352
SWIDTH 568 0
DWIDTH 8 0
BBX 8 13 0 -2
BITMAP
00
24
18
00
3C
42
40
3C
02
42
3C
00
00
ENDCHAR

STARTCHAR scaron
ENCODING 353
SWIDTH 568 0
DWIDTH 8 0
BBX 8 13 0 -2
BITMAP
00
00
24
18
00
3C
42
30
0C
42
3C
00
00
ENDCHAR

STARTCHAR Tcommaaccent
ENCODING 354
SWIDTH 568 0
DWIDTH 8 0
BBX 8 13 0 -2
BITMAP
00
00
FE
10
10
10
10
10
10
10
10
08
10
ENDCHAR

STARTCHAR tcommaaccent
ENCODING 355
SWIDTH 568 0
DWIDTH 8 0
BBX 8 13 0 -2
BITMAP
00
00
00
20
20
7C
20
20
20
22
1C
08
10
ENDCHAR

STARTCHAR Tcaron
ENCODING 356
SWIDTH 568 0
DWIDTH 8 0
BBX 8 13 0 -2
BITMAP
00
28
10
00
FE
10
10
10
10
10
10
00
00
ENDCHAR

STARTCHAR tcaron
ENCODING 357
SWIDTH 568 0
DWIDTH 8 0
BBX 8 13 0 -2
BITMAP
00
48
30
00
20
20
7C
20
20
22
1C
00
00
ENDCHAR

STARTCHAR Tbar
ENCODING 358
SWIDTH 568 0
DWIDTH 8 0
BBX 8 13 0 -2
BITMAP
00
00
FE
10
10
7C
10
10
10
10
10
00
00
ENDCHAR

STARTCHAR tbar
ENCODING 359
SWIDTH 568 0
DWIDTH 8 0
BBX 8 13 0 -2
BITMAP
00
00
00
20
7C
20
7C
20
20
22
1C
00
00
ENDCHAR

STARTCHAR Utilde
ENCODING 360
SWIDTH 568 0
DWIDTH 8 0
BBX 8 13 0 -2
BITMAP
00
32
4C
00
42
42
42
42
42
42
3C
00
00
ENDCHAR

STARTCHAR utilde
ENCODING 361
SWIDTH 568 0
DWIDTH 8 0
BBX 8 13 0 -2
BITMAP
00
00
32
4C
00
44
44
44
44
44
3A
00
00
ENDCHAR

STARTCHAR Umacron
ENCODING 362
SWIDTH 568 0
DWIDTH 8 0
BBX 8 13 0 -2
BITMAP
00
7E
00
42
42
42
42
42
42
42
3C
00
00
ENDCHAR

STARTCHAR umacron
ENCODING 363
SWIDTH 568 0
DWIDTH 8 0
BBX 8 13 0 -2
BITMAP
00
00
00
7C
00
44
44
44
44
44
3A
00
00
ENDCHAR

STARTCHAR Ubreve
ENCODING 364
SWIDTH 568 0
DWIDTH 8 0
BBX 8 13 0 -2
BITMAP
00
42
3C
00
42
42
42
42
42
42
3C
00
00
ENDCHAR

STARTCHAR ubreve
ENCODING 365
SWIDTH 568 0
DWIDTH 8 0
BBX 8 13 0 -2
BITMAP
00
00
44
38
00
44
44
44
44
44
3A
00
00
ENDCHAR

STARTCHAR Uring
ENCODING 366
SWIDTH 568 0
DWIDTH 8 0
BBX 8 13 0 -2
BITMAP
00
18
24
18
42
42
42
42
42
42
3C
00
00
ENDCHAR

STARTCHAR uring
ENCODING 367
SWIDTH 568 0
DWIDTH 8 0
BBX 8 13 0 -2
BITMAP
00
18
24
18
00
44
44
44
44
44
3A
00
00
ENDCHAR

STARTCHAR Uhungarumlaut
ENCODING 368
SWIDTH 568 0
DWIDTH 8 0
BBX 8 13 0 -2
BITMAP
00
12
24
00
42
42
42
42
42
42
3C
00
00
ENDCHAR

STARTCHAR uhungarumlaut
ENCODING 369
SWIDTH 568 0
DWIDTH 8 0
BBX 8 13 0 -2
BITMAP
00
00
12
24
00
44
44
44
44
44
3A
00
00
ENDCHAR

STARTCHAR Uogonek
ENCODING 370
SWIDTH 568 0
DWIDTH 8 0
BBX 8 13 0 -2
BITMAP
00
00
42
42
42
42
42
42
42
42
3C
08
0C
ENDCHAR

STARTCHAR uogonek
ENCODING 371
SWIDTH 568 0
DWIDTH 8 0
BBX 8 13 0 -2
BITMAP
00
00
00
00
00
44
44
44
44
44
3A
08
0C
ENDCHAR

STARTCHAR Wcircumflex
ENCODING 372
SWIDTH 568 0
DWIDTH 8 0
BBX 8 13 0 -2
BITMAP
00
10
28
00
82
82
92
92
92
AA
44
00
00
ENDCHAR

STARTCHAR wcircumflex
ENCODING 373
SWIDTH 568 0
DWIDTH 8 0
BBX 8 13 0 -2
BITMAP
00
00
10
28
00
82
82
92
92
AA
44
00
00
ENDCHAR

STARTCHAR Ycircumflex
ENCODING 374
SWIDTH 568 0
DWIDTH 8 0
BBX 8 13 0 -2
BITMAP
00
18
24
00
82
44
28
10
10
10
10
00
00
ENDCHAR

STARTCHAR ycircumflex
ENCODING 375
SWIDTH 568 0
DWIDTH 8 0
BBX 8 13 0 -2
BITMAP
00
00
18
24
00
42
42
42
46
3A
02
42
3C
ENDCHAR

STARTCHAR Ydieresis
ENCODING 376
SWIDTH 568 0
DWIDTH 8 0
BBX 8 13 0 -2
BITMAP
00
44
44
00
82
44
28
10
10
10
10
00
00
ENDCHAR

STARTCHAR Zacute
ENCODING 377
SWIDTH 568 0
DWIDTH 8 0
BBX 8 13 0 -2
BITMAP
00
08
10
00
7E
04
08
10
20
40
7E
00
00
ENDCHAR

STARTCHAR zacute
ENCODING 378
SWIDTH 568 0
DWIDTH 8 0
BBX 8 13 0 -2
BITMAP
00
00
08
10
00
7E
04
08
10
20
7E
00
00
ENDCHAR

STARTCHAR Zdotaccent
ENCODING 379
SWIDTH 568 0
DWIDTH 8 0
BBX 8 13 0 -2
BITMAP
00
18
00
7E
02
04
08
10
20
40
7E
00
00
ENDCHAR

STARTCHAR zdotaccent
ENCODING 380
SWIDTH 568 0
DWIDTH 8 0
BBX 8 13 0 -2
BITMAP
00
00
00
18
00
7E
04
08
10
20
7E
00
00
ENDCHAR

STARTCHAR Zcaron
ENCODING 381
SWIDTH 568 0
DWIDTH 8 0
BBX 8 13 0 -2
BITMAP
00
24
18
00
7E
04
08
10
20
40
7E
00
00
ENDCHAR

STARTCHAR zcaron
ENCODING 382
SWIDTH 568 0
DWIDTH 8 0
BBX 8 13 0 -2
BITMAP
00
00
24
18
00
7E
04
08
10
20
7E
00
00
ENDCHAR

STARTCHAR longs
ENCODING 383
SWIDTH 568 0
DWIDTH 8 0
BBX 8 13 0 -2
BITMAP
00
00
18
24
20
20
60
20
20
20
20
00
00
ENDCHAR

STARTCHAR uni0180
ENCODING 384
SWIDTH 568 0
DWIDTH 8 0
BBX 8 13 0 -2
BITMAP
00
00
40
F0
40
5C
62
42
42
62
5C
00
00
ENDCHAR

STARTCHAR uni0181
ENCODING 385
SWIDTH 568 0
DWIDTH 8 0
BBX 8 13 0 -2
BITMAP
00
00
FC
A2
22
22
3C
22
22
22
3C
00
00
ENDCHAR

STARTCHAR uni0182
ENCODING 386
SWIDTH 568 0
DWIDTH 8 0
BBX 8 13 0 -2
BITMAP
00
00
FC
40
40
40
7C
42
42
42
FC
00
00
ENDCHAR

STARTCHAR uni0183
ENCODING 387
SWIDTH 568 0
DWIDTH 8 0
BBX 8 13 0 -2
BITMAP
00
00
7C
40
40
5C
62
42
42
62
5C
00
00
ENDCHAR

STARTCHAR uni0184
ENCODING 388
SWIDTH 568 0
DWIDTH 8 0
BBX 8 13 0 -2
BITMAP
00
00
20
60
20
2C
32
22
22
32
2C
00
00
ENDCHAR

STARTCHAR uni0185
ENCODING 389
SWIDTH 568 0
DWIDTH 8 0
BBX 8 13 0 -2
BITMAP
00
00
20
60
20
3C
22
22
22
22
1C
00
00
ENDCHAR

STARTCHAR uni0186
ENCODING 390
SWIDTH 568 0
DWIDTH 8 0
BBX 8 13 0 -2
BITMAP
00
00
3C
42
02
02
02
02
02
42
3C
00
00
ENDCHAR

STARTCHAR uni0187
ENCODING 391
SWIDTH 568 0
DWIDTH 8 0
BBX 8 13 0 -2
BITMAP
00
02
3C
44
40
40
40
40
40
44
38
00
00
ENDCHAR

STARTCHAR uni0188
ENCODING 392
SWIDTH 568 0
DWIDTH 8 0
BBX 8 13 0 -2
BITMAP
00
00
00
00
00
3A
44
40
40
44
38
00
00
ENDCHAR

STARTCHAR uni0189
ENCODING 393
SWIDTH 568 0
DWIDTH 8 0
BBX 8 13 0 -2
BITMAP
00
00
78
44
42
42
F2
42
42
44
78
00
00
ENDCHAR

STARTCHAR uni018A
ENCODING 394
SWIDTH 568 0
DWIDTH 8 0
BBX 8 13 0 -2
BITMAP
00
00
7C
A2
22
22
22
22
22
22
3C
00
00
ENDCHAR

STARTCHAR uni018B
ENCODING 395
SWIDTH 568 0
DWIDTH 8 0
BBX 8 13 0 -2
BITMAP
00
00
3E
02
02
3A
46
42
42
46
3A
00
00
ENDCHAR

STARTCHAR uni018C
ENCODING 396
SWIDTH 568 0
DWIDTH 8 0
BBX 8 13 0 -2
BITMAP
00
00
78
08
08
28
58
48
48
58
28
00
00
ENDCHAR

STARTCHAR uni018D
ENCODING 397
SWIDTH 568 0
DWIDTH 8 0
BBX 8 13 0 -2
BITMAP
00
00
00
00
00
3C
42
42
42
24
18
04
38
ENDCHAR

STARTCHAR uni018E
ENCODING 398
SWIDTH 568 0
DWIDTH 8 0
BBX 8 13 0 -2
BITMAP
00
00
7E
02
02
02
1E
02
02
02
7E
00
00
ENDCHAR

STARTCHAR uni018F
ENCODING 399
SWIDTH 568 0
DWIDTH 8 0
BBX 8 13 0 -2
BITMAP
00
00
3C
42
02
02
02
7E
42
42
3C
00
00
ENDCHAR

STARTCHAR uni0190
ENCODING 400
SWIDTH 568 0
DWIDTH 8 0
BBX 8 13 0 -2
BITMAP
00
00
3C
42
40
40
38
40
40
42
3C
00
00
ENDCHAR

STARTCHAR uni0191
ENCODING 401
SWIDTH 568 0
DWIDTH 8 0
BBX 8 13 0 -2
BITMAP
00
00
3E
20
20
20
3C
20
20
20
A0
40
00
ENDCHAR

STARTCHAR florin
ENCODING 402
SWIDTH 568 0
DWIDTH 8 0
BBX 8 13 0 -2
BITMAP
00
00
0C
12
10
10
3C
10
10
10
10
90
60
ENDCHAR

STARTCHAR uni0193
ENCODING 403
SWIDTH 568 0
DWIDTH 8 0
BBX 8 13 0 -2
BITMAP
01
02
3E
42
40
40
40
4E
42
46
3A
00
00
ENDCHAR

STARTCHAR uni0194
ENCODING 404
SWIDTH 568 0
DWIDTH 8 0
BBX 8 13 0 -2
BITMAP
00
00
82
82
44
44
28
28
10
28
28
10
00
ENDCHAR

STARTCHAR uni0195
ENCODING 405
SWIDTH 568 0
DWIDTH 8 0
BBX 8 13 0 -2
BITMAP
00
00
40
40
40
52
6A
4A
4A
4A
44
00
00
ENDCHAR

STARTCHAR uni0196
ENCODING 406
SWIDTH 568 0
DWIDTH 8 0
BBX 8 13 0 -2
BITMAP
00
00
30
10
10
10
10
10
10
10
0C
00
00
ENDCHAR

STARTCHAR uni0197
ENCODING 407
SWIDTH 568 0
DWIDTH 8 0
BBX 8 13 0 -2
BITMAP
00
00
7C
10
10
10
38
10
10
10
7C
00
00
ENDCHAR

STARTCHAR uni0198
ENCODING 408
SWIDTH 568 0
DWIDTH 8 0
BBX 8 13 0 -2
BITMAP
00
00
44
4A
50
60
60
50
48
44
42
00
00
ENDCHAR

STARTCHAR uni0199
ENCODING 409
SWIDTH 568 0
DWIDTH 8 0
BBX 8 13 0 -2
BITMAP
00
00
30
48
40
44
48
70
48
44
42
00
00
ENDCHAR

STARTCHAR uni019A
ENCODING 410
SWIDTH 568 0
DWIDTH 8 0
BBX 8 13 0 -2
BITMAP
00
00
30
10
10
38
10
10
10
10
7C
00
00
ENDCHAR

STARTCHAR uni019B
ENCODING 411
SWIDTH 568 0
DWIDTH 8 0
BBX 8 13 0 -2
BITMAP
00
00
24
58
30
50
10
28
28
4A
44
00
00
ENDCHAR

STARTCHAR uni019C
ENCODING 412
SWIDTH 568 0
DWIDTH 8 0
BBX 8 13 0 -2
BITMAP
00
00
92
92
92
92
92
92
92
92
6E
00
00
ENDCHAR

STARTCHAR uni019D
ENCODING 413
SWIDTH 568 0
DWIDTH 8 0
BBX 8 13 0 -2
BITMAP
00
00
42
42
62
52
4A
46
42
42
42
40
80
ENDCHAR

STARTCHAR uni019E
ENCODING 414
SWIDTH 568 0
DWIDTH 8 0
BBX 8 13 0 -2
BITMAP
00
00
00
00
00
5C
62
42
42
42
42
02
02
ENDCHAR

STARTCHAR uni019F
ENCODING 415
SWIDTH 568 0
DWIDTH 8 0
BBX 8 13 0 -2
BITMAP
00
00
3C
42
42
42
7E
42
42
42
3C
00
00
ENDCHAR

STARTCHAR Ohorn
ENCODING 416
SWIDTH 568 0
DWIDTH 8 0
BBX 8 13 0 -2
BITMAP
00
01
3D
42
42
42
42
42
42
42
3C
00
00
ENDCHAR

STARTCHAR ohorn
ENCODING 417
SWIDTH 568 0
DWIDTH 8 0
BBX 8 13 0 -2
BITMAP
00
00
00
00
01
3D
42
42
42
42
3C
00
00
ENDCHAR

STARTCHAR uni01A2
ENCODING 418
SWIDTH 568 0
DWIDTH 8 0
BBX 8 13 0 -2
BITMAP
00
00
36
4A
4A
4A
4A
4A
4A
4A
32
02
00
ENDCHAR

STARTCHAR uni01A3
ENCODING 419
SWIDTH 568 0
DWIDTH 8 0
BBX 8 13 0 -2
BITMAP
00
00
00
00
00
36
4A
4A
4A
4A
32
02
00
ENDCHAR

STARTCHAR uni01A4
ENCODING 420
SWIDTH 568 0
DWIDTH 8 0
BBX 8 13 0 -2
BITMAP
00
00
7C
A2
A2
22
3C
20
20
20
20
00
00
ENDCHAR

STARTCHAR uni01A5
ENCODING 421
SWIDTH 568 0
DWIDTH 8 0
BBX 8 13 0 -2
BITMAP
00
00
00
30
40
58
64
44
44
64
58
40
40
ENDCHAR

STARTCHAR uni01A6
ENCODING 422
SWIDTH 568 0
DWIDTH 8 0
BBX 8 13 0 -2
BITMAP
00
00
40
40
7C
42
42
7C
48
44
44
04
02
ENDCHAR

STARTCHAR uni01A7
ENCODING 423
SWIDTH 568 0
DWIDTH 8 0
BBX 8 13 0 -2
BITMAP
00
00
3C
42
02
02
3C
40
40
42
3C
00
00
ENDCHAR

STARTCHAR uni01A8
ENCODING 424
SWIDTH 568 0
DWIDTH 8 0
BBX 8 13 0 -2
BITMAP
00
00
00
00
00
3C
42
0C
30
42
3C
00
00
ENDCHAR

STARTCHAR uni01A9
ENCODING 425
SWIDTH 568 0
DWIDTH 8 0
BBX 8 13 0 -2
BITMAP
00
00
7E
20
10
08
04
08
10
20
7E
00
00
ENDCHAR

STARTCHAR uni01AA
ENCODING 426
SWIDTH 568 0
DWIDTH 8 0
BBX 8 13 0 -2
BITMAP
00
00
30
48
48
38
08
08
08
08
08
0A
04
ENDCHAR

STARTCHAR uni01AB
ENCODING 427
SWIDTH 568 0
DWIDTH 8 0
BBX 8 13 0 -2
BITMAP
00
00
00
20
20
7C
20
20
20
24
1A
02
0C
ENDCHAR

STARTCHAR uni01AC
ENCODING 428
SWIDTH 568 0
DWIDTH 8 0
BBX 8 13 0 -2
BITMAP
00
00
7E
90
90
10
10
10
10
10
10
00
00
ENDCHAR

STARTCHAR uni01AD
ENCODING 429
SWIDTH 568 0
DWIDTH 8 0
BBX 8 13 0 -2
BITMAP
00
1C
22
20
20
7C
20
20
20
22
1C
00
00
ENDCHAR

STARTCHAR uni01AE
ENCODING 430
SWIDTH 568 0
DWIDTH 8 0
BBX 8 13 0 -2
BITMAP
00
00
FE
10
10
10
10
10
10
10
10
12
0C
ENDCHAR

STARTCHAR Uhorn
ENCODING 431
SWIDTH 568 0
DWIDTH 8 0
BBX 8 13 0 -2
BITMAP
02
02
44
44
44
44
44
44
44
44
38
00
00
ENDCHAR

STARTCHAR uhorn
ENCODING 432
SWIDTH 568 0
DWIDTH 8 0
BBX 8 13 0 -2
BITMAP
00
00
00
02
02
44
44
44
44
44
3A
00
00
ENDCHAR

STARTCHAR uni01B1
ENCODING 433
SWIDTH 568 0
DWIDTH 8 0
BBX 8 13 0 -2
BITMAP
00
00
24
24
24
42
42
42
42
24
18
00
00
ENDCHAR

STARTCHAR uni01B2
ENCODING 434
SWIDTH 568 0
DWIDTH 8 0
BBX 8 13 0 -2
BITMAP
00
00
48
44
44
42
42
42
42
44
38
00
00
ENDCHAR

STARTCHAR uni01B3
ENCODING 435
SWIDTH 568 0
DWIDTH 8 0
BBX 8 13 0 -2
BITMAP
00
00
C2
22
14
14
08
08
08
08
08
00
00
ENDCHAR

STARTCHAR uni01B4
ENCODING 436
SWIDTH 568 0
DWIDTH 8 0
BBX 8 13 0 -2
BITMAP
00
00
02
05
04
44
44
44
4C
34
04
44
38
ENDCHAR

STARTCHAR uni01B5
ENCODING 437
SWIDTH 568 0
DWIDTH 8 0
BBX 8 13 0 -2
BITMAP
00
00
7E
02
04
08
7E
20
40
40
7E
00
00
ENDCHAR

STARTCHAR uni01B6
ENCODING 438
SWIDTH 568 0
DWIDTH 8 0
BBX 8 13 0 -2
BITMAP
00
00
00
00
00
7E
04
7E
10
20
7E
00
00
ENDCHAR

STARTCHAR uni01B7
ENCODING 439
SWIDTH 568 0
DWIDTH 8 0
BBX 8 13 0 -2
BITMAP
00
00
7E
02
04
08
1C
02
02
42
3C
00
00
ENDCHAR

STARTCHAR uni01B8
ENCODING 440
SWIDTH 568 0
DWIDTH 8 0
BBX 8 13 0 -2
BITMAP
00
00
7E
40
20
10
38
40
40
42
3C
00
00
ENDCHAR

STARTCHAR uni01B9
ENCODING 441
SWIDTH 568 0
DWIDTH 8 0
BBX 8 13 0 -2
BITMAP
00
00
00
00
7E
40
20
10
38
40
40
42
3C
ENDCHAR

STARTCHAR uni01BA
ENCODING 442
SWIDTH 568 0
DWIDTH 8 0
BBX 8 13 0 -2
BITMAP
00
00
7E
02
04
08
1C
02
0C
30
42
3C
00
ENDCHAR

STARTCHAR uni01BB
ENCODING 443
SWIDTH 568 0
DWIDTH 8 0
BBX 8 13 0 -2
BITMAP
00
00
3C
42
42
02
04
7E
20
40
7E
00
00
ENDCHAR

STARTCHAR uni01BC
ENCODING 444
SWIDTH 568 0
DWIDTH 8 0
BBX 8 13 0 -2
BITMAP
00
00
7E
42
78
04
02
02
02
42
3C
00
00
ENDCHAR

STARTCHAR uni01BD
ENCODING 445
SWIDTH 568 0
DWIDTH 8 0
BBX 8 13 0 -2
BITMAP
00
00
00
00
00
78
40
70
08
48
70
00
00
ENDCHAR

STARTCHAR uni01BE
ENCODING 446
SWIDTH 568 0
DWIDTH 8 0
BBX 8 13 0 -2
BITMAP
00
00
10
10
7C
10
18
04
04
44
38
00
00
ENDCHAR

STARTCHAR uni01BF
ENCODING 447
SWIDTH 568 0
DWIDTH 8 0
BBX 8 13 0 -2
BITMAP
00
00
00
00
00
58
64
44
48
50
60
40
40
ENDCHAR

STARTCHAR uni01C0
ENCODING 448
SWIDTH 568 0
DWIDTH 8 0
BBX 8 13 0 -2
BITMAP
00
00
10
10
10
10
10
10
10
10
10
00
00
ENDCHAR

STARTCHAR uni01C1
ENCODING 449
SWIDTH 568 0
DWIDTH 8 0
BBX 8 13 0 -2
BITMAP
00
00
28
28
28
28
28
28
28
28
28
00
00
ENDCHAR

STARTCHAR uni01C2
ENCODING 450
SWIDTH 568 0
DWIDTH 8 0
BBX 8 13 0 -2
BITMAP
00
00
10
10
10
7C
10
7C
10
10
10
00
00
ENDCHAR

STARTCHAR uni01C3
ENCODING 451
SWIDTH 568 0
DWIDTH 8 0
BBX 8 13 0 -2
BITMAP
00
00
10
10
10
10
10
10
10
00
10
00
00
ENDCHAR

STARTCHAR uni01C4
ENCODING 452
SWIDTH 568 0
DWIDTH 8 0
BBX 8 13 0 -2
BITMAP
0A
04
C0
AE
A2
A2
A4
A4
A8
A8
CE
00
00
ENDCHAR

STARTCHAR uni01C5
ENCODING 453
SWIDTH 568 0
DWIDTH 8 0
BBX 8 13 0 -2
BITMAP
00
00
CA
A4
A0
AE
A2
A4
A8
A8
CE
00
00
ENDCHAR

STARTCHAR uni01C6
ENCODING 454
SWIDTH 568 0
DWIDTH 8 0
BBX 8 13 0 -2
BITMAP
00
00
2A
24
20
6E
A2
A4
A8
A8
6E
00
00
ENDCHAR

STARTCHAR uni01C7
ENCODING 455
SWIDTH 568 0
DWIDTH 8 0
BBX 8 13 0 -2
BITMAP
00
00
8E
82
82
82
82
82
82
92
EC
00
00
ENDCHAR

STARTCHAR uni01C8
ENCODING 456
SWIDTH 568 0
DWIDTH 8 0
BBX 8 13 0 -2
BITMAP
00
00
80
82
80
86
82
82
82
82
EA
0A
04
ENDCHAR

STARTCHAR uni01C9
ENCODING 457
SWIDTH 568 0
DWIDTH 8 0
BBX 8 13 0 -2
BITMAP
00
00
80
82
80
86
82
82
82
82
6A
0A
04
ENDCHAR

STARTCHAR uni01CA
ENCODING 458
SWIDTH 568 0
DWIDTH 8 0
BBX 8 13 0 -2
BITMAP
00
00
97
91
D1
B1
91
91
91
95
92
00
00
ENDCHAR

STARTCHAR uni01CB
ENCODING 459
SWIDTH 568 0
DWIDTH 8 0
BBX 8 13 0 -2
BITMAP
00
00
90
91
D0
B3
91
91
91
91
95
05
02
ENDCHAR

STARTCHAR uni01CC
ENCODING 460
SWIDTH 568 0
DWIDTH 8 0
BBX 8 13 0 -2
BITMAP
00
00
00
01
00
E3
91
91
91
91
95
05
02
ENDCHAR

STARTCHAR uni01CD
ENCODING 461
SWIDTH 568 0
DWIDTH 8 0
BBX 8 13 0 -2
BITMAP
00
24
18
00
18
24
42
42
7E
42
42
00
00
ENDCHAR

STARTCHAR uni01CE
ENCODING 462
SWIDTH 568 0
DWIDTH 8 0
BBX 8 13 0 -2
BITMAP
00
00
24
18
00
3C
02
3E
42
46
3A
00
00
ENDCHAR

STARTCHAR uni01CF
ENCODING 463
SWIDTH 568 0
DWIDTH 8 0
BBX 8 13 0 -2
BITMAP
00
24
18
00
7C
10
10
10
10
10
7C
00
00
ENDCHAR

STARTCHAR uni01D0
ENCODING 464
SWIDTH 568 0
DWIDTH 8 0
BBX 8 13 0 -2
BITMAP
00
00
48
30
00
30
10
10
10
10
7C
00
00
ENDCHAR

STARTCHAR uni01D1
ENCODING 465
SWIDTH 568 0
DWIDTH 8 0
BBX 8 13 0 -2
BITMAP
00
24
18
00
7C
82
82
82
82
82
7C
00
00
ENDCHAR

STARTCHAR uni01D2
ENCODING 466
SWIDTH 568 0
DWIDTH 8 0
BBX 8 13 0 -2
BITMAP
00
00
24
18
00
3C
42
42
42
42
3C
00
00
ENDCHAR

STARTCHAR uni01D3
ENCODING 467
SWIDTH 568 0
DWIDTH 8 0
BBX 8 13 0 -2
BITMAP
00
24
18
00
42
42
42
42
42
42
3C
00
00
ENDCHAR

STARTCHAR uni01D4
ENCODING 468
SWIDTH 568 0
DWIDTH 8 0
BBX 8 13 0 -2
BITMAP
00
00
24
18
00
44
44
44
44
44
3A
00
00
ENDCHAR

STARTCHAR uni01D5
ENCODING 469
SWIDTH 568 0
DWIDTH 8 0
BBX 8 13 0 -2
BITMAP
3C
00
24
00
42
42
42
42
42
42
3C
00
00
ENDCHAR

STARTCHAR uni01D6
ENCODING 470
SWIDTH 568 0
DWIDTH 8 0
BBX 8 13 0 -2
BITMAP
00
3C
00
24
00
44
44
44
44
44
3A
00
00
ENDCHAR

STARTCHAR uni01D7
ENCODING 471
SWIDTH 568 0
DWIDTH 8 0
BBX 8 13 0 -2
BITMAP
04
08
22
00
42
42
42
42
42
42
3C
00
00
ENDCHAR

STARTCHAR uni01D8
ENCODING 472
SWIDTH 568 0
DWIDTH 8 0
BBX 8 13 0 -2
BITMAP
00
08
10
44
00
44
44
44
44
44
3A
00
00
ENDCHAR

STARTCHAR uni01D9
ENCODING 473
SWIDTH 568 0
DWIDTH 8 0
BBX 8 13 0 -2
BITMAP
14
08
22
00
42
42
42
42
42
42
3C
00
00
ENDCHAR

STARTCHAR uni01DA
ENCODING 474
SWIDTH 568 0
DWIDTH 8 0
BBX 8 13 0 -2
BITMAP
00
28
10
44
00
44
44
44
44
44
3A
00
00
ENDCHAR

STARTCHAR uni01DB
ENCODING 475
SWIDTH 568 0
DWIDTH 8 0
BBX 8 13 0 -2
BITMAP
10
08
22
00
42
42
42
42
42
42
3C
00
00
ENDCHAR

STARTCHAR uni01DC
ENCODING 476
SWIDTH 568 0
DWIDTH 8 0
BBX 8 13 0 -2
BITMAP
00
20
10
44
00
44
44
44
44
44
3A
00
00
ENDCHAR

STARTCHAR uni01DD
ENCODING 477
SWIDTH 568 0
DWIDTH 8 0
BBX 8 13 0 -2
BITMAP
00
00
00
00
00
3C
42
02
7E
42
3C
00
00
ENDCHAR

STARTCHAR uni01DE
ENCODING 478
SWIDTH 568 0
DWIDTH 8 0
BBX 8 13 0 -2
BITMAP
3C
00
24
00
18
24
42
42
7E
42
42
00
00
ENDCHAR

STARTCHAR uni01DF
ENCODING 479
SWIDTH 568 0
DWIDTH 8 0
BBX 8 13 0 -2
BITMAP
00
3C
00
24
00
3C
02
3E
42
46
3A
00
00
ENDCHAR

STARTCHAR uni01E0
ENCODING 480
SWIDTH 568 0
DWIDTH 8 0
BBX 8 13 0 -2
BITMAP
3C
00
18
00
18
24
42
42
7E
42
42
00
00
ENDCHAR

STARTCHAR uni01E1
ENCODING 481
SWIDTH 568 0
DWIDTH 8 0
BBX 8 13 0 -2
BITMAP
00
3C
00
18
00
3C
02
3E
42
46
3A
00
00
ENDCHAR

STARTCHAR uni01E2
ENCODING 482
SWIDTH 568 0
DWIDTH 8 0
BBX 8 13 0 -2
BITMAP
00
00
3C
00
7E
90
90
FC
90
90
9E
00
00
ENDCHAR

STARTCHAR uni01E3
ENCODING 483
SWIDTH 568 0
DWIDTH 8 0
BBX 8 13 0 -2
BITMAP
00
00
00
3C
00
6C
12
7C
90
92
6C
00
00
ENDCHAR

STARTCHAR uni01E4
ENCODING 484
SWIDTH 568 0
DWIDTH 8 0
BBX 8 13 0 -2
BITMAP
00
00
3C
42
40
40
4E
42
47
42
3C
00
00
ENDCHAR

STARTCHAR uni01E5
ENCODING 485
SWIDTH 568 0
DWIDTH 8 0
BBX 8 13 0 -2
BITMAP
00
00
00
00
00
3A
44
44
38
40
3C
47
3C
ENDCHAR

STARTCHAR Gcaron
ENCODING 486
SWIDTH 568 0
DWIDTH 8 0
BBX 8 13 0 -2
BITMAP
00
24
18
00
3C
42
40
4E
42
46
3A
00
00
ENDCHAR

STARTCHAR gcaron
ENCODING 487
SWIDTH 568 0
DWIDTH 8 0
BBX 8 13 0 -2
BITMAP
00
00
24
18
00
3A
44
44
38
40
3C
42
3C
ENDCHAR

STARTCHAR uni01E8
ENCODING 488
SWIDTH 568 0
DWIDTH 8 0
BBX 8 13 0 -2
BITMAP
00
24
18
00
44
48
50
60
50
48
44
00
00
ENDCHAR

STARTCHAR uni01E9
ENCODING 489
SWIDTH 568 0
DWIDTH 8 0
BBX 8 13 0 -2
BITMAP
00
24
18
40
40
44
48
70
48
44
42
00
00
ENDCHAR

STARTCHAR uni01EA
ENCODING 490
SWIDTH 568 0
DWIDTH 8 0
BBX 8 13 0 -2
BITMAP
00
00
3C
42
42
42
42
42
42
42
3C
10
08
ENDCHAR

STARTCHAR uni01EB
ENCODING 491
SWIDTH 568 0
DWIDTH 8 0
BBX 8 13 0 -2
BITMAP
00
00
00
00
00
3C
42
42
42
42
3C
10
08
ENDCHAR

STARTCHAR uni01EC
ENCODING 492
SWIDTH 568 0
DWIDTH 8 0
BBX 8 13 0 -2
BITMAP
00
00
3C
00
3C
42
42
42
42
42
3C
10
08
ENDCHAR

STARTCHAR uni01ED
ENCODING 493
SWIDTH 568 0
DWIDTH 8 0
BBX 8 13 0 -2
BITMAP
00
00
00
3C
00
3C
42
42
42
42
3C
10
08
ENDCHAR

STARTCHAR uni01EE
ENCODING 494
SWIDTH 568 0
DWIDTH 8 0
BBX 8 13 0 -2
BITMAP
24
18
00
7E
04
08
1C
02
02
42
3C
00
00
ENDCHAR

STARTCHAR uni01EF
ENCODING 495
SWIDTH 568 0
DWIDTH 8 0
BBX 8 13 0 -2
BITMAP
00
24
18
00
7E
02
04
08
1C
02
02
42
3C
ENDCHAR

STARTCHAR uni01F0
ENCODING 496
SWIDTH 568 0
DWIDTH 8 0
BBX 8 13 0 -2
BITMAP
00
00
12
0C
00
0C
04
04
04
04
44
44
38
ENDCHAR

STARTCHAR uni01F1
ENCODING 497
SWIDTH 568 0
DWIDTH 8 0
BBX 8 13 0 -2
BITMAP
00
00
CE
A2
A2
A4
A4
A4
A8
A8
CE
00
00
ENDCHAR

STARTCHAR uni01F2
ENCODING 498
SWIDTH 568 0
DWIDTH 8 0
BBX 8 13 0 -2
BITMAP
00
00
C0
A0
A0
AE
A2
A4
A8
A8
CE
00
00
ENDCHAR

STARTCHAR uni01F3
ENCODING 499
SWIDTH 568 0
DWIDTH 8 0
BBX 8 13 0 -2
BITMAP
00
00
20
20
20
6E
A2
A4
A8
A8
6E
00
00
ENDCHAR

STARTCHAR uni01F4
ENCODING 500
SWIDTH 568 0
DWIDTH 8 0
BBX 8 13 0 -2
BITMAP
00
08
10
00
3C
42
40
4E
42
46
3A
00
00
ENDCHAR

STARTCHAR uni01F5
ENCODING 501
SWIDTH 568 0
DWIDTH 8 0
BBX 8 13 0 -2
BITMAP
00
00
08
10
00
3A
44
44
38
40
3C
42
3C
ENDCHAR

STARTCHAR uni01F6
ENCODING 502
SWIDTH 568 0
DWIDTH 8 0
BBX 8 13 0 -2
BITMAP
00
00
48
48
48
4A
7A
4A
4A
4A
44
00
00
ENDCHAR

STARTCHAR uni01F7
ENCODING 503
SWIDTH 568 0
DWIDTH 8 0
BBX 8 13 0 -2
BITMAP
00
00
5C
62
42
44
48
50
60
40
40
00
00
ENDCHAR

STARTCHAR uni01F8
ENCODING 504
SWIDTH 568 0
DWIDTH 8 0
BBX 8 13 0 -2
BITMAP
10
08
42
42
62
52
4A
46
42
42
42
00
00
ENDCHAR

STARTCHAR uni01F9
ENCODING 505
SWIDTH 568 0
DWIDTH 8 0
BBX 8 13 0 -2
BITMAP
00
00
10
08
00
5C
62
42
42
42
42
00
00
ENDCHAR

STARTCHAR Aringacute
ENCODING 506
SWIDTH 568 0
DWIDTH 8 0
BBX 8 13 0 -2
BITMAP
08
10
00
18
24
18
24
42
7E
42
42
00
00
ENDCHAR

STARTCHAR aringacute
ENCODING 507
SWIDTH 568 0
DWIDTH 8 0
BBX 8 13 0 -2
BITMAP
08
10
18
24
18
3C
02
3E
42
46
3A
00
00
ENDCHAR

STARTCHAR AEacute
ENCODING 508
SWIDTH 568 0
DWIDTH 8 0
BBX 8 13 0 -2
BITMAP
00
08
10
00
7E
90
90
FC
90
90
9E
00
00
ENDCHAR

STARTCHAR aeacute
ENCODING 509
SWIDTH 568 0
DWIDTH 8 0
BBX 8 13 0 -2
BITMAP
00
00
08
10
00
6C
12
7C
90
92
6C
00
00
ENDCHAR

STARTCHAR Oslashacute
ENCODING 510
SWIDTH 568 0
DWIDTH 8 0
BBX 8 13 0 -2
BITMAP
00
08
10
02
3C
46
4A
52
52
62
3C
40
00
ENDCHAR

STARTCHAR oslashacute
ENCODING 511
SWIDTH 568 0
DWIDTH 8 0
BBX 8 13 0 -2
BITMAP
00
00
08
10
02
3C
46
4A
52
62
3C
40
00
ENDCHAR

STARTCHAR uni0200
ENCODING 512
SWIDTH 568 0
DWIDTH 8 0
BBX 8 13 0 -2
BITMAP
00
48
24
00
18
24
42
42
7E
42
42
00
00
ENDCHAR

STARTCHAR uni0201
ENCODING 513
SWIDTH 568 0
DWIDTH 8 0
BBX 8 13 0 -2
BITMAP
00
00
48
24
00
3C
02
3E
42
46
3A
00
00
ENDCHAR

STARTCHAR uni0202
ENCODING 514
SWIDTH 568 0
DWIDTH 8 0
BBX 8 13 0 -2
BITMAP
00
3C
42
00
18
24
42
42
7E
42
42
00
00
ENDCHAR

STARTCHAR uni0203
ENCODING 515
SWIDTH 568 0
DWIDTH 8 0
BBX 8 13 0 -2
BITMAP
00
00
3C
42
00
3C
02
3E
42
46
3A
00
00
ENDCHAR

STARTCHAR uni0204
ENCODING 516
SWIDTH 568 0
DWIDTH 8 0
BBX 8 13 0 -2
BITMAP
00
48
24
00
7E
40
40
78
40
40
7E
00
00
ENDCHAR

STARTCHAR uni0205
ENCODING 517
SWIDTH 568 0
DWIDTH 8 0
BBX 8 13 0 -2
BITMAP
00
00
48
24
00
3C
42
7E
40
42
3C
00
00
ENDCHAR

STARTCHAR uni0206
ENCODING 518
SWIDTH 568 0
DWIDTH 8 0
BBX 8 13 0 -2
BITMAP
00
3C
42
00
7E
40
40
78
40
40
7E
00
00
ENDCHAR

STARTCHAR uni0207
ENCODING 519
SWIDTH 568 0
DWIDTH 8 0
BBX 8 13 0 -2
BITMAP
00
00
3C
42
00
3C
42
7E
40
42
3C
00
00
ENDCHAR

STARTCHAR uni0208
ENCODING 520
SWIDTH 568 0
DWIDTH 8 0
BBX 8 13 0 -2
BITMAP
00
48
24
00
7C
10
10
10
10
10
7C
00
00
ENDCHAR

STARTCHAR uni0209
ENCODING 521
SWIDTH 568 0
DWIDTH 8 0
BBX 8 13 0 -2
BITMAP
00
00
48
24
00
18
08
08
08
08
3E
00
00
ENDCHAR

STARTCHAR uni020A
ENCODING 522
SWIDTH 568 0
DWIDTH 8 0
BBX 8 13 0 -2
BITMAP
00
38
44
00
7C
10
10
10
10
10
7C
00
00
ENDCHAR

STARTCHAR uni020B
ENCODING 523
SWIDTH 568 0
DWIDTH 8 0
BBX 8 13 0 -2
BITMAP
00
00
38
44
00
30
10
10
10
10
7C
00
00
ENDCHAR

STARTCHAR uni020C
ENCODING 524
SWIDTH 568 0
DWIDTH 8 0
BBX 8 13 0 -2
BITMAP
00
90
48
00
7C
82
82
82
82
82
7C
00
00
ENDCHAR

STARTCHAR uni020D
ENCODING 525
SWIDTH 568 0
DWIDTH 8 0
BBX 8 13 0 -2
BITMAP
00
00
48
24
00
3C
42
42
42
42
3C
00
00
ENDCHAR

STARTCHAR uni020E
ENCODING 526
SWIDTH 568 0
DWIDTH 8 0
BBX 8 13 0 -2
BITMAP
00
38
44
00
7C
82
82
82
82
82
7C
00
00
ENDCHAR

STARTCHAR uni020F
ENCODING 527
SWIDTH 568 0
DWIDTH 8 0
BBX 8 13 0 -2
BITMAP
00
00
3C
42
00
3C
42
42
42
42
3C
00
00
ENDCHAR

STARTCHAR uni0210
ENCODING 528
SWIDTH 568 0
DWIDTH 8 0
BBX 8 13 0 -2
BITMAP
00
48
24
00
7C
42
42
7C
48
44
42
00
00
ENDCHAR

STARTCHAR uni0211
ENCODING 529
SWIDTH 568 0
DWIDTH 8 0
BBX 8 13 0 -2
BITMAP
00
00
48
24
00
5C
22
20
20
20
20
00
00
ENDCHAR

STARTCHAR uni0212
ENCODING 530
SWIDTH 568 0
DWIDTH 8 0
BBX 8 13 0 -2
BITMAP
00
3C
42
00
7C
42
42
7C
48
44
42
00
00
ENDCHAR

STARTCHAR uni0213
ENCODING 531
SWIDTH 568 0
DWIDTH 8 0
BBX 8 13 0 -2
BITMAP
00
00
3C
42
00
5C
22
20
20
20
20
00
00
ENDCHAR

STARTCHAR uni0214
ENCODING 532
SWIDTH 568 0
DWIDTH 8 0
BBX 8 13 0 -2
BITMAP
00
48
24
00
42
42
42
42
42
42
3C
00
00
ENDCHAR

STARTCHAR uni0215
ENCODING 533
SWIDTH 568 0
DWIDTH 8 0
BBX 8 13 0 -2
BITMAP
00
00
48
24
00
44
44
44
44
44
3A
00
00
ENDCHAR

STARTCHAR uni0216
ENCODING 534
SWIDTH 568 0
DWIDTH 8 0
BBX 8 13 0 -2
BITMAP
00
3C
42
00
42
42
42
42
42
42
3C
00
00
ENDCHAR

STARTCHAR uni0217
ENCODING 535
SWIDTH 568 0
DWIDTH 8 0
BBX 8 13 0 -2
BITMAP
00
00
38
44
00
44
44
44
44
44
3A
00
00
ENDCHAR

STARTCHAR Scommaaccent
ENCODING 536
SWIDTH 568 0
DWIDTH 8 0
BBX 8 13 0 -2
BITMAP
00
00
3C
42
40
40
3C
02
02
42
3C
08
10
ENDCHAR

STARTCHAR scommaaccent
ENCODING 537
SWIDTH 568 0
DWIDTH 8 0
BBX 8 13 0 -2
BITMAP
00
00
00
00
00
3C
42
30
0C
42
3C
08
10
ENDCHAR

STARTCHAR Tcommaaccent
ENCODING 538
SWIDTH 568 0
DWIDTH 8 0
BBX 8 13 0 -2
BITMAP
00
00
FE
10
10
10
10
10
10
10
10
08
10
ENDCHAR

STARTCHAR tcommaaccent
ENCODING 539
SWIDTH 568 0
DWIDTH 8 0
BBX 8 13 0 -2
BITMAP
00
00
00
20
20
7C
20
20
20
22
1C
08
10
ENDCHAR

STARTCHAR uni021C
ENCODING 540
SWIDTH 568 0
DWIDTH 8 0
BBX 8 13 0 -2
BITMAP
00
00
7E
02
04
08
1C
02
02
42
3C
00
00
ENDCHAR

STARTCHAR uni021D
ENCODING 541
SWIDTH 568 0
DWIDTH 8 0
BBX 8 13 0 -2
BITMAP
00
00
00
00
7E
02
04
08
1C
02
02
42
3C
ENDCHAR

STARTCHAR uni021E
ENCODING 542
SWIDTH 568 0
DWIDTH 8 0
BBX 8 13 0 -2
BITMAP
00
24
18
42
42
42
7E
42
42
42
42
00
00
ENDCHAR

STARTCHAR uni021F
ENCODING 543
SWIDTH 568 0
DWIDTH 8 0
BBX 8 13 0 -2
BITMAP
00
24
18
40
40
5C
62
42
42
42
42
00
00
ENDCHAR

STARTCHAR uni0220
ENCODING 544
SWIDTH 568 0
DWIDTH 8 0
BBX 8 13 0 -2
BITMAP
00
00
5C
62
42
42
42
42
42
42
42
02
02
ENDCHAR

STARTCHAR uni0222
ENCODING 546
SWIDTH 568 0
DWIDTH 8 0
BBX 8 13 0 -2
BITMAP
00
00
24
42
42
42
3C
42
42
42
3C
00
00
ENDCHAR

STARTCHAR uni0223
ENCODING 547
SWIDTH 568 0
DWIDTH 8 0
BBX 8 13 0 -2
BITMAP
00
00
14
22
22
22
1C
22
22
22
1C
00
00
ENDCHAR

STARTCHAR uni0224
ENCODING 548
SWIDTH 568 0
DWIDTH 8 0
BBX 8 13 0 -2
BITMAP
00
00
7E
02
04
08
10
20
40
40
7E
02
0C
ENDCHAR

STARTCHAR uni0225
ENCODING 549
SWIDTH 568 0
DWIDTH 8 0
BBX 8 13 0 -2
BITMAP
00
00
00
00
00
7E
04
08
10
20
7E
02
0C
ENDCHAR

STARTCHAR uni0226
ENCODING 550
SWIDTH 568 0
DWIDTH 8 0
BBX 8 13 0 -2
BITMAP
00
18
00
18
24
42
42
7E
42
42
42
00
00
ENDCHAR

STARTCHAR uni0227
ENCODING 551
SWIDTH 568 0
DWIDTH 8 0
BBX 8 13 0 -2
BITMAP
00
00
00
18
00
3C
02
3E
42
46
3A
00
00
ENDCHAR

STARTCHAR uni0228
ENCODING 552
SWIDTH 568 0
DWIDTH 8 0
BBX 8 13 0 -2
BITMAP
00
00
7E
40
40
40
78
40
40
40
7E
02
0C
ENDCHAR

STARTCHAR uni0229
ENCODING 553
SWIDTH 568 0
DWIDTH 8 0
BBX 8 13 0 -2
BITMAP
00
00
00
00
00
3C
42
7E
40
42
3E
02
0C
ENDCHAR

STARTCHAR uni022A
ENCODING 554
SWIDTH 568 0
DWIDTH 8 0
BBX 8 13 0 -2
BITMAP
7C
00
28
00
7C
82
82
82
82
82
7C
00
00
ENDCHAR

STARTCHAR uni022B
ENCODING 555
SWIDTH 568 0
DWIDTH 8 0
BBX 8 13 0 -2
BITMAP
00
7E
00
24
00
3C
42
42
42
42
3C
00
00
ENDCHAR

STARTCHAR uni022C
ENCODING 556
SWIDTH 568 0
DWIDTH 8 0
BBX 8 13 0 -2
BITMAP
7C
34
58
00
7C
82
82
82
82
82
7C
00
00
ENDCHAR

STARTCHAR uni022D
ENCODING 557
SWIDTH 568 0
DWIDTH 8 0
BBX 8 13 0 -2
BITMAP
7E
00
14
28
00
3C
42
42
42
42
3C
00
00
ENDCHAR

STARTCHAR uni022E
ENCODING 558
SWIDTH 568 0
DWIDTH 8 0
BBX 8 13 0 -2
BITMAP
10
00
7C
82
82
82
82
82
82
82
7C
00
00
ENDCHAR

STARTCHAR uni022F
ENCODING 559
SWIDTH 568 0
DWIDTH 8 0
BBX 8 13 0 -2
BITMAP
00
00
00
18
00
3C
42
42
42
42
3C
00
00
ENDCHAR

STARTCHAR uni0230
ENCODING 560
SWIDTH 568 0
DWIDTH 8 0
BBX 8 13 0 -2
BITMAP
7C
00
10
00
7C
82
82
82
82
82
7C
00
00
ENDCHAR

STARTCHAR uni0231
ENCODING 561
SWIDTH 568 0
DWIDTH 8 0
BBX 8 13 0 -2
BITMAP
00
7E
00
18
00
3C
42
42
42
42
3C
00
00
ENDCHAR

STARTCHAR uni0232
ENCODING 562
SWIDTH 568 0
DWIDTH 8 0
BBX 8 13 0 -2
BITMAP
00
7C
00
82
44
28
10
10
10
10
10
00
00
ENDCHAR

STARTCHAR uni0233
ENCODING 563
SWIDTH 568 0
DWIDTH 8 0
BBX 8 13 0 -2
BITMAP
00
00
00
3C
00
42
42
42
46
3A
02
42
3C
ENDCHAR

STARTCHAR uni0250
ENCODING 592
SWIDTH 568 0
DWIDTH 8 0
BBX 8 13 0 -2
BITMAP
00
00
00
00
00
5C
62
42
7C
40
3C
00
00
ENDCHAR

STARTCHAR uni0251
ENCODING 593
SWIDTH 568 0
DWIDTH 8 0
BBX 8 13 0 -2
BITMAP
00
00
00
00
00
3A
46
42
42
46
3A
00
00
ENDCHAR

STARTCHAR uni0252
ENCODING 594
SWIDTH 568 0
DWIDTH 8 0
BBX 8 13 0 -2
BITMAP
00
00
00
00
00
5C
62
42
42
62
5C
00
00
ENDCHAR

STARTCHAR uni0253
ENCODING 595
SWIDTH 568 0
DWIDTH 8 0
BBX 8 13 0 -2
BITMAP
00
38
44
40
40
5C
62
42
42
62
5C
00
00
ENDCHAR

STARTCHAR uni0254
ENCODING 596
SWIDTH 568 0
DWIDTH 8 0
BBX 8 13 0 -2
BITMAP
00
00
00
00
00
3C
42
02
02
42
3C
00
00
ENDCHAR

STARTCHAR uni0255
ENCODING 597
SWIDTH 568 0
DWIDTH 8 0
BBX 8 13 0 -2
BITMAP
00
00
00
00
00
3C
42
40
44
4A
3C
10
00
ENDCHAR

STARTCHAR uni0256
ENCODING 598
SWIDTH 568 0
DWIDTH 8 0
BBX 8 13 0 -2
BITMAP
00
00
04
04
04
34
4C
44
44
4C
34
04
02
ENDCHAR

STARTCHAR uni0257
ENCODING 599
SWIDTH 568 0
DWIDTH 8 0
BBX 8 13 0 -2
BITMAP
00
02
05
04
04
34
4C
44
44
4C
34
00
00
ENDCHAR

STARTCHAR uni0258
ENCODING 600
SWIDTH 568 0
DWIDTH 8 0
BBX 8 13 0 -2
BITMAP
00
00
00
00
00
3C
42
7E
02
42
3C
00
00
ENDCHAR

STARTCHAR uni0259
ENCODING 601
SWIDTH 568 0
DWIDTH 8 0
BBX 8 13 0 -2
BITMAP
00
00
00
00
00
3C
42
02
7E
42
3C
00
00
ENDCHAR

STARTCHAR uni025A
ENCODING 602
SWIDTH 568 0
DWIDTH 8 0
BBX 8 13 0 -2
BITMAP
00
00
00
00
00
38
44
06
7D
45
38
00
00
ENDCHAR

STARTCHAR uni025B
ENCODING 603
SWIDTH 568 0
DWIDTH 8 0
BBX 8 13 0 -2
BITMAP
00
00
00
00
00
3C
42
38
40
42
3C
00
00
ENDCHAR

STARTCHAR uni025C
ENCODING 604
SWIDTH 568 0
DWIDTH 8 0
BBX 8 13 0 -2
BITMAP
00
00
00
00
00
3C
42
1C
02
42
3C
00
00
ENDCHAR

STARTCHAR uni025D
ENCODING 605
SWIDTH 568 0
DWIDTH 8 0
BBX 8 13 0 -2
BITMAP
00
00
00
00
00
38
46
19
04
44
38
00
00
ENDCHAR

STARTCHAR uni025E
ENCODING 606
SWIDTH 568 0
DWIDTH 8 0
BBX 8 13 0 -2
BITMAP
00
00
00
00
00
3C
42
5C
42
42
3C
00
00
ENDCHAR

STARTCHAR uni025F
ENCODING 607
SWIDTH 568 0
DWIDTH 8 0
BBX 8 13 0 -2
BITMAP
00
00
00
00
00
04
04
04
3E
04
04
44
38
ENDCHAR

STARTCHAR uni0260
ENCODING 608
SWIDTH 568 0
DWIDTH 8 0
BBX 8 13 0 -2
BITMAP
00
00
00
00
03
34
4C
44
4C
34
04
44
38
ENDCHAR

STARTCHAR uni0261
ENCODING 609
SWIDTH 568 0
DWIDTH 8 0
BBX 8 13 0 -2
BITMAP
00
00
00
00
00
3A
46
42
46
3A
02
42
3C
ENDCHAR

STARTCHAR uni0262
ENCODING 610
SWIDTH 568 0
DWIDTH 8 0
BBX 8 13 0 -2
BITMAP
00
00
00
00
00
3C
42
40
46
42
3C
00
00
ENDCHAR

STARTCHAR uni0263
ENCODING 611
SWIDTH 568 0
DWIDTH 8 0
BBX 8 13 0 -2
BITMAP
00
00
00
00
00
44
44
28
28
10
28
10
00
ENDCHAR

STARTCHAR uni0264
ENCODING 612
SWIDTH 568 0
DWIDTH 8 0
BBX 8 13 0 -2
BITMAP
00
00
00
00
00
22
55
08
08
14
08
00
00
ENDCHAR

STARTCHAR uni0265
ENCODING 613
SWIDTH 568 0
DWIDTH 8 0
BBX 8 13 0 -2
BITMAP
00
00
00
00
00
42
42
42
42
46
3A
02
02
ENDCHAR

STARTCHAR uni0266
ENCODING 614
SWIDTH 568 0
DWIDTH 8 0
BBX 8 13 0 -2
BITMAP
00
3C
40
40
40
5C
62
42
42
42
42
00
00
ENDCHAR

STARTCHAR uni0267
ENCODING 615
SWIDTH 568 0
DWIDTH 8 0
BBX 8 13 0 -2
BITMAP
00
3C
40
40
40
5C
62
42
42
42
42
12
0C
ENDCHAR

STARTCHAR uni0268
ENCODING 616
SWIDTH 568 0
DWIDTH 8 0
BBX 8 13 0 -2
BITMAP
00
00
00
10
00
30
10
7C
10
10
7C
00
00
ENDCHAR

STARTCHAR uni0269
ENCODING 617
SWIDTH 568 0
DWIDTH 8 0
BBX 8 13 0 -2
BITMAP
00
00
00
00
00
30
10
10
10
10
0C
00
00
ENDCHAR

STARTCHAR uni026A
ENCODING 618
SWIDTH 568 0
DWIDTH 8 0
BBX 8 13 0 -2
BITMAP
00
00
00
00
00
7C
10
10
10
10
7C
00
00
ENDCHAR

STARTCHAR uni026B
ENCODING 619
SWIDTH 568 0
DWIDTH 8 0
BBX 8 13 0 -2
BITMAP
00
00
30
10
10
34
58
10
10
10
7C
00
00
ENDCHAR

STARTCHAR uni026C
ENCODING 620
SWIDTH 568 0
DWIDTH 8 0
BBX 8 13 0 -2
BITMAP
00
00
30
10
10
30
50
3C
10
10
7C
00
00
ENDCHAR

STARTCHAR uni026D
ENCODING 621
SWIDTH 568 0
DWIDTH 8 0
BBX 8 13 0 -2
BITMAP
00
00
30
10
10
10
10
10
10
10
10
10
0C
ENDCHAR

STARTCHAR uni026E
ENCODING 622
SWIDTH 568 0
DWIDTH 8 0
BBX 8 13 0 -2
BITMAP
00
00
60
20
20
3E
22
24
2C
22
72
02
1C
ENDCHAR

STARTCHAR uni026F
ENCODING 623
SWIDTH 568 0
DWIDTH 8 0
BBX 8 13 0 -2
BITMAP
00
00
00
00
00
82
92
92
92
92
6E
00
00
ENDCHAR

STARTCHAR uni0270
ENCODING 624
SWIDTH 568 0
DWIDTH 8 0
BBX 8 13 0 -2
BITMAP
00
00
00
00
00
82
92
92
92
92
6E
02
02
ENDCHAR

STARTCHAR uni0271
ENCODING 625
SWIDTH 568 0
DWIDTH 8 0
BBX 8 13 0 -2
BITMAP
00
00
00
00
00
EC
92
92
92
92
82
02
0C
ENDCHAR

STARTCHAR uni0272
ENCODING 626
SWIDTH 568 0
DWIDTH 8 0
BBX 8 13 0 -2
BITMAP
00
00
00
00
00
2C
32
22
22
22
22
20
C0
ENDCHAR

STARTCHAR uni0273
ENCODING 627
SWIDTH 568 0
DWIDTH 8 0
BBX 8 13 0 -2
BITMAP
00
00
00
00
00
58
64
44
44
44
45
02
00
ENDCHAR

STARTCHAR uni0274
ENCODING 628
SWIDTH 568 0
DWIDTH 8 0
BBX 8 13 0 -2
BITMAP
00
00
00
00
00
42
62
52
4A
46
42
00
00
ENDCHAR

STARTCHAR uni0275
ENCODING 629
SWIDTH 568 0
DWIDTH 8 0
BBX 8 13 0 -2
BITMAP
00
00
00
00
00
3C
42
7E
42
42
3C
00
00
ENDCHAR

STARTCHAR uni0276
ENCODING 630
SWIDTH 568 0
DWIDTH 8 0
BBX 8 13 0 -2
BITMAP
00
00
00
00
00
3E
48
4E
48
48
3E
00
00
ENDCHAR

STARTCHAR uni0277
ENCODING 631
SWIDTH 568 0
DWIDTH 8 0
BBX 8 13 0 -2
BITMAP
00
00
00
00
00
7C
82
92
92
92
6C
00
00
ENDCHAR

STARTCHAR uni0278
ENCODING 632
SWIDTH 568 0
DWIDTH 8 0
BBX 8 13 0 -2
BITMAP
00
00
00
10
10
7C
92
92
92
92
7C
10
10
ENDCHAR

STARTCHAR uni0279
ENCODING 633
SWIDTH 568 0
DWIDTH 8 0
BBX 8 13 0 -2
BITMAP
00
00
00
00
00
04
04
04
04
44
3A
00
00
ENDCHAR

STARTCHAR uni027A
ENCODING 634
SWIDTH 568 0
DWIDTH 8 0
BBX 8 13 0 -2
BITMAP
00
00
04
04
04
04
04
04
04
44
3A
00
00
ENDCHAR

STARTCHAR uni027B
ENCODING 635
SWIDTH 568 0
DWIDTH 8 0
BBX 8 13 0 -2
BITMAP
00
00
00
00
00
08
08
08
08
48
38
08
06
ENDCHAR

STARTCHAR uni027C
ENCODING 636
SWIDTH 568 0
DWIDTH 8 0
BBX 8 13 0 -2
BITMAP
00
00
00
00
00
5C
22
20
20
20
20
20
20
ENDCHAR

STARTCHAR uni027D
ENCODING 637
SWIDTH 568 0
DWIDTH 8 0
BBX 8 13 0 -2
BITMAP
00
00
00
00
00
5C
22
20
20
20
20
24
18
ENDCHAR

STARTCHAR uni027E
ENCODING 638
SWIDTH 568 0
DWIDTH 8 0
BBX 8 13 0 -2
BITMAP
00
00
00
00
00
1C
22
20
20
20
20
00
00
ENDCHAR

STARTCHAR uni027F
ENCODING 639
SWIDTH 568 0
DWIDTH 8 0
BBX 8 13 0 -2
BITMAP
00
00
00
00
00
1C
22
02
02
02
02
00
00
ENDCHAR

STARTCHAR uni0280
ENCODING 640
SWIDTH 568 0
DWIDTH 8 0
BBX 8 13 0 -2
BITMAP
00
00
00
00
00
7C
42
42
7C
44
42
00
00
ENDCHAR

STARTCHAR uni0281
ENCODING 641
SWIDTH 568 0
DWIDTH 8 0
BBX 8 13 0 -2
BITMAP
00
00
00
00
00
42
44
7C
42
42
7C
00
00
ENDCHAR

STARTCHAR uni0282
ENCODING 642
SWIDTH 568 0
DWIDTH 8 0
BBX 8 13 0 -2
BITMAP
00
00
00
00
00
3C
42
30
0C
02
3C
40
30
ENDCHAR

STARTCHAR uni0283
ENCODING 643
SWIDTH 568 0
DWIDTH 8 0
BBX 8 13 0 -2
BITMAP
00
04
0A
08
08
08
08
08
08
08
28
10
00
ENDCHAR

STARTCHAR uni0284
ENCODING 644
SWIDTH 568 0
DWIDTH 8 0
BBX 8 13 0 -2
BITMAP
00
04
0A
08
08
08
08
1C
08
08
28
10
00
ENDCHAR

STARTCHAR uni0285
ENCODING 645
SWIDTH 568 0
DWIDTH 8 0
BBX 8 13 0 -2
BITMAP
00
10
28
08
08
08
08
08
08
08
0A
04
00
ENDCHAR

STARTCHAR uni0286
ENCODING 646
SWIDTH 568 0
DWIDTH 8 0
BBX 8 13 0 -2
BITMAP
00
04
0A
08
08
08
08
08
1C
2A
28
10
00
ENDCHAR

STARTCHAR uni0287
ENCODING 647
SWIDTH 568 0
DWIDTH 8 0
BBX 8 13 0 -2
BITMAP
00
00
00
00
00
38
44
04
04
04
3E
04
04
ENDCHAR

STARTCHAR uni0288
ENCODING 648
SWIDTH 568 0
DWIDTH 8 0
BBX 8 13 0 -2
BITMAP
00
00
00
20
20
7C
20
20
20
20
20
22
1C
ENDCHAR

STARTCHAR uni0289
ENCODING 649
SWIDTH 568 0
DWIDTH 8 0
BBX 8 13 0 -2
BITMAP
00
00
00
00
00
44
44
FE
44
44
3A
00
00
ENDCHAR

STARTCHAR uni028A
ENCODING 650
SWIDTH 568 0
DWIDTH 8 0
BBX 8 13 0 -2
BITMAP
00
00
00
00
00
66
24
42
42
42
3C
00
00
ENDCHAR

STARTCHAR uni028B
ENCODING 651
SWIDTH 568 0
DWIDTH 8 0
BBX 8 13 0 -2
BITMAP
00
00
00
00
00
44
42
42
42
44
38
00
00
ENDCHAR

STARTCHAR uni028C
ENCODING 652
SWIDTH 568 0
DWIDTH 8 0
BBX 8 13 0 -2
BITMAP
00
00
00
00
00
10
28
28
44
44
44
00
00
ENDCHAR

STARTCHAR uni028D
ENCODING 653
SWIDTH 568 0
DWIDTH 8 0
BBX 8 13 0 -2
BITMAP
00
00
00
00
00
44
AA
92
92
82
82
00
00
ENDCHAR

STARTCHAR uni028E
ENCODING 654
SWIDTH 568 0
DWIDTH 8 0
BBX 8 13 0 -2
BITMAP
00
00
04
0A
08
10
10
28
28
44
44
00
00
ENDCHAR

STARTCHAR uni028F
ENCODING 655
SWIDTH 568 0
DWIDTH 8 0
BBX 8 13 0 -2
BITMAP
00
00
00
00
00
82
44
28
10
10
10
00
00
ENDCHAR

STARTCHAR uni0290
ENCODING 656
SWIDTH 568 0
DWIDTH 8 0
BBX 8 13 0 -2
BITMAP
00
00
00
00
00
7E
04
08
10
20
7C
04
03
ENDCHAR

STARTCHAR uni0291
ENCODING 657
SWIDTH 568 0
DWIDTH 8 0
BBX 8 13 0 -2
BITMAP
00
00
00
00
00
7E
04
08
12
25
7E
08
00
ENDCHAR

STARTCHAR uni0292
ENCODING 658
SWIDTH 568 0
DWIDTH 8 0
BBX 8 13 0 -2
BITMAP
00
00
00
00
7E
02
04
08
1C
02
02
42
3C
ENDCHAR

STARTCHAR uni0293
ENCODING 659
SWIDTH 568 0
DWIDTH 8 0
BBX 8 13 0 -2
BITMAP
00
00
00
00
7E
02
04
08
1C
02
3E
43
3C
ENDCHAR

STARTCHAR uni0294
ENCODING 660
SWIDTH 568 0
DWIDTH 8 0
BBX 8 13 0 -2
BITMAP
00
00
1C
22
02
02
02
0C
08
08
08
00
00
ENDCHAR

STARTCHAR uni0295
ENCODING 661
SWIDTH 568 0
DWIDTH 8 0
BBX 8 13 0 -2
BITMAP
00
00
1C
22
20
20
20
18
08
08
08
00
00
ENDCHAR

STARTCHAR uni0296
ENCODING 662
SWIDTH 568 0
DWIDTH 8 0
BBX 8 13 0 -2
BITMAP
00
00
08
08
08
0C
02
02
02
22
1C
00
00
ENDCHAR

STARTCHAR uni0297
ENCODING 663
SWIDTH 568 0
DWIDTH 8 0
BBX 8 13 0 -2
BITMAP
00
00
00
00
00
3C
42
40
40
40
40
42
3C
ENDCHAR

STARTCHAR uni0298
ENCODING 664
SWIDTH 568 0
DWIDTH 8 0
BBX 8 13 0 -2
BITMAP
00
00
00
00
00
3C
42
5A
5A
42
3C
00
00
ENDCHAR

STARTCHAR uni0299
ENCODING 665
SWIDTH 568 0
DWIDTH 8 0
BBX 8 13 0 -2
BITMAP
00
00
00
00
00
7C
42
7C
42
42
7C
00
00
ENDCHAR

STARTCHAR uni029A
ENCODING 666
SWIDTH 568 0
DWIDTH 8 0
BBX 8 13 0 -2
BITMAP
00
00
00
00
38
44
42
3A
42
44
38
00
00
ENDCHAR

STARTCHAR uni029B
ENCODING 667
SWIDTH 568 0
DWIDTH 8 0
BBX 8 13 0 -2
BITMAP
00
00
00
01
02
3C
42
40
46
42
3C
00
00
ENDCHAR

STARTCHAR uni029C
ENCODING 668
SWIDTH 568 0
DWIDTH 8 0
BBX 8 13 0 -2
BITMAP
00
00
00
00
00
42
42
7E
42
42
42
00
00
ENDCHAR

STARTCHAR uni029D
ENCODING 669
SWIDTH 568 0
DWIDTH 8 0
BBX 8 13 0 -2
BITMAP
00
00
00
04
00
0C
04
04
07
0C
14
24
18
ENDCHAR

STARTCHAR uni029E
ENCODING 670
SWIDTH 568 0
DWIDTH 8 0
BBX 8 13 0 -2
BITMAP
00
00
00
00
00
42
22
12
0E
12
22
02
02
ENDCHAR

STARTCHAR uni029F
ENCODING 671
SWIDTH 568 0
DWIDTH 8 0
BBX 8 13 0 -2
BITMAP
00
00
00
00
00
40
40
40
40
40
7E
00
00
ENDCHAR

STARTCHAR uni02A0
ENCODING 672
SWIDTH 568 0
DWIDTH 8 0
BBX 8 13 0 -2
BITMAP
00
00
03
04
04
34
4C
44
4C
34
04
04
04
ENDCHAR

STARTCHAR uni02A1
ENCODING 673
SWIDTH 568 0
DWIDTH 8 0
BBX 8 13 0 -2
BITMAP
00
00
1C
22
02
02
02
0C
08
1C
08
08
00
ENDCHAR

STARTCHAR uni02A2
ENCODING 674
SWIDTH 568 0
DWIDTH 8 0
BBX 8 13 0 -2
BITMAP
00
00
1C
22
20
20
20
18
08
1C
08
08
00
ENDCHAR

STARTCHAR uni02A3
ENCODING 675
SWIDTH 568 0
DWIDTH 8 0
BBX 8 13 0 -2
BITMAP
00
00
10
10
10
57
B1
92
92
B4
57
00
00
ENDCHAR

STARTCHAR uni02A4
ENCODING 676
SWIDTH 568 0
DWIDTH 8 0
BBX 8 13 0 -2
BITMAP
00
00
10
10
10
57
B1
92
96
B1
51
06
00
ENDCHAR

STARTCHAR uni02A5
ENCODING 677
SWIDTH 568 0
DWIDTH 8 0
BBX 8 13 0 -2
BITMAP
00
00
10
10
10
57
B1
92
92
B5
57
02
02
ENDCHAR

STARTCHAR uni02A6
ENCODING 678
SWIDTH 568 0
DWIDTH 8 0
BBX 8 13 0 -2
BITMAP
00
00
40
40
40
F3
44
42
41
41
36
00
00
ENDCHAR

STARTCHAR uni02A7
ENCODING 679
SWIDTH 568 0
DWIDTH 8 0
BBX 8 13 0 -2
BITMAP
00
02
45
44
44
F4
44
44
44
44
24
14
08
ENDCHAR

STARTCHAR uni02A8
ENCODING 680
SWIDTH 568 0
DWIDTH 8 0
BBX 8 13 0 -2
BITMAP
00
00
40
40
40
F6
49
48
4A
4D
36
04
00
ENDCHAR

STARTCHAR uni02A9
ENCODING 681
SWIDTH 568 0
DWIDTH 8 0
BBX 8 13 0 -2
BITMAP
00
00
38
44
40
40
F4
5A
52
52
52
02
0C
ENDCHAR

STARTCHAR uni02AA
ENCODING 682
SWIDTH 568 0
DWIDTH 8 0
BBX 8 13 0 -2
BITMAP
00
00
60
20
20
2C
32
28
24
32
7C
00
00
ENDCHAR

STARTCHAR uni02AB
ENCODING 683
SWIDTH 568 0
DWIDTH 8 0
BBX 8 13 0 -2
BITMAP
00
00
60
20
20
3E
22
24
28
30
7E
00
00
ENDCHAR

STARTCHAR uni02AC
ENCODING 684
SWIDTH 568 0
DWIDTH 8 0
BBX 8 13 0 -2
BITMAP
00
00
54
54
28
28
00
54
54
28
28
00
00
ENDCHAR

STARTCHAR uni02AD
ENCODING 685
SWIDTH 568 0
DWIDTH 8 0
BBX 8 13 0 -2
BITMAP
00
00
00
00
7E
42
00
7E
42
00
00
00
00
ENDCHAR

STARTCHAR uni02B0
ENCODING 688
SWIDTH 568 0
DWIDTH 8 0
BBX 8 13 0 -2
BITMAP
00
00
20
28
34
24
24
00
00
00
00
00
00
ENDCHAR

STARTCHAR uni02B1
ENCODING 689
SWIDTH 568 0
DWIDTH 8 0
BBX 8 13 0 -2
BITMAP
00
18
20
28
34
24
24
00
00
00
00
00
00
ENDCHAR

STARTCHAR uni02B2
ENCODING 690
SWIDTH 568 0
DWIDTH 8 0
BBX 8 13 0 -2
BITMAP
00
08
00
08
08
28
10
00
00
00
00
00
00
ENDCHAR

STARTCHAR uni02B3
ENCODING 691
SWIDTH 568 0
DWIDTH 8 0
BBX 8 13 0 -2
BITMAP
00
00
28
34
20
20
20
00
00
00
00
00
00
ENDCHAR

STARTCHAR uni02B4
ENCODING 692
SWIDTH 568 0
DWIDTH 8 0
BBX 8 13 0 -2
BITMAP
00
00
08
08
08
58
28
00
00
00
00
00
00
ENDCHAR

STARTCHAR uni02B5
ENCODING 693
SWIDTH 568 0
DWIDTH 8 0
BBX 8 13 0 -2
BITMAP
00
00
08
08
08
58
2A
04
00
00
00
00
00
ENDCHAR

STARTCHAR uni02B6
ENCODING 694
SWIDTH 568 0
DWIDTH 8 0
BBX 8 13 0 -2
BITMAP
00
00
44
48
70
48
70
00
00
00
00
00
00
ENDCHAR

STARTCHAR uni02B7
ENCODING 695
SWIDTH 568 0
DWIDTH 8 0
BBX 8 13 0 -2
BITMAP
00
00
82
92
92
6C
00
00
00
00
00
00
00
ENDCHAR

STARTCHAR uni02B8
ENCODING 696
SWIDTH 568 0
DWIDTH 8 0
BBX 8 13 0 -2
BITMAP
00
00
44
28
10
20
40
00
00
00
00
00
00
ENDCHAR

STARTCHAR uni02B9
ENCODING 697
SWIDTH 568 0
DWIDTH 8 0
BBX 8 13 0 -2
BITMAP
00
00
10
10
20
00
00
00
00
00
00
00
00
ENDCHAR

STARTCHAR uni02BA
ENCODING 698
SWIDTH 568 0
DWIDTH 8 0
BBX 8 13 0 -2
BITMAP
00
00
14
14
28
00
00
00
00
00
00
00
00
ENDCHAR

STARTCHAR uni02BB
ENCODING 699
SWIDTH 568 0
DWIDTH 8 0
BBX 8 13 0 -2
BITMAP
00
00
08
10
18
00
00
00
00
00
00
00
00
ENDCHAR

STARTCHAR afii57929
ENCODING 700
SWIDTH 568 0
DWIDTH 8 0
BBX 8 13 0 -2
BITMAP
00
00
18
08
10
00
00
00
00
00
00
00
00
ENDCHAR

STARTCHAR afii64937
ENCODING 701
SWIDTH 568 0
DWIDTH 8 0
BBX 8 13 0 -2
BITMAP
00
00
18
10
08
00
00
00
00
00
00
00
00
ENDCHAR

STARTCHAR uni02BE
ENCODING 702
SWIDTH 568 0
DWIDTH 8 0
BBX 8 13 0 -2
BITMAP
00
10
08
08
10
00
00
00
00
00
00
00
00
ENDCHAR

STARTCHAR uni02BF
ENCODING 703
SWIDTH 568 0
DWIDTH 8 0
BBX 8 13 0 -2
BITMAP
00
08
10
10
08
00
00
00
00
00
00
00
00
ENDCHAR

STARTCHAR uni02C0
ENCODING 704
SWIDTH 568 0
DWIDTH 8 0
BBX 8 13 0 -2
BITMAP
00
10
28
08
10
10
00
00
00
00
00
00
00
ENDCHAR

STARTCHAR uni02C1
ENCODING 705
SWIDTH 568 0
DWIDTH 8 0
BBX 8 13 0 -2
BITMAP
00
10
28
20
10
10
00
00
00
00
00
00
00
ENDCHAR

STARTCHAR uni02C2
ENCODING 706
SWIDTH 568 0
DWIDTH 8 0
BBX 8 13 0 -2
BITMAP
00
08
10
20
10
08
00
00
00
00
00
00
00
ENDCHAR

STARTCHAR uni02C3
ENCODING 707
SWIDTH 568 0
DWIDTH 8 0
BBX 8 13 0 -2
BITMAP
00
20
10
08
10
20
00
00
00
00
00
00
00
ENDCHAR

STARTCHAR uni02C4
ENCODING 708
SWIDTH 568 0
DWIDTH 8 0
BBX 8 13 0 -2
BITMAP
00
10
28
44
00
00
00
00
00
00
00
00
00
ENDCHAR

STARTCHAR uni02C5
ENCODING 709
SWIDTH 568 0
DWIDTH 8 0
BBX 8 13 0 -2
BITMAP
00
44
28
10
00
00
00
00
00
00
00
00
00
ENDCHAR

STARTCHAR circumflex
ENCODING 710
SWIDTH 568 0
DWIDTH 8 0
BBX 8 13 0 -2
BITMAP
00
18
24
00
00
00
00
00
00
00
00
00
00
ENDCHAR

STARTCHAR caron
ENCODING 711
SWIDTH 568 0
DWIDTH 8 0
BBX 8 13 0 -2
BITMAP
00
24
18
00
00
00
00
00
00
00
00
00
00
ENDCHAR

STARTCHAR uni02C8
ENCODING 712
SWIDTH 568 0
DWIDTH 8 0
BBX 8 13 0 -2
BITMAP
00
00
10
10
10
00
00
00
00
00
00
00
00
ENDCHAR

STARTCHAR macron
ENCODING 713
SWIDTH 568 0
DWIDTH 8 0
BBX 8 13 0 -2
BITMAP
00
00
7C
00
00
00
00
00
00
00
00
00
00
ENDCHAR

STARTCHAR uni02CA
ENCODING 714
SWIDTH 568 0
DWIDTH 8 0
BBX 8 13 0 -2
BITMAP
00
00
10
20
00
00
00
00
00
00
00
00
00
ENDCHAR

STARTCHAR uni02CB
ENCODING 715
SWIDTH 568 0
DWIDTH 8 0
BBX 8 13 0 -2
BITMAP
00
00
20
10
00
00
00
00
00
00
00
00
00
ENDCHAR

STARTCHAR uni02CC
ENCODING 716
SWIDTH 568 0
DWIDTH 8 0
BBX 8 13 0 -2
BITMAP
00
00
00
00
00
00
00
00
20
20
20
00
00
ENDCHAR

STARTCHAR uni02CD
ENCODING 717
SWIDTH 568 0
DWIDTH 8 0
BBX 8 13 0 -2
BITMAP
00
00
00
00
00
00
00
00
00
00
00
00
38
ENDCHAR

STARTCHAR uni02CE
ENCODING 718
SWIDTH 568 0
DWIDTH 8 0
BBX 8 13 0 -2
BITMAP
00
00
00
00
00
00
00
00
00
00
00
10
08
ENDCHAR

STARTCHAR uni02CF
ENCODING 719
SWIDTH 568 0
DWIDTH 8 0
BBX 8 13 0 -2
BITMAP
00
00
00
00
00
00
00
00
00
00
00
10
20
ENDCHAR

STARTCHAR uni02D0
ENCODING 720
SWIDTH 568 0
DWIDTH 8 0
BBX 8 13 0 -2
BITMAP
00
00
00
00
00
38
10
00
00
10
38
00
00
ENDCHAR

STARTCHAR uni02D1
ENCODING 721
SWIDTH 568 0
DWIDTH 8 0
BBX 8 13 0 -2
BITMAP
00
00
00
00
00
38
10
00
00
00
00
00
00
ENDCHAR

STARTCHAR uni02D2
ENCODING 722
SWIDTH 568 0
DWIDTH 8 0
BBX 8 13 0 -2
BITMAP
00
00
00
00
00
10
08
08
10
00
00
00
00
ENDCHAR

STARTCHAR uni02D3
ENCODING 723
SWIDTH 568 0
DWIDTH 8 0
BBX 8 13 0 -2
BITMAP
00
00
00
00
00
10
20
20
10
00
00
00
00
ENDCHAR

STARTCHAR uni02D4
ENCODING 724
SWIDTH 568 0
DWIDTH 8 0
BBX 8 13 0 -2
BITMAP
00
00
00
00
10
10
7C
00
00
00
00
00
00
ENDCHAR

STARTCHAR uni02D5
ENCODING 725
SWIDTH 568 0
DWIDTH 8 0
BBX 8 13 0 -2
BITMAP
00
00
00
00
00
00
7C
10
10
00
00
00
00
ENDCHAR

STARTCHAR uni02D6
ENCODING 726
SWIDTH 568 0
DWIDTH 8 0
BBX 8 13 0 -2
BITMAP
00
00
00
00
10
10
7C
10
10
00
00
00
00
ENDCHAR

STARTCHAR uni02D7
ENCODING 727
SWIDTH 568 0
DWIDTH 8 0
BBX 8 13 0 -2
BITMAP
00
00
00
00
00
44
7C
44
00
00
00
00
00
ENDCHAR

STARTCHAR breve
ENCODING 728
SWIDTH 568 0
DWIDTH 8 0
BBX 8 13 0 -2
BITMAP
00
42
3C
00
00
00
00
00
00
00
00
00
00
ENDCHAR

STARTCHAR dotaccent
ENCODING 729
SWIDTH 568 0
DWIDTH 8 0
BBX 8 13 0 -2
BITMAP
00
00
18
00
00
00
00
00
00
00
00
00
00
ENDCHAR

STARTCHAR ring
ENCODING 730
SWIDTH 568 0
DWIDTH 8 0
BBX 8 13 0 -2
BITMAP
18
24
18
00
00
00
00
00
00
00
00
00
00
ENDCHAR

STARTCHAR ogonek
ENCODING 731
SWIDTH 568 0
DWIDTH 8 0
BBX 8 13 0 -2
BITMAP
00
00
00
00
00
00
00
00
00
00
00
10
1C
ENDCHAR

STARTCHAR tilde
ENCODING 732
SWIDTH 568 0
DWIDTH 8 0
BBX 8 13 0 -2
BITMAP
00
14
28
00
00
00
00
00
00
00
00
00
00
ENDCHAR

STARTCHAR hungarumlaut
ENCODING 733
SWIDTH 568 0
DWIDTH 8 0
BBX 8 13 0 -2
BITMAP
00
22
44
00
00
00
00
00
00
00
00
00
00
ENDCHAR

STARTCHAR uni02DE
ENCODING 734
SWIDTH 568 0
DWIDTH 8 0
BBX 8 13 0 -2
BITMAP
00
00
00
00
00
60
92
0C
00
00
00
00
00
ENDCHAR

STARTCHAR uni02DF
ENCODING 735
SWIDTH 568 0
DWIDTH 8 0
BBX 8 13 0 -2
BITMAP
00
28
10
28
00
00
00
00
00
00
00
00
00
ENDCHAR

STARTCHAR uni02E0
ENCODING 736
SWIDTH 568 0
DWIDTH 8 0
BBX 8 13 0 -2
BITMAP
00
00
44
28
10
28
10
00
00
00
00
00
00
ENDCHAR

STARTCHAR uni02E1
ENCODING 737
SWIDTH 568 0
DWIDTH 8 0
BBX 8 13 0 -2
BITMAP
00
30
10
10
10
38
00
00
00
00
00
00
00
ENDCHAR

STARTCHAR uni02E2
ENCODING 738
SWIDTH 568 0
DWIDTH 8 0
BBX 8 13 0 -2
BITMAP
00
00
18
20
10
08
30
00
00
00
00
00
00
ENDCHAR

STARTCHAR uni02E3
ENCODING 739
SWIDTH 568 0
DWIDTH 8 0
BBX 8 13 0 -2
BITMAP
00
00
24
18
18
24
00
00
00
00
00
00
00
ENDCHAR

STARTCHAR uni02E4
ENCODING 740
SWIDTH 568 0
DWIDTH 8 0
BBX 8 13 0 -2
BITMAP
00
00
38
44
40
40
30
10
10
00
00
00
00
ENDCHAR

STARTCHAR uni02E5
ENCODING 741
SWIDTH 568 0
DWIDTH 8 0
BBX 8 13 0 -2
BITMAP
00
00
78
08
08
08
08
08
08
08
08
08
08
ENDCHAR

STARTCHAR uni02E6
ENCODING 742
SWIDTH 568 0
DWIDTH 8 0
BBX 8 13 0 -2
BITMAP
00
00
08
08
78
08
08
08
08
08
08
08
08
ENDCHAR

STARTCHAR uni02E7
ENCODING 743
SWIDTH 568 0
DWIDTH 8 0
BBX 8 13 0 -2
BITMAP
00
00
08
08
08
08
08
78
08
08
08
08
08
ENDCHAR

STARTCHAR uni02E8
ENCODING 744
SWIDTH 568 0
DWIDTH 8 0
BBX 8 13 0 -2
BITMAP
00
00
08
08
08
08
08
08
08
08
78
08
08
ENDCHAR

STARTCHAR uni02E9
ENCODING 745
SWIDTH 568 0
DWIDTH 8 0
BBX 8 13 0 -2
BITMAP
00
00
08
08
08
08
08
08
08
08
08
08
78
ENDCHAR

STARTCHAR uni02EA
ENCODING 746
SWIDTH 568 0
DWIDTH 8 0
BBX 8 13 0 -2
BITMAP
00
00
00
00
00
00
00
40
40
40
78
00
00
ENDCHAR

STARTCHAR uni02EB
ENCODING 747
SWIDTH 568 0
DWIDTH 8 0
BBX 8 13 0 -2
BITMAP
00
00
00
00
20
20
20
3C
20
20
20
00
00
ENDCHAR

STARTCHAR uni02EC
ENCODING 748
SWIDTH 568 0
DWIDTH 8 0
BBX 8 13 0 -2
BITMAP
00
00
00
00
00
00
00
00
00
00
44
28
10
ENDCHAR

STARTCHAR uni02ED
ENCODING 749
SWIDTH 568 0
DWIDTH 8 0
BBX 8 13 0 -2
BITMAP
00
00
7E
00
7E
00
00
00
00
00
00
00
00
ENDCHAR

STARTCHAR uni02EE
ENCODING 750
SWIDTH 568 0
DWIDTH 8 0
BBX 8 13 0 -2
BITMAP
00
00
66
22
44
00
00
00
00
00
00
00
00
ENDCHAR

STARTCHAR gravecomb
ENCODING 768
SWIDTH 568 0
DWIDTH 8 0
BBX 8 13 0 -2
BITMAP
00
10
08
00
00
00
00
00
00
00
00
00
00
ENDCHAR

STARTCHAR acutecomb
ENCODING 769
SWIDTH 568 0
DWIDTH 8 0
BBX 8 13 0 -2
BITMAP
00
08
10
00
00
00
00
00
00
00
00
00
00
ENDCHAR

STARTCHAR uni0302
ENCODING 770
SWIDTH 568 0
DWIDTH 8 0
BBX 8 13 0 -2
BITMAP
00
18
24
00
00
00
00
00
00
00
00
00
00
ENDCHAR

STARTCHAR tildecomb
ENCODING 771
SWIDTH 568 0
DWIDTH 8 0
BBX 8 13 0 -2
BITMAP
00
32
4C
00
00
00
00
00
00
00
00
00
00
ENDCHAR

STARTCHAR uni0304
ENCODING 772
SWIDTH 568 0
DWIDTH 8 0
BBX 8 13 0 -2
BITMAP
00
00
3C
00
00
00
00
00
00
00
00
00
00
ENDCHAR

STARTCHAR uni0305
ENCODING 773
SWIDTH 568 0
DWIDTH 8 0
BBX 8 13 0 -2
BITMAP
00
00
7E
00
00
00
00
00
00
00
00
00
00
ENDCHAR

STARTCHAR uni0306
ENCODING 774
SWIDTH 568 0
DWIDTH 8 0
BBX 8 13 0 -2
BITMAP
00
42
3C
00
00
00
00
00
00
00
00
00
00
ENDCHAR

STARTCHAR uni0307
ENCODING 775
SWIDTH 568 0
DWIDTH 8 0
BBX 8 13 0 -2
BITMAP
00
00
18
00
00
00
00
00
00
00
00
00
00
ENDCHAR

STARTCHAR uni0308
ENCODING 776
SWIDTH 568 0
DWIDTH 8 0
BBX 8 13 0 -2
BITMAP
00
24
24
00
00
00
00
00
00
00
00
00
00
ENDCHAR

STARTCHAR hookabovecomb
ENCODING 777
SWIDTH 568 0
DWIDTH 8 0
BBX 8 13 0 -2
BITMAP
18
24
04
08
00
00
00
00
00
00
00
00
00
ENDCHAR

STARTCHAR uni030A
ENCODING 778
SWIDTH 568 0
DWIDTH 8 0
BBX 8 13 0 -2
BITMAP
18
24
24
18
00
00
00
00
00
00
00
00
00
ENDCHAR

STARTCHAR uni030B
ENCODING 779
SWIDTH 568 0
DWIDTH 8 0
BBX 8 13 0 -2
BITMAP
00
24
48
00
00
00
00
00
00
00
00
00
00
ENDCHAR

STARTCHAR uni030C
ENCODING 780
SWIDTH 568 0
DWIDTH 8 0
BBX 8 13 0 -2
BITMAP
00
24
18
00
00
00
00
00
00
00
00
00
00
ENDCHAR

STARTCHAR uni030D
ENCODING 781
SWIDTH 568 0
DWIDTH 8 0
BBX 8 13 0 -2
BITMAP
00
10
10
00
00
00
00
00
00
00
00
00
00
ENDCHAR

STARTCHAR uni030E
ENCODING 782
SWIDTH 568 0
DWIDTH 8 0
BBX 8 13 0 -2
BITMAP
00
28
28
00
00
00
00
00
00
00
00
00
00
ENDCHAR

STARTCHAR uni030F
ENCODING 783
SWIDTH 568 0
DWIDTH 8 0
BBX 8 13 0 -2
BITMAP
00
48
24
00
00
00
00
00
00
00
00
00
00
ENDCHAR

STARTCHAR uni0310
ENCODING 784
SWIDTH 568 0
DWIDTH 8 0
BBX 8 13 0 -2
BITMAP
18
42
3C
00
00
00
00
00
00
00
00
00
00
ENDCHAR

STARTCHAR uni0311
ENCODING 785
SWIDTH 568 0
DWIDTH 8 0
BBX 8 13 0 -2
BITMAP
00
3C
42
00
00
00
00
00
00
00
00
00
00
ENDCHAR

STARTCHAR uni0312
ENCODING 786
SWIDTH 568 0
DWIDTH 8 0
BBX 8 13 0 -2
BITMAP
00
08
10
18
00
00
00
00
00
00
00
00
00
ENDCHAR

STARTCHAR uni0313
ENCODING 787
SWIDTH 568 0
DWIDTH 8 0
BBX 8 13 0 -2
BITMAP
00
18
08
10
00
00
00
00
00
00
00
00
00
ENDCHAR

STARTCHAR uni0314
ENCODING 788
SWIDTH 568 0
DWIDTH 8 0
BBX 8 13 0 -2
BITMAP
00
18
10
08
00
00
00
00
00
00
00
00
00
ENDCHAR

STARTCHAR uni0315
ENCODING 789
SWIDTH 568 0
DWIDTH 8 0
BBX 8 13 0 -2
BITMAP
00
06
02
04
00
00
00
00
00
00
00
00
00
ENDCHAR

STARTCHAR uni0316
ENCODING 790
SWIDTH 568 0
DWIDTH 8 0
BBX 8 13 0 -2
BITMAP
00
00
00
00
00
00
00
00
00
00
00
10
08
ENDCHAR

STARTCHAR uni0317
ENCODING 791
SWIDTH 568 0
DWIDTH 8 0
BBX 8 13 0 -2
BITMAP
00
00
00
00
00
00
00
00
00
00
00
08
10
ENDCHAR

STARTCHAR uni0318
ENCODING 792
SWIDTH 568 0
DWIDTH 8 0
BBX 8 13 0 -2
BITMAP
00
00
00
00
00
00
00
00
00
00
04
3C
04
ENDCHAR

STARTCHAR uni0319
ENCODING 793
SWIDTH 568 0
DWIDTH 8 0
BBX 8 13 0 -2
BITMAP
00
00
00
00
00
00
00
00
00
00
20
3C
20
ENDCHAR

STARTCHAR uni031A
ENCODING 794
SWIDTH 568 0
DWIDTH 8 0
BBX 8 13 0 -2
BITMAP
07
01
01
00
00
00
00
00
00
00
00
00
00
ENDCHAR

STARTCHAR uni031B
ENCODING 795
SWIDTH 568 0
DWIDTH 8 0
BBX 8 13 0 -2
BITMAP
00
00
01
01
02
00
00
00
00
00
00
00
00
ENDCHAR

STARTCHAR uni031C
ENCODING 796
SWIDTH 568 0
DWIDTH 8 0
BBX 8 13 0 -2
BITMAP
00
00
00
00
00
00
00
00
00
00
18
20
18
ENDCHAR

STARTCHAR uni031D
ENCODING 797
SWIDTH 568 0
DWIDTH 8 0
BBX 8 13 0 -2
BITMAP
00
00
00
00
00
00
00
00
00
00
10
10
7C
ENDCHAR

STARTCHAR uni031E
ENCODING 798
SWIDTH 568 0
DWIDTH 8 0
BBX 8 13 0 -2
BITMAP
00
00
00
00
00
00
00
00
00
00
7C
10
10
ENDCHAR

STARTCHAR uni031F
ENCODING 799
SWIDTH 568 0
DWIDTH 8 0
BBX 8 13 0 -2
BITMAP
00
00
00
00
00
00
00
00
00
00
10
38
10
ENDCHAR

STARTCHAR uni0320
ENCODING 800
SWIDTH 568 0
DWIDTH 8 0
BBX 8 13 0 -2
BITMAP
00
00
00
00
00
00
00
00
00
00
00
7C
00
ENDCHAR

STARTCHAR uni0321
ENCODING 801
SWIDTH 568 0
DWIDTH 8 0
BBX 8 13 0 -2
BITMAP
00
00
00
00
00
00
00
00
00
00
00
02
0C
ENDCHAR

STARTCHAR uni0322
ENCODING 802
SWIDTH 568 0
DWIDTH 8 0
BBX 8 13 0 -2
BITMAP
00
00
00
00
00
00
00
00
00
00
02
02
01
ENDCHAR

STARTCHAR dotbelowcomb
ENCODING 803
SWIDTH 568 0
DWIDTH 8 0
BBX 8 13 0 -2
BITMAP
00
00
00
00
00
00
00
00
00
00
00
00
10
ENDCHAR

STARTCHAR uni0324
ENCODING 804
SWIDTH 568 0
DWIDTH 8 0
BBX 8 13 0 -2
BITMAP
00
00
00
00
00
00
00
00
00
00
00
00
28
ENDCHAR

STARTCHAR uni0325
ENCODING 805
SWIDTH 568 0
DWIDTH 8 0
BBX 8 13 0 -2
BITMAP
00
00
00
00
00
00
00
00
00
00
10
28
10
ENDCHAR

STARTCHAR uni0326
ENCODING 806
SWIDTH 568 0
DWIDTH 8 0
BBX 8 13 0 -2
BITMAP
00
00
00
00
00
00
00
00
00
00
18
08
10
ENDCHAR

STARTCHAR uni0327
ENCODING 807
SWIDTH 568 0
DWIDTH 8 0
BBX 8 13 0 -2
BITMAP
00
00
00
00
00
00
00
00
00
00
10
48
30
ENDCHAR

STARTCHAR uni0328
ENCODING 808
SWIDTH 568 0
DWIDTH 8 0
BBX 8 13 0 -2
BITMAP
00
00
00
00
00
00
00
00
00
00
20
40
30
ENDCHAR

STARTCHAR uni0329
ENCODING 809
SWIDTH 568 0
DWIDTH 8 0
BBX 8 13 0 -2
BITMAP
00
00
00
00
00
00
00
00
00
00
00
10
10
ENDCHAR

STARTCHAR uni032A
ENCODING 810
SWIDTH 568 0
DWIDTH 8 0
BBX 8 13 0 -2
BITMAP
00
00
00
00
00
00
00
00
00
00
7C
44
00
ENDCHAR

STARTCHAR uni032B
ENCODING 811
SWIDTH 568 0
DWIDTH 8 0
BBX 8 13 0 -2
BITMAP
00
00
00
00
00
00
00
00
00
00
44
54
28
ENDCHAR

STARTCHAR uni032C
ENCODING 812
SWIDTH 568 0
DWIDTH 8 0
BBX 8 13 0 -2
BITMAP
00
00
00
00
00
00
00
00
00
00
00
28
10
ENDCHAR

STARTCHAR uni032D
ENCODING 813
SWIDTH 568 0
DWIDTH 8 0
BBX 8 13 0 -2
BITMAP
00
00
00
00
00
00
00
00
00
00
00
10
28
ENDCHAR

STARTCHAR uni032E
ENCODING 814
SWIDTH 568 0
DWIDTH 8 0
BBX 8 13 0 -2
BITMAP
00
00
00
00
00
00
00
00
00
00
00
44
38
ENDCHAR

STARTCHAR uni032F
ENCODING 815
SWIDTH 568 0
DWIDTH 8 0
BBX 8 13 0 -2
BITMAP
00
00
00
00
00
00
00
00
00
00
00
38
44
ENDCHAR

STARTCHAR uni0330
ENCODING 816
SWIDTH 568 0
DWIDTH 8 0
BBX 8 13 0 -2
BITMAP
00
00
00
00
00
00
00
00
00
00
00
34
58
ENDCHAR

STARTCHAR uni0331
ENCODING 817
SWIDTH 568 0
DWIDTH 8 0
BBX 8 13 0 -2
BITMAP
00
00
00
00
00
00
00
00
00
00
00
7C
00
ENDCHAR

STARTCHAR uni0332
ENCODING 818
SWIDTH 568 0
DWIDTH 8 0
BBX 8 13 0 -2
BITMAP
00
00
00
00
00
00
00
00
00
00
00
00
7C
ENDCHAR

STARTCHAR uni0333
ENCODING 819
SWIDTH 568 0
DWIDTH 8 0
BBX 8 13 0 -2
BITMAP
00
00
00
00
00
00
00
00
00
00
7C
00
7C
ENDCHAR

STARTCHAR uni0334
ENCODING 820
SWIDTH 568 0
DWIDTH 8 0
BBX 8 13 0 -2
BITMAP
00
00
00
00
00
34
58
00
00
00
00
00
00
ENDCHAR

STARTCHAR uni0335
ENCODING 821
SWIDTH 568 0
DWIDTH 8 0
BBX 8 13 0 -2
BITMAP
00
00
00
00
00
00
38
00
00
00
00
00
00
ENDCHAR

STARTCHAR uni0336
ENCODING 822
SWIDTH 568 0
DWIDTH 8 0
BBX 8 13 0 -2
BITMAP
00
00
00
00
00
00
7C
00
00
00
00
00
00
ENDCHAR

STARTCHAR uni0337
ENCODING 823
SWIDTH 568 0
DWIDTH 8 0
BBX 8 13 0 -2
BITMAP
00
00
00
00
00
04
08
10
20
40
00
00
00
ENDCHAR

STARTCHAR uni0338
ENCODING 824
SWIDTH 568 0
DWIDTH 8 0
BBX 8 13 0 -2
BITMAP
02
02
04
08
08
10
20
20
40
80
80
00
00
ENDCHAR

STARTCHAR uni0339
ENCODING 825
SWIDTH 568 0
DWIDTH 8 0
BBX 8 13 0 -2
BITMAP
00
00
00
00
00
00
00
00
00
00
10
08
10
ENDCHAR

STARTCHAR uni033A
ENCODING 826
SWIDTH 568 0
DWIDTH 8 0
BBX 8 13 0 -2
BITMAP
00
00
00
00
00
00
00
00
00
00
44
7C
00
ENDCHAR

STARTCHAR uni033B
ENCODING 827
SWIDTH 568 0
DWIDTH 8 0
BBX 8 13 0 -2
BITMAP
00
00
00
00
00
00
00
00
00
38
28
38
00
ENDCHAR

STARTCHAR uni033C
ENCODING 828
SWIDTH 568 0
DWIDTH 8 0
BBX 8 13 0 -2
BITMAP
00
00
00
00
00
00
00
00
00
00
00
28
54
ENDCHAR

STARTCHAR uni033D
ENCODING 829
SWIDTH 568 0
DWIDTH 8 0
BBX 8 13 0 -2
BITMAP
00
6C
10
6C
00
00
00
00
00
00
00
00
00
ENDCHAR

STARTCHAR uni033E
ENCODING 830
SWIDTH 568 0
DWIDTH 8 0
BBX 8 13 0 -2
BITMAP
10
20
10
20
00
00
00
00
00
00
00
00
00
ENDCHAR

STARTCHAR uni033F
ENCODING 831
SWIDTH 568 0
DWIDTH 8 0
BBX 8 13 0 -2
BITMAP
00
7C
00
7C
00
00
00
00
00
00
00
00
00
ENDCHAR

STARTCHAR uni0340
ENCODING 832
SWIDTH 568 0
DWIDTH 8 0
BBX 8 13 0 -2
BITMAP
00
40
20
00
00
00
00
00
00
00
00
00
00
ENDCHAR

STARTCHAR uni0341
ENCODING 833
SWIDTH 568 0
DWIDTH 8 0
BBX 8 13 0 -2
BITMAP
00
02
04
00
00
00
00
00
00
00
00
00
00
ENDCHAR

STARTCHAR uni0342
ENCODING 834
SWIDTH 568 0
DWIDTH 8 0
BBX 8 13 0 -2
BITMAP
00
34
58
00
00
00
00
00
00
00
00
00
00
ENDCHAR

STARTCHAR uni0343
ENCODING 835
SWIDTH 568 0
DWIDTH 8 0
BBX 8 13 0 -2
BITMAP
00
30
10
20
00
00
00
00
00
00
00
00
00
ENDCHAR

STARTCHAR uni0344
ENCODING 836
SWIDTH 568 0
DWIDTH 8 0
BBX 8 13 0 -2
BITMAP
08
10
00
28
00
00
00
00
00
00
00
00
00
ENDCHAR

STARTCHAR uni0345
ENCODING 837
SWIDTH 568 0
DWIDTH 8 0
BBX 8 13 0 -2
BITMAP
00
00
00
00
00
00
00
00
00
00
00
10
18
ENDCHAR

STARTCHAR uni0346
ENCODING 838
SWIDTH 568 0
DWIDTH 8 0
BBX 8 13 0 -2
BITMAP
00
7C
44
00
00
00
00
00
00
00
00
00
00
ENDCHAR

STARTCHAR uni0347
ENCODING 839
SWIDTH 568 0
DWIDTH 8 0
BBX 8 13 0 -2
BITMAP
00
00
00
00
00
00
00
00
00
00
3C
00
3C
ENDCHAR

STARTCHAR uni0348
ENCODING 840
SWIDTH 568 0
DWIDTH 8 0
BBX 8 13 0 -2
BITMAP
00
00
00
00
00
00
00
00
00
00
28
28
28
ENDCHAR

STARTCHAR uni0349
ENCODING 841
SWIDTH 568 0
DWIDTH 8 0
BBX 8 13 0 -2
BITMAP
00
00
00
00
00
00
00
00
00
00
00
38
08
ENDCHAR

STARTCHAR uni034A
ENCODING 842
SWIDTH 568 0
DWIDTH 8 0
BBX 8 13 0 -2
BITMAP
08
34
58
20
00
00
00
00
00
00
00
00
00
ENDCHAR

STARTCHAR uni034B
ENCODING 843
SWIDTH 568 0
DWIDTH 8 0
BBX 8 13 0 -2
BITMAP
04
71
8E
20
00
00
00
00
00
00
00
00
00
ENDCHAR

STARTCHAR uni034C
ENCODING 844
SWIDTH 568 0
DWIDTH 8 0
BBX 8 13 0 -2
BITMAP
32
4C
32
4C
00
00
00
00
00
00
00
00
00
ENDCHAR

STARTCHAR uni034D
ENCODING 845
SWIDTH 568 0
DWIDTH 8 0
BBX 8 13 0 -2
BITMAP
00
00
00
00
00
00
00
00
00
00
24
7E
24
ENDCHAR

STARTCHAR uni034E
ENCODING 846
SWIDTH 568 0
DWIDTH 8 0
BBX 8 13 0 -2
BITMAP
00
00
00
00
00
00
00
00
00
10
38
10
10
ENDCHAR

STARTCHAR uni034F
ENCODING 847
SWIDTH 568 0
DWIDTH 8 0
BBX 8 13 0 -2
BITMAP
00
00
00
00
00
00
00
00
00
00
00
00
00
ENDCHAR

STARTCHAR uni0360
ENCODING 864
SWIDTH 568 0
DWIDTH 8 0
BBX 8 13 0 -2
BITMAP
19
26
00
00
00
00
00
00
00
00
00
00
00
ENDCHAR

STARTCHAR uni0361
ENCODING 865
SWIDTH 568 0
DWIDTH 8 0
BBX 8 13 0 -2
BITMAP
1E
21
00
00
00
00
00
00
00
00
00
00
00
ENDCHAR

STARTCHAR uni0362
ENCODING 866
SWIDTH 568 0
DWIDTH 8 0
BBX 8 13 0 -2
BITMAP
00
00
00
00
00
00
00
00
00
00
02
1F
02
ENDCHAR

STARTCHAR uni0363
ENCODING 867
SWIDTH 568 0
DWIDTH 8 0
BBX 8 13 0 -2
BITMAP
10
08
18
28
18
00
00
00
00
00
00
00
00
ENDCHAR

STARTCHAR uni0364
ENCODING 868
SWIDTH 568 0
DWIDTH 8 0
BBX 8 13 0 -2
BITMAP
10
28
38
20
18
00
00
00
00
00
00
00
00
ENDCHAR

STARTCHAR uni0365
ENCODING 869
SWIDTH 568 0
DWIDTH 8 0
BBX 8 13 0 -2
BITMAP
10
00
10
10
00
00
00
00
00
00
00
00
00
ENDCHAR

STARTCHAR uni0366
ENCODING 870
SWIDTH 568 0
DWIDTH 8 0
BBX 8 13 0 -2
BITMAP
18
24
24
18
00
00
00
00
00
00
00
00
00
ENDCHAR

STARTCHAR uni0367
ENCODING 871
SWIDTH 568 0
DWIDTH 8 0
BBX 8 13 0 -2
BITMAP
28
28
18
00
00
00
00
00
00
00
00
00
00
ENDCHAR

STARTCHAR uni0368
ENCODING 872
SWIDTH 568 0
DWIDTH 8 0
BBX 8 13 0 -2
BITMAP
18
20
18
00
00
00
00
00
00
00
00
00
00
ENDCHAR

STARTCHAR uni0369
ENCODING 873
SWIDTH 568 0
DWIDTH 8 0
BBX 8 13 0 -2
BITMAP
08
18
28
18
00
00
00
00
00
00
00
00
00
ENDCHAR

STARTCHAR uni036A
ENCODING 874
SWIDTH 568 0
DWIDTH 8 0
BBX 8 13 0 -2
BITMAP
20
30
28
00
00
00
00
00
00
00
00
00
00
ENDCHAR

STARTCHAR uni036B
ENCODING 875
SWIDTH 568 0
DWIDTH 8 0
BBX 8 13 0 -2
BITMAP
68
54
54
00
00
00
00
00
00
00
00
00
00
ENDCHAR

STARTCHAR uni036C
ENCODING 876
SWIDTH 568 0
DWIDTH 8 0
BBX 8 13 0 -2
BITMAP
28
30
20
20
00
00
00
00
00
00
00
00
00
ENDCHAR

STARTCHAR uni036D
ENCODING 877
SWIDTH 568 0
DWIDTH 8 0
BBX 8 13 0 -2
BITMAP
10
38
10
18
00
00
00
00
00
00
00
00
00
ENDCHAR

STARTCHAR uni036E
ENCODING 878
SWIDTH 568 0
DWIDTH 8 0
BBX 8 13 0 -2
BITMAP
28
28
10
10
00
00
00
00
00
00
00
00
00
ENDCHAR

STARTCHAR uni036F
ENCODING 879
SWIDTH 568 0
DWIDTH 8 0
BBX 8 13 0 -2
BITMAP
28
10
28
00
00
00
00
00
00
00
00
00
00
ENDCHAR

STARTCHAR uni0374
ENCODING 884
SWIDTH 568 0
DWIDTH 8 0
BBX 8 13 0 -2
BITMAP
00
00
08
10
00
00
00
00
00
00
00
00
00
ENDCHAR

STARTCHAR uni0375
ENCODING 885
SWIDTH 568 0
DWIDTH 8 0
BBX 8 13 0 -2
BITMAP
00
00
00
00
00
00
00
00
00
00
00
08
10
ENDCHAR

STARTCHAR uni037A
ENCODING 890
SWIDTH 568 0
DWIDTH 8 0
BBX 8 13 0 -2
BITMAP
00
00
00
00
00
00
00
00
00
00
00
10
18
ENDCHAR

STARTCHAR uni037E
ENCODING 894
SWIDTH 568 0
DWIDTH 8 0
BBX 8 13 0 -2
BITMAP
00
00
00
00
10
38
10
00
00
38
30
40
00
ENDCHAR

STARTCHAR tonos
ENCODING 900
SWIDTH 568 0
DWIDTH 8 0
BBX 8 13 0 -2
BITMAP
00
00
08
10
00
00
00
00
00
00
00
00
00
ENDCHAR

STARTCHAR dieresistonos
ENCODING 901
SWIDTH 568 0
DWIDTH 8 0
BBX 8 13 0 -2
BITMAP
00
08
52
42
00
00
00
00
00
00
00
00
00
ENDCHAR

STARTCHAR Alphatonos
ENCODING 902
SWIDTH 568 0
DWIDTH 8 0
BBX 8 13 0 -2
BITMAP
00
00
4C
92
12
12
12
1E
12
12
12
00
00
ENDCHAR

STARTCHAR anoteleia
ENCODING 903
SWIDTH 568 0
DWIDTH 8 0
BBX 8 13 0 -2
BITMAP
00
00
00
00
00
18
00
00
00
00
00
00
00
ENDCHAR

STARTCHAR Epsilontonos
ENCODING 904
SWIDTH 568 0
DWIDTH 8 0
BBX 8 13 0 -2
BITMAP
00
00
5E
90
10
10
1C
10
10
10
1E
00
00
ENDCHAR

STARTCHAR Etatonos
ENCODING 905
SWIDTH 568 0
DWIDTH 8 0
BBX 8 13 0 -2
BITMAP
00
00
52
92
12
12
1E
12
12
12
12
00
00
ENDCHAR

STARTCHAR Iotatonos
ENCODING 906
SWIDTH 568 0
DWIDTH 8 0
BBX 8 13 0 -2
BITMAP
00
00
2E
44
04
04
04
04
04
04
0E
00
00
ENDCHAR

STARTCHAR Omicrontonos
ENCODING 908
SWIDTH 568 0
DWIDTH 8 0
BBX 8 13 0 -2
BITMAP
00
00
4C
92
12
12
12
12
12
12
0C
00
00
ENDCHAR

STARTCHAR Upsilontonos
ENCODING 910
SWIDTH 568 0
DWIDTH 8 0
BBX 8 13 0 -2
BITMAP
00
00
2A
4A
0A
04
04
04
04
04
04
00
00
ENDCHAR

STARTCHAR Omegatonos
ENCODING 911
SWIDTH 568 0
DWIDTH 8 0
BBX 8 13 0 -2
BITMAP
00
00
4C
92
12
12
12
12
0C
0C
12
00
00
ENDCHAR

STARTCHAR iotadieresistonos
ENCODING 912
SWIDTH 568 0
DWIDTH 8 0
BBX 8 13 0 -2
BITMAP
00
08
52
42
00
10
10
10
10
12
0C
00
00
ENDCHAR

STARTCHAR Alpha
ENCODING 913
SWIDTH 568 0
DWIDTH 8 0
BBX 8 13 0 -2
BITMAP
00
00
18
24
42
42
42
7E
42
42
42
00
00
ENDCHAR

STARTCHAR Beta
ENCODING 914
SWIDTH 568 0
DWIDTH 8 0
BBX 8 13 0 -2
BITMAP
00
00
7C
42
42
42
7C
42
42
42
7C
00
00
ENDCHAR

STARTCHAR Gamma
ENCODING 915
SWIDTH 568 0
DWIDTH 8 0
BBX 8 13 0 -2
BITMAP
00
00
7E
40
40
40
40
40
40
40
40
00
00
ENDCHAR

STARTCHAR Delta
ENCODING 916
SWIDTH 568 0
DWIDTH 8 0
BBX 8 13 0 -2
BITMAP
00
00
10
28
28
28
44
44
44
82
FE
00
00
ENDCHAR

STARTCHAR Epsilon
ENCODING 917
SWIDTH 568 0
DWIDTH 8 0
BBX 8 13 0 -2
BITMAP
00
00
7E
40
40
40
78
40
40
40
7E
00
00
ENDCHAR

STARTCHAR Zeta
ENCODING 918
SWIDTH 568 0
DWIDTH 8 0
BBX 8 13 0 -2
BITMAP
00
00
7E
02
04
08
10
20
40
40
7E
00
00
ENDCHAR

STARTCHAR Eta
ENCODING 919
SWIDTH 568 0
DWIDTH 8 0
BBX 8 13 0 -2
BITMAP
00
00
42
42
42
42
7E
42
42
42
42
00
00
ENDCHAR

STARTCHAR Theta
ENCODING 920
SWIDTH 568 0
DWIDTH 8 0
BBX 8 13 0 -2
BITMAP
00
00
3C
42
42
42
7E
42
42
42
3C
00
00
ENDCHAR

STARTCHAR Iota
ENCODING 921
SWIDTH 568 0
DWIDTH 8 0
BBX 8 13 0 -2
BITMAP
00
00
7C
10
10
10
10
10
10
10
7C
00
00
ENDCHAR

STARTCHAR Kappa
ENCODING 922
SWIDTH 568 0
DWIDTH 8 0
BBX 8 13 0 -2
BITMAP
00
00
42
44
48
50
60
50
48
44
42
00
00
ENDCHAR

STARTCHAR Lambda
ENCODING 923
SWIDTH 568 0
DWIDTH 8 0
BBX 8 13 0 -2
BITMAP
00
00
10
28
28
28
44
44
44
82
82
00
00
ENDCHAR

STARTCHAR Mu
ENCODING 924
SWIDTH 568 0
DWIDTH 8 0
BBX 8 13 0 -2
BITMAP
00
00
82
82
C6
AA
92
92
82
82
82
00
00
ENDCHAR

STARTCHAR Nu
ENCODING 925
SWIDTH 568 0
DWIDTH 8 0
BBX 8 13 0 -2
BITMAP
00
00
42
42
62
52
4A
46
42
42
42
00
00
ENDCHAR

STARTCHAR Xi
ENCODING 926
SWIDTH 568 0
DWIDTH 8 0
BBX 8 13 0 -2
BITMAP
00
00
7E
00
00
00
3C
00
00
00
7E
00
00
ENDCHAR

STARTCHAR Omicron
ENCODING 927
SWIDTH 568 0
DWIDTH 8 0
BBX 8 13 0 -2
BITMAP
00
00
3C
42
42
42
42
42
42
42
3C
00
00
ENDCHAR

STARTCHAR Pi
ENCODING 928
SWIDTH 568 0
DWIDTH 8 0
BBX 8 13 0 -2
BITMAP
00
00
FE
44
44
44
44
44
44
44
44
00
00
ENDCHAR

STARTCHAR Rho
ENCODING 929
SWIDTH 568 0
DWIDTH 8 0
BBX 8 13 0 -2
BITMAP
00
00
7C
42
42
42
7C
40
40
40
40
00
00
ENDCHAR

STARTCHAR Sigma
ENCODING 931
SWIDTH 568 0
DWIDTH 8 0
BBX 8 13 0 -2
BITMAP
00
00
7E
40
20
10
08
10
20
40
7E
00
00
ENDCHAR

STARTCHAR Tau
ENCODING 932
SWIDTH 568 0
DWIDTH 8 0
BBX 8 13 0 -2
BITMAP
00
00
FE
10
10
10
10
10
10
10
10
00
00
ENDCHAR

STARTCHAR Upsilon
ENCODING 933
SWIDTH 568 0
DWIDTH 8 0
BBX 8 13 0 -2
BITMAP
00
00
82
82
44
28
10
10
10
10
10
00
00
ENDCHAR

STARTCHAR Phi
ENCODING 934
SWIDTH 568 0
DWIDTH 8 0
BBX 8 13 0 -2
BITMAP
00
00
10
7C
92
92
92
92
92
7C
10
00
00
ENDCHAR

STARTCHAR Chi
ENCODING 935
SWIDTH 568 0
DWIDTH 8 0
BBX 8 13 0 -2
BITMAP
00
00
82
82
44
28
10
28
44
82
82
00
00
ENDCHAR

STARTCHAR Psi
ENCODING 936
SWIDTH 568 0
DWIDTH 8 0
BBX 8 13 0 -2
BITMAP
00
00
92
92
92
92
92
7C
10
10
10
00
00
ENDCHAR

STARTCHAR Omega
ENCODING 937
SWIDTH 568 0
DWIDTH 8 0
BBX 8 13 0 -2
BITMAP
00
00
7C
82
82
82
82
82
6C
28
EE
00
00
ENDCHAR

STARTCHAR Iotadieresis
ENCODING 938
SWIDTH 568 0
DWIDTH 8 0
BBX 8 13 0 -2
BITMAP
00
44
44
00
7C
10
10
10
10
10
7C
00
00
ENDCHAR

STARTCHAR Upsilondieresis
ENCODING 939
SWIDTH 568 0
DWIDTH 8 0
BBX 8 13 0 -2
BITMAP
00
44
44
00
44
44
28
10
10
10
10
00
00
ENDCHAR

STARTCHAR alphatonos
ENCODING 940
SWIDTH 568 0
DWIDTH 8 0
BBX 8 13 0 -2
BITMAP
00
04
08
00
00
3A
46
42
46
4A
32
00
00
ENDCHAR

STARTCHAR epsilontonos
ENCODING 941
SWIDTH 568 0
DWIDTH 8 0
BBX 8 13 0 -2
BITMAP
00
04
08
00
00
3C
42
38
40
42
3C
00
00
ENDCHAR

STARTCHAR etatonos
ENCODING 942
SWIDTH 568 0
DWIDTH 8 0
BBX 8 13 0 -2
BITMAP
00
04
08
00
00
5C
62
42
42
42
42
02
02
ENDCHAR

STARTCHAR iotatonos
ENCODING 943
SWIDTH 568 0
DWIDTH 8 0
BBX 8 13 0 -2
BITMAP
00
10
20
00
00
20
20
20
20
24
18
00
00
ENDCHAR

STARTCHAR upsilondieresistonos
ENCODING 944
SWIDTH 568 0
DWIDTH 8 0
BBX 8 13 0 -2
BITMAP
00
08
52
42
00
42
42
42
42
42
3C
00
00
ENDCHAR

STARTCHAR alpha
ENCODING 945
SWIDTH 568 0
DWIDTH 8 0
BBX 8 13 0 -2
BITMAP
00
00
00
00
00
3A
46
42
46
4A
32
00
00
ENDCHAR

STARTCHAR beta
ENCODING 946
SWIDTH 568 0
DWIDTH 8 0
BBX 8 13 0 -2
BITMAP
00
00
38
44
44
7C
42
42
42
62
5C
40
40
ENDCHAR

STARTCHAR gamma
ENCODING 947
SWIDTH 568 0
DWIDTH 8 0
BBX 8 13 0 -2
BITMAP
00
00
00
00
00
44
44
44
28
28
10
10
10
ENDCHAR

STARTCHAR delta
ENCODING 948
SWIDTH 568 0
DWIDTH 8 0
BBX 8 13 0 -2
BITMAP
00
00
3C
42
20
3C
42
42
42
42
3C
00
00
ENDCHAR

STARTCHAR epsilon
ENCODING 949
SWIDTH 568 0
DWIDTH 8 0
BBX 8 13 0 -2
BITMAP
00
00
00
00
00
3C
42
38
40
42
3C
00
00
ENDCHAR

STARTCHAR zeta
ENCODING 950
SWIDTH 568 0
DWIDTH 8 0
BBX 8 13 0 -2
BITMAP
00
00
7E
10
20
20
40
40
40
40
3C
02
0C
ENDCHAR

STARTCHAR eta
ENCODING 951
SWIDTH 568 0
DWIDTH 8 0
BBX 8 13 0 -2
BITMAP
00
00
00
00
00
5C
62
42
42
42
42
02
02
ENDCHAR

STARTCHAR theta
ENCODING 952
SWIDTH 568 0
DWIDTH 8 0
BBX 8 13 0 -2
BITMAP
00
00
38
44
44
44
7C
44
44
44
38
00
00
ENDCHAR

STARTCHAR iota
ENCODING 953
SWIDTH 568 0
DWIDTH 8 0
BBX 8 13 0 -2
BITMAP
00
00
00
00
00
20
20
20
20
24
18
00
00
ENDCHAR

STARTCHAR kappa
ENCODING 954
SWIDTH 568 0
DWIDTH 8 0
BBX 8 13 0 -2
BITMAP
00
00
00
00
00
44
48
50
70
48
44
00
00
ENDCHAR

STARTCHAR lambda
ENCODING 955
SWIDTH 568 0
DWIDTH 8 0
BBX 8 13 0 -2
BITMAP
00
00
3C
42
02
3A
46
42
42
42
42
00
00
ENDCHAR

STARTCHAR mu
ENCODING 956
SWIDTH 568 0
DWIDTH 8 0
BBX 8 13 0 -2
BITMAP
00
00
00
00
00
42
42
42
42
66
5A
40
40
ENDCHAR

STARTCHAR nu
ENCODING 957
SWIDTH 568 0
DWIDTH 8 0
BBX 8 13 0 -2
BITMAP
00
00
00
00
00
44
44
44
28
28
10
00
00
ENDCHAR

STARTCHAR xi
ENCODING 958
SWIDTH 568 0
DWIDTH 8 0
BBX 8 13 0 -2
BITMAP
00
00
7E
10
20
20
1C
20
40
40
3C
02
0C
ENDCHAR

STARTCHAR omicron
ENCODING 959
SWIDTH 568 0
DWIDTH 8 0
BBX 8 13 0 -2
BITMAP
00
00
00
00
00
3C
42
42
42
42
3C
00
00
ENDCHAR

STARTCHAR pi
ENCODING 960
SWIDTH 568 0
DWIDTH 8 0
BBX 8 13 0 -2
BITMAP
00
00
00
00
00
FE
44
44
44
44
44
00
00
ENDCHAR

STARTCHAR rho
ENCODING 961
SWIDTH 568 0
DWIDTH 8 0
BBX 8 13 0 -2
BITMAP
00
00
00
00
00
3C
42
42
42
62
5C
40
40
ENDCHAR

STARTCHAR sigma1
ENCODING 962
SWIDTH 568 0
DWIDTH 8 0
BBX 8 13 0 -2
BITMAP
00
00
00
00
00
3C
42
40
40
40
3C
02
0C
ENDCHAR

STARTCHAR sigma
ENCODING 963
SWIDTH 568 0
DWIDTH 8 0
BBX 8 13 0 -2
BITMAP
00
00
00
00
00
3E
48
44
42
42
3C
00
00
ENDCHAR

STARTCHAR tau
ENCODING 964
SWIDTH 568 0
DWIDTH 8 0
BBX 8 13 0 -2
BITMAP
00
00
00
00
00
7E
10
10
10
12
0C
00
00
ENDCHAR

STARTCHAR upsilon
ENCODING 965
SWIDTH 568 0
DWIDTH 8 0
BBX 8 13 0 -2
BITMAP
00
00
00
00
00
42
42
42
42
42
3C
00
00
ENDCHAR

STARTCHAR phi
ENCODING 966
SWIDTH 568 0
DWIDTH 8 0
BBX 8 13 0 -2
BITMAP
00
00
00
00
00
4C
92
92
92
92
7C
10
10
ENDCHAR

STARTCHAR chi
ENCODING 967
SWIDTH 568 0
DWIDTH 8 0
BBX 8 13 0 -2
BITMAP
00
00
00
00
00
42
42
24
18
18
24
42
42
ENDCHAR

STARTCHAR psi
ENCODING 968
SWIDTH 568 0
DWIDTH 8 0
BBX 8 13 0 -2
BITMAP
00
00
00
00
00
92
92
92
92
92
7C
10
10
ENDCHAR

STARTCHAR omega
ENCODING 969
SWIDTH 568 0
DWIDTH 8 0
BBX 8 13 0 -2
BITMAP
00
00
00
00
00
82
92
92
92
92
6C
00
00
ENDCHAR

STARTCHAR iotadieresis
ENCODING 970
SWIDTH 568 0
DWIDTH 8 0
BBX 8 13 0 -2
BITMAP
00
00
42
42
00
10
10
10
10
12
0C
00
00
ENDCHAR

STARTCHAR upsilondieresis
ENCODING 971
SWIDTH 568 0
DWIDTH 8 0
BBX 8 13 0 -2
BITMAP
00
00
42
42
00
42
42
42
42
42
3C
00
00
ENDCHAR

STARTCHAR omicrontonos
ENCODING 972
SWIDTH 568 0
DWIDTH 8 0
BBX 8 13 0 -2
BITMAP
00
04
08
00
00
3C
42
42
42
42
3C
00
00
ENDCHAR

STARTCHAR upsilontonos
ENCODING 973
SWIDTH 568 0
DWIDTH 8 0
BBX 8 13 0 -2
BITMAP
00
04
08
00
00
42
42
42
42
42
3C
00
00
ENDCHAR

STARTCHAR omegatonos
ENCODING 974
SWIDTH 568 0
DWIDTH 8 0
BBX 8 13 0 -2
BITMAP
00
08
10
00
00
82
92
92
92
92
6C
00
00
ENDCHAR

STARTCHAR uni03D0
ENCODING 976
SWIDTH 568 0
DWIDTH 8 0
BBX 8 13 0 -2
BITMAP
00
00
18
24
44
48
5C
62
42
42
3C
00
00
ENDCHAR

STARTCHAR theta1
ENCODING 977
SWIDTH 568 0
DWIDTH 8 0
BBX 8 13 0 -2
BITMAP
00
00
38
44
44
3E
04
44
44
44
38
00
00
ENDCHAR

STARTCHAR Upsilon1
ENCODING 978
SWIDTH 568 0
DWIDTH 8 0
BBX 8 13 0 -2
BITMAP
00
00
44
AA
28
28
10
10
10
10
10
00
00
ENDCHAR

STARTCHAR uni03D3
ENCODING 979
SWIDTH 568 0
DWIDTH 8 0
BBX 8 13 0 -2
BITMAP
00
00
A4
AA
28
28
10
10
10
10
10
00
00
ENDCHAR

STARTCHAR uni03D4
ENCODING 980
SWIDTH 568 0
DWIDTH 8 0
BBX 8 13 0 -2
BITMAP
00
44
44
00
44
AA
28
10
10
10
10
00
00
ENDCHAR

STARTCHAR phi1
ENCODING 981
SWIDTH 568 0
DWIDTH 8 0
BBX 8 13 0 -2
BITMAP
00
00
00
10
10
7C
92
92
92
92
7C
10
10
ENDCHAR

STARTCHAR omega1
ENCODING 982
SWIDTH 568 0
DWIDTH 8 0
BBX 8 13 0 -2
BITMAP
00
00
00
00
00
FE
82
92
92
92
6C
00
00
ENDCHAR

STARTCHAR uni03D7
ENCODING 983
SWIDTH 568 0
DWIDTH 8 0
BBX 8 13 0 -2
BITMAP
00
10
08
00
00
42
24
28
38
24
42
02
1C
ENDCHAR

STARTCHAR uni03D8
ENCODING 984
SWIDTH 568 0
DWIDTH 8 0
BBX 8 13 0 -2
BITMAP
00
00
3C
42
42
42
42
42
42
42
3C
18
18
ENDCHAR

STARTCHAR uni03D9
ENCODING 985
SWIDTH 568 0
DWIDTH 8 0
BBX 8 13 0 -2
BITMAP
00
00
00
00
00
3C
42
42
42
42
3C
18
18
ENDCHAR

STARTCHAR uni03DA
ENCODING 986
SWIDTH 568 0
DWIDTH 8 0
BBX 8 13 0 -2
BITMAP
00
00
1C
22
40
40
40
40
40
3C
02
04
00
ENDCHAR

STARTCHAR uni03DB
ENCODING 987
SWIDTH 568 0
DWIDTH 8 0
BBX 8 13 0 -2
BITMAP
00
00
00
00
02
3C
40
40
40
40
3C
02
0C
ENDCHAR

STARTCHAR uni03DC
ENCODING 988
SWIDTH 568 0
DWIDTH 8 0
BBX 8 13 0 -2
BITMAP
00
00
7E
40
40
40
78
40
40
40
40
00
00
ENDCHAR

STARTCHAR uni03DD
ENCODING 989
SWIDTH 568 0
DWIDTH 8 0
BBX 8 13 0 -2
BITMAP
00
00
00
00
00
7C
40
40
78
40
40
40
40
ENDCHAR

STARTCHAR uni03DE
ENCODING 990
SWIDTH 568 0
DWIDTH 8 0
BBX 8 13 0 -2
BITMAP
00
00
80
40
44
4C
54
64
44
04
02
00
00
ENDCHAR

STARTCHAR uni03DF
ENCODING 991
SWIDTH 568 0
DWIDTH 8 0
BBX 8 13 0 -2
BITMAP
00
00
10
10
20
20
40
7E
02
04
04
08
08
ENDCHAR

STARTCHAR uni03E0
ENCODING 992
SWIDTH 568 0
DWIDTH 8 0
BBX 8 13 0 -2
BITMAP
00
00
10
28
28
28
44
4C
4C
92
92
00
00
ENDCHAR

STARTCHAR uni03E1
ENCODING 993
SWIDTH 568 0
DWIDTH 8 0
BBX 8 13 0 -2
BITMAP
00
00
60
10
08
0C
14
26
0A
12
02
02
02
ENDCHAR

STARTCHAR uni03E2
ENCODING 994
SWIDTH 568 0
DWIDTH 8 0
BBX 8 13 0 -2
BITMAP
00
00
00
92
92
92
92
92
6E
02
7C
00
00
ENDCHAR

STARTCHAR uni03E3
ENCODING 995
SWIDTH 568 0
DWIDTH 8 0
BBX 8 13 0 -2
BITMAP
00
00
00
00
00
92
92
92
92
92
6E
02
7C
ENDCHAR

STARTCHAR uni03E4
ENCODING 996
SWIDTH 568 0
DWIDTH 8 0
BBX 8 13 0 -2
BITMAP
00
00
32
42
42
42
3E
02
02
02
02
00
00
ENDCHAR

STARTCHAR uni03E5
ENCODING 997
SWIDTH 568 0
DWIDTH 8 0
BBX 8 13 0 -2
BITMAP
00
00
28
48
48
48
38
08
08
08
08
00
00
ENDCHAR

STARTCHAR uni03E6
ENCODING 998
SWIDTH 568 0
DWIDTH 8 0
BBX 8 13 0 -2
BITMAP
00
00
70
20
20
3C
22
22
22
22
72
02
0C
ENDCHAR

STARTCHAR uni03E7
ENCODING 999
SWIDTH 568 0
DWIDTH 8 0
BBX 8 13 0 -2
BITMAP
00
00
00
20
10
3C
52
22
02
42
3C
00
00
ENDCHAR

STARTCHAR uni03E8
ENCODING 1000
SWIDTH 568 0
DWIDTH 8 0
BBX 8 13 0 -2
BITMAP
00
00
3C
42
42
04
18
20
42
42
3C
00
00
ENDCHAR

STARTCHAR uni03E9
ENCODING 1001
SWIDTH 568 0
DWIDTH 8 0
BBX 8 13 0 -2
BITMAP
00
00
00
3C
42
42
24
18
20
40
3E
00
00
ENDCHAR

STARTCHAR uni03EA
ENCODING 1002
SWIDTH 568 0
DWIDTH 8 0
BBX 8 13 0 -2
BITMAP
00
00
6C
10
10
28
28
44
44
82
FE
00
00
ENDCHAR

STARTCHAR uni03EB
ENCODING 1003
SWIDTH 568 0
DWIDTH 8 0
BBX 8 13 0 -2
BITMAP
00
00
00
00
00
6C
10
28
28
44
7C
00
00
ENDCHAR

STARTCHAR uni03EC
ENCODING 1004
SWIDTH 568 0
DWIDTH 8 0
BBX 8 13 0 -2
BITMAP
00
00
3C
40
7C
42
42
42
42
42
3C
00
00
ENDCHAR

STARTCHAR uni03ED
ENCODING 1005
SWIDTH 568 0
DWIDTH 8 0
BBX 8 13 0 -2
BITMAP
00
00
00
00
3C
40
5C
42
42
42
3C
00
00
ENDCHAR

STARTCHAR uni03EE
ENCODING 1006
SWIDTH 568 0
DWIDTH 8 0
BBX 8 13 0 -2
BITMAP
00
00
38
10
7C
54
10
10
10
10
10
00
00
ENDCHAR

STARTCHAR uni03EF
ENCODING 1007
SWIDTH 568 0
DWIDTH 8 0
BBX 8 13 0 -2
BITMAP
00
00
00
00
10
14
7C
50
10
10
10
00
00
ENDCHAR

STARTCHAR uni03F0
ENCODING 1008
SWIDTH 568 0
DWIDTH 8 0
BBX 8 13 0 -2
BITMAP
00
00
00
00
00
42
24
28
38
24
42
00
00
ENDCHAR

STARTCHAR uni03F1
ENCODING 1009
SWIDTH 568 0
DWIDTH 8 0
BBX 8 13 0 -2
BITMAP
00
00
00
00
00
3C
42
42
42
62
5C
40
3C
ENDCHAR

STARTCHAR uni03F2
ENCODING 1010
SWIDTH 568 0
DWIDTH 8 0
BBX 8 13 0 -2
BITMAP
00
00
00
00
00
3C
42
40
40
42
3C
00
00
ENDCHAR

STARTCHAR uni03F3
ENCODING 1011
SWIDTH 568 0
DWIDTH 8 0
BBX 8 13 0 -2
BITMAP
00
00
00
04
00
0C
04
04
04
04
44
44
38
ENDCHAR

STARTCHAR uni03F4
ENCODING 1012
SWIDTH 568 0
DWIDTH 8 0
BBX 8 13 0 -2
BITMAP
00
00
3C
42
42
42
7E
42
42
42
3C
00
00
ENDCHAR

STARTCHAR uni03F5
ENCODING 1013
SWIDTH 568 0
DWIDTH 8 0
BBX 8 13 0 -2
BITMAP
00
00
00
00
00
3C
40
78
40
40
3C
00
00
ENDCHAR

STARTCHAR uni03F6
ENCODING 1014
SWIDTH 568 0
DWIDTH 8 0
BBX 8 13 0 -2
BITMAP
00
00
00
00
00
78
04
3C
04
04
78
00
00
ENDCHAR

STARTCHAR uni0400
ENCODING 1024
SWIDTH 568 0
DWIDTH 8 0
BBX 8 13 0 -2
BITMAP
00
10
08
00
7E
40
40
7C
40
40
7E
00
00
ENDCHAR

STARTCHAR afii10023
ENCODING 1025
SWIDTH 568 0
DWIDTH 8 0
BBX 8 13 0 -2
BITMAP
00
24
24
00
7E
40
40
7C
40
40
7E
00
00
ENDCHAR

STARTCHAR afii10051
ENCODING 1026
SWIDTH 568 0
DWIDTH 8 0
BBX 8 13 0 -2
BITMAP
00
00
FC
20
20
3C
22
22
22
22
22
02
0C
ENDCHAR

STARTCHAR afii10052
ENCODING 1027
SWIDTH 568 0
DWIDTH 8 0
BBX 8 13 0 -2
BITMAP
00
08
10
00
7E
42
40
40
40
40
40
00
00
ENDCHAR

STARTCHAR afii10053
ENCODING 1028
SWIDTH 568 0
DWIDTH 8 0
BBX 8 13 0 -2
BITMAP
00
00
1E
22
40
40
7C
40
40
22
1C
00
00
ENDCHAR

STARTCHAR afii10054
ENCODING 1029
SWIDTH 568 0
DWIDTH 8 0
BBX 8 13 0 -2
BITMAP
00
00
3C
42
40
40
3C
02
02
42
3C
00
00
ENDCHAR

STARTCHAR afii10055
ENCODING 1030
SWIDTH 568 0
DWIDTH 8 0
BBX 8 13 0 -2
BITMAP
00
00
38
10
10
10
10
10
10
10
38
00
00
ENDCHAR

STARTCHAR afii10056
ENCODING 1031
SWIDTH 568 0
DWIDTH 8 0
BBX 8 13 0 -2
BITMAP
00
44
44
00
7C
10
10
10
10
10
7C
00
00
ENDCHAR

STARTCHAR afii10057
ENCODING 1032
SWIDTH 568 0
DWIDTH 8 0
BBX 8 13 0 -2
BITMAP
00
00
0E
04
04
04
04
04
04
44
38
00
00
ENDCHAR

STARTCHAR afii10058
ENCODING 1033
SWIDTH 568 0
DWIDTH 8 0
BBX 8 13 0 -2
BITMAP
00
00
70
90
90
90
9C
92
92
92
9C
00
00
ENDCHAR

STARTCHAR afii10059
ENCODING 1034
SWIDTH 568 0
DWIDTH 8 0
BBX 8 13 0 -2
BITMAP
00
00
90
90
90
90
FC
92
92
92
9C
00
00
ENDCHAR

STARTCHAR afii10060
ENCODING 1035
SWIDTH 568 0
DWIDTH 8 0
BBX 8 13 0 -2
BITMAP
00
00
FC
20
20
2C
32
22
22
22
22
00
00
ENDCHAR

STARTCHAR afii10061
ENCODING 1036
SWIDTH 568 0
DWIDTH 8 0
BBX 8 13 0 -2
BITMAP
08
10
00
44
48
50
60
50
48
44
44
00
00
ENDCHAR

STARTCHAR uni040D
ENCODING 1037
SWIDTH 568 0
DWIDTH 8 0
BBX 8 13 0 -2
BITMAP
00
10
08
42
46
46
4A
52
62
62
42
00
00
ENDCHAR

STARTCHAR afii10062
ENCODING 1038
SWIDTH 568 0
DWIDTH 8 0
BBX 8 13 0 -2
BITMAP
00
42
3C
00
42
42
42
3E
02
02
3C
00
00
ENDCHAR

STARTCHAR afii10145
ENCODING 1039
SWIDTH 568 0
DWIDTH 8 0
BBX 8 13 0 -2
BITMAP
00
00
44
44
44
44
44
44
44
44
7C
10
10
ENDCHAR

STARTCHAR afii10017
ENCODING 1040
SWIDTH 568 0
DWIDTH 8 0
BBX 8 13 0 -2
BITMAP
00
00
18
24
42
42
42
7E
42
42
42
00
00
ENDCHAR

STARTCHAR afii10018
ENCODING 1041
SWIDTH 568 0
DWIDTH 8 0
BBX 8 13 0 -2
BITMAP
00
00
7C
40
40
40
7C
42
42
42
7C
00
00
ENDCHAR

STARTCHAR afii10019
ENCODING 1042
SWIDTH 568 0
DWIDTH 8 0
BBX 8 13 0 -2
BITMAP
00
00
7C
42
42
42
7C
42
42
42
7C
00
00
ENDCHAR

STARTCHAR afii10020
ENCODING 1043
SWIDTH 568 0
DWIDTH 8 0
BBX 8 13 0 -2
BITMAP
00
00
7E
42
40
40
40
40
40
40
40
00
00
ENDCHAR

STARTCHAR afii10021
ENCODING 1044
SWIDTH 568 0
DWIDTH 8 0
BBX 8 13 0 -2
BITMAP
00
00
3C
24
24
24
44
44
44
44
FE
82
00
ENDCHAR

STARTCHAR afii10022
ENCODING 1045
SWIDTH 568 0
DWIDTH 8 0
BBX 8 13 0 -2
BITMAP
00
00
7E
40
40
40
7C
40
40
40
7E
00
00
ENDCHAR

STARTCHAR afii10024
ENCODING 1046
SWIDTH 568 0
DWIDTH 8 0
BBX 8 13 0 -2
BITMAP
00
00
92
92
54
38
54
92
92
92
92
00
00
ENDCHAR

STARTCHAR afii10025
ENCODING 1047
SWIDTH 568 0
DWIDTH 8 0
BBX 8 13 0 -2
BITMAP
00
00
3C
42
02
02
0C
02
02
42
3C
00
00
ENDCHAR

STARTCHAR afii10026
ENCODING 1048
SWIDTH 568 0
DWIDTH 8 0
BBX 8 13 0 -2
BITMAP
00
00
42
46
46
4A
4A
52
52
62
42
00
00
ENDCHAR

STARTCHAR afii10027
ENCODING 1049
SWIDTH 568 0
DWIDTH 8 0
BBX 8 13 0 -2
BITMAP
00
42
3C
42
46
46
4A
52
62
62
42
00
00
ENDCHAR

STARTCHAR afii10028
ENCODING 1050
SWIDTH 568 0
DWIDTH 8 0
BBX 8 13 0 -2
BITMAP
00
00
42
44
48
50
60
50
48
44
42
00
00
ENDCHAR

STARTCHAR afii10029
ENCODING 1051
SWIDTH 568 0
DWIDTH 8 0
BBX 8 13 0 -2
BITMAP
00
00
1E
22
22
22
22
22
22
42
42
00
00
ENDCHAR

STARTCHAR afii10030
ENCODING 1052
SWIDTH 568 0
DWIDTH 8 0
BBX 8 13 0 -2
BITMAP
00
00
82
82
C6
AA
92
92
82
82
82
00
00
ENDCHAR

STARTCHAR afii10031
ENCODING 1053
SWIDTH 568 0
DWIDTH 8 0
BBX 8 13 0 -2
BITMAP
00
00
42
42
42
42
7E
42
42
42
42
00
00
ENDCHAR

STARTCHAR afii10032
ENCODING 1054
SWIDTH 568 0
DWIDTH 8 0
BBX 8 13 0 -2
BITMAP
00
00
3C
42
42
42
42
42
42
42
3C
00
00
ENDCHAR

STARTCHAR afii10033
ENCODING 1055
SWIDTH 568 0
DWIDTH 8 0
BBX 8 13 0 -2
BITMAP
00
00
7E
42
42
42
42
42
42
42
42
00
00
ENDCHAR

STARTCHAR afii10034
ENCODING 1056
SWIDTH 568 0
DWIDTH 8 0
BBX 8 13 0 -2
BITMAP
00
00
7C
42
42
42
42
7C
40
40
40
00
00
ENDCHAR

STARTCHAR afii10035
ENCODING 1057
SWIDTH 568 0
DWIDTH 8 0
BBX 8 13 0 -2
BITMAP
00
00
3C
42
40
40
40
40
40
42
3C
00
00
ENDCHAR

STARTCHAR afii10036
ENCODING 1058
SWIDTH 568 0
DWIDTH 8 0
BBX 8 13 0 -2
BITMAP
00
00
FE
10
10
10
10
10
10
10
10
00
00
ENDCHAR

STARTCHAR afii10037
ENCODING 1059
SWIDTH 568 0
DWIDTH 8 0
BBX 8 13 0 -2
BITMAP
00
00
42
42
42
42
24
18
10
20
40
00
00
ENDCHAR

STARTCHAR afii10038
ENCODING 1060
SWIDTH 568 0
DWIDTH 8 0
BBX 8 13 0 -2
BITMAP
00
00
10
7C
92
92
92
92
7C
10
10
00
00
ENDCHAR

STARTCHAR afii10039
ENCODING 1061
SWIDTH 568 0
DWIDTH 8 0
BBX 8 13 0 -2
BITMAP
00
00
44
44
28
28
10
28
28
44
44
00
00
ENDCHAR

STARTCHAR afii10040
ENCODING 1062
SWIDTH 568 0
DWIDTH 8 0
BBX 8 13 0 -2
BITMAP
00
00
84
84
84
84
84
84
84
84
FE
02
02
ENDCHAR

STARTCHAR afii10041
ENCODING 1063
SWIDTH 568 0
DWIDTH 8 0
BBX 8 13 0 -2
BITMAP
00
00
42
42
42
42
3E
02
02
02
02
00
00
ENDCHAR

STARTCHAR afii10042
ENCODING 1064
SWIDTH 568 0
DWIDTH 8 0
BBX 8 13 0 -2
BITMAP
00
00
92
92
92
92
92
92
92
92
FE
00
00
ENDCHAR

STARTCHAR afii10043
ENCODING 1065
SWIDTH 568 0
DWIDTH 8 0
BBX 8 13 0 -2
BITMAP
00
00
92
92
92
92
92
92
92
92
FE
02
02
ENDCHAR

STARTCHAR afii10044
ENCODING 1066
SWIDTH 568 0
DWIDTH 8 0
BBX 8 13 0 -2
BITMAP
00
00
E0
20
20
20
3C
22
22
22
3C
00
00
ENDCHAR

STARTCHAR afii10045
ENCODING 1067
SWIDTH 568 0
DWIDTH 8 0
BBX 8 13 0 -2
BITMAP
00
00
42
42
42
72
4A
4A
4A
4A
72
00
00
ENDCHAR

STARTCHAR afii10046
ENCODING 1068
SWIDTH 568 0
DWIDTH 8 0
BBX 8 13 0 -2
BITMAP
00
00
40
40
40
40
7C
42
42
42
7C
00
00
ENDCHAR

STARTCHAR afii10047
ENCODING 1069
SWIDTH 568 0
DWIDTH 8 0
BBX 8 13 0 -2
BITMAP
00
00
78
04
02
02
3E
02
02
04
78
00
00
ENDCHAR

STARTCHAR afii10048
ENCODING 1070
SWIDTH 568 0
DWIDTH 8 0
BBX 8 13 0 -2
BITMAP
00
00
8C
92
92
92
F2
92
92
92
8C
00
00
ENDCHAR

STARTCHAR afii10049
ENCODING 1071
SWIDTH 568 0
DWIDTH 8 0
BBX 8 13 0 -2
BITMAP
00
00
3C
44
44
44
3C
14
24
44
44
00
00
ENDCHAR

STARTCHAR afii10065
ENCODING 1072
SWIDTH 568 0
DWIDTH 8 0
BBX 8 13 0 -2
BITMAP
00
00
00
00
00
3C
02
3E
42
42
3E
00
00
ENDCHAR

STARTCHAR afii10066
ENCODING 1073
SWIDTH 568 0
DWIDTH 8 0
BBX 8 13 0 -2
BITMAP
00
00
02
3C
40
7C
42
42
42
42
3C
00
00
ENDCHAR

STARTCHAR afii10067
ENCODING 1074
SWIDTH 568 0
DWIDTH 8 0
BBX 8 13 0 -2
BITMAP
00
00
00
00
00
7C
42
7C
42
42
7C
00
00
ENDCHAR

STARTCHAR afii10068
ENCODING 1075
SWIDTH 568 0
DWIDTH 8 0
BBX 8 13 0 -2
BITMAP
00
00
00
00
00
7E
42
40
40
40
40
00
00
ENDCHAR

STARTCHAR afii10069
ENCODING 1076
SWIDTH 568 0
DWIDTH 8 0
BBX 8 13 0 -2
BITMAP
00
00
00
00
00
1C
24
24
24
24
7E
42
00
ENDCHAR

STARTCHAR afii10070
ENCODING 1077
SWIDTH 568 0
DWIDTH 8 0
BBX 8 13 0 -2
BITMAP
00
00
00
00
00
3C
42
7E
40
42
3C
00
00
ENDCHAR

STARTCHAR afii10072
ENCODING 1078
SWIDTH 568 0
DWIDTH 8 0
BBX 8 13 0 -2
BITMAP
00
00
00
00
00
92
92
7C
54
92
92
00
00
ENDCHAR

STARTCHAR afii10073
ENCODING 1079
SWIDTH 568 0
DWIDTH 8 0
BBX 8 13 0 -2
BITMAP
00
00
00
00
00
3C
42
1C
02
42
3C
00
00
ENDCHAR

STARTCHAR afii10074
ENCODING 1080
SWIDTH 568 0
DWIDTH 8 0
BBX 8 13 0 -2
BITMAP
00
00
00
00
00
42
46
4A
52
62
42
00
00
ENDCHAR

STARTCHAR afii10075
ENCODING 1081
SWIDTH 568 0
DWIDTH 8 0
BBX 8 13 0 -2
BITMAP
00
00
42
3C
00
42
46
4A
52
62
42
00
00
ENDCHAR

STARTCHAR afii10076
ENCODING 1082
SWIDTH 568 0
DWIDTH 8 0
BBX 8 13 0 -2
BITMAP
00
00
00
00
00
44
48
70
48
44
44
00
00
ENDCHAR

STARTCHAR afii10077
ENCODING 1083
SWIDTH 568 0
DWIDTH 8 0
BBX 8 13 0 -2
BITMAP
00
00
00
00
00
1E
22
22
22
22
42
00
00
ENDCHAR

STARTCHAR afii10078
ENCODING 1084
SWIDTH 568 0
DWIDTH 8 0
BBX 8 13 0 -2
BITMAP
00
00
00
00
00
44
6C
54
54
44
44
00
00
ENDCHAR

STARTCHAR afii10079
ENCODING 1085
SWIDTH 568 0
DWIDTH 8 0
BBX 8 13 0 -2
BITMAP
00
00
00
00
00
42
42
7E
42
42
42
00
00
ENDCHAR

STARTCHAR afii10080
ENCODING 1086
SWIDTH 568 0
DWIDTH 8 0
BBX 8 13 0 -2
BITMAP
00
00
00
00
00
3C
42
42
42
42
3C
00
00
ENDCHAR

STARTCHAR afii10081
ENCODING 1087
SWIDTH 568 0
DWIDTH 8 0
BBX 8 13 0 -2
BITMAP
00
00
00
00
00
7E
42
42
42
42
42
00
00
ENDCHAR

STARTCHAR afii10082
ENCODING 1088
SWIDTH 568 0
DWIDTH 8 0
BBX 8 13 0 -2
BITMAP
00
00
00
00
00
5C
62
42
42
62
5C
40
40
ENDCHAR

STARTCHAR afii10083
ENCODING 1089
SWIDTH 568 0
DWIDTH 8 0
BBX 8 13 0 -2
BITMAP
00
00
00
00
00
3C
42
40
40
42
3C
00
00
ENDCHAR

STARTCHAR afii10084
ENCODING 1090
SWIDTH 568 0
DWIDTH 8 0
BBX 8 13 0 -2
BITMAP
00
00
00
00
00
7C
10
10
10
10
10
00
00
ENDCHAR

STARTCHAR afii10085
ENCODING 1091
SWIDTH 568 0
DWIDTH 8 0
BBX 8 13 0 -2
BITMAP
00
00
00
00
00
42
42
42
46
3A
02
42
3C
ENDCHAR

STARTCHAR afii10086
ENCODING 1092
SWIDTH 568 0
DWIDTH 8 0
BBX 8 13 0 -2
BITMAP
00
00
10
10
10
7C
92
92
92
92
7C
10
10
ENDCHAR

STARTCHAR afii10087
ENCODING 1093
SWIDTH 568 0
DWIDTH 8 0
BBX 8 13 0 -2
BITMAP
00
00
00
00
00
42
24
18
18
24
42
00
00
ENDCHAR

STARTCHAR afii10088
ENCODING 1094
SWIDTH 568 0
DWIDTH 8 0
BBX 8 13 0 -2
BITMAP
00
00
00
00
00
44
44
44
44
44
7E
02
02
ENDCHAR

STARTCHAR afii10089
ENCODING 1095
SWIDTH 568 0
DWIDTH 8 0
BBX 8 13 0 -2
BITMAP
00
00
00
00
00
42
42
46
3A
02
02
00
00
ENDCHAR

STARTCHAR afii10090
ENCODING 1096
SWIDTH 568 0
DWIDTH 8 0
BBX 8 13 0 -2
BITMAP
00
00
00
00
00
92
92
92
92
92
FE
00
00
ENDCHAR

STARTCHAR afii10091
ENCODING 1097
SWIDTH 568 0
DWIDTH 8 0
BBX 8 13 0 -2
BITMAP
00
00
00
00
00
92
92
92
92
92
FE
02
02
ENDCHAR

STARTCHAR afii10092
ENCODING 1098
SWIDTH 568 0
DWIDTH 8 0
BBX 8 13 0 -2
BITMAP
00
00
00
00
00
E0
20
3C
22
22
3C
00
00
ENDCHAR

STARTCHAR afii10093
ENCODING 1099
SWIDTH 568 0
DWIDTH 8 0
BBX 8 13 0 -2
BITMAP
00
00
00
00
00
42
42
72
4A
4A
72
00
00
ENDCHAR

STARTCHAR afii10094
ENCODING 1100
SWIDTH 568 0
DWIDTH 8 0
BBX 8 13 0 -2
BITMAP
00
00
00
00
00
20
20
3C
22
22
3C
00
00
ENDCHAR

STARTCHAR afii10095
ENCODING 1101
SWIDTH 568 0
DWIDTH 8 0
BBX 8 13 0 -2
BITMAP
00
00
00
00
00
3C
02
0E
02
02
3C
00
00
ENDCHAR

STARTCHAR afii10096
ENCODING 1102
SWIDTH 568 0
DWIDTH 8 0
BBX 8 13 0 -2
BITMAP
00
00
00
00
00
8C
92
92
F2
92
8C
00
00
ENDCHAR

STARTCHAR afii10097
ENCODING 1103
SWIDTH 568 0
DWIDTH 8 0
BBX 8 13 0 -2
BITMAP
00
00
00
00
00
3E
42
42
3E
22
42
00
00
ENDCHAR

STARTCHAR uni0450
ENCODING 1104
SWIDTH 568 0
DWIDTH 8 0
BBX 8 13 0 -2
BITMAP
00
00
10
08
00
3C
42
7E
40
42
3C
00
00
ENDCHAR

STARTCHAR afii10071
ENCODING 1105
SWIDTH 568 0
DWIDTH 8 0
BBX 8 13 0 -2
BITMAP
00
00
24
24
00
3C
42
7E
40
42
3C
00
00
ENDCHAR

STARTCHAR afii10099
ENCODING 1106
SWIDTH 568 0
DWIDTH 8 0
BBX 8 13 0 -2
BITMAP
00
00
20
7C
20
2C
32
22
22
22
22
02
04
ENDCHAR

STARTCHAR afii10100
ENCODING 1107
SWIDTH 568 0
DWIDTH 8 0
BBX 8 13 0 -2
BITMAP
00
00
08
10
00
7E
42
40
40
40
40
00
00
ENDCHAR

STARTCHAR afii10101
ENCODING 1108
SWIDTH 568 0
DWIDTH 8 0
BBX 8 13 0 -2
BITMAP
00
00
00
00
00
3E
40
78
40
40
3E
00
00
ENDCHAR

STARTCHAR afii10102
ENCODING 1109
SWIDTH 568 0
DWIDTH 8 0
BBX 8 13 0 -2
BITMAP
00
00
00
00
00
3C
42
30
0C
42
3C
00
00
ENDCHAR

STARTCHAR afii10103
ENCODING 1110
SWIDTH 568 0
DWIDTH 8 0
BBX 8 13 0 -2
BITMAP
00
00
00
10
00
30
10
10
10
10
38
00
00
ENDCHAR

STARTCHAR afii10104
ENCODING 1111
SWIDTH 568 0
DWIDTH 8 0
BBX 8 13 0 -2
BITMAP
00
00
48
48
00
30
10
10
10
10
7C
00
00
ENDCHAR

STARTCHAR afii10105
ENCODING 1112
SWIDTH 568 0
DWIDTH 8 0
BBX 8 13 0 -2
BITMAP
00
00
00
04
00
0C
04
04
04
04
24
24
18
ENDCHAR

STARTCHAR afii10106
ENCODING 1113
SWIDTH 568 0
DWIDTH 8 0
BBX 8 13 0 -2
BITMAP
00
00
00
00
00
70
90
9C
92
92
9C
00
00
ENDCHAR

STARTCHAR afii10107
ENCODING 1114
SWIDTH 568 0
DWIDTH 8 0
BBX 8 13 0 -2
BITMAP
00
00
00
00
00
90
90
FC
92
92
9C
00
00
ENDCHAR

STARTCHAR afii10108
ENCODING 1115
SWIDTH 568 0
DWIDTH 8 0
BBX 8 13 0 -2
BITMAP
00
00
20
7C
20
2C
32
22
22
22
22
00
00
ENDCHAR

STARTCHAR afii10109
ENCODING 1116
SWIDTH 568 0
DWIDTH 8 0
BBX 8 13 0 -2
BITMAP
00
00
10
20
00
44
48
70
48
44
44
00
00
ENDCHAR

STARTCHAR uni045D
ENCODING 1117
SWIDTH 568 0
DWIDTH 8 0
BBX 8 13 0 -2
BITMAP
00
00
10
08
00
42
46
4A
52
62
42
00
00
ENDCHAR

STARTCHAR afii10110
ENCODING 1118
SWIDTH 568 0
DWIDTH 8 0
BBX 8 13 0 -2
BITMAP
00
00
42
3C
00
42
42
42
46
3A
02
42
3C
ENDCHAR

STARTCHAR afii10193
ENCODING 1119
SWIDTH 568 0
DWIDTH 8 0
BBX 8 13 0 -2
BITMAP
00
00
00
00
00
44
44
44
44
44
7C
10
10
ENDCHAR

STARTCHAR uni0460
ENCODING 1120
SWIDTH 568 0
DWIDTH 8 0
BBX 8 13 0 -2
BITMAP
00
00
6C
82
82
82
82
92
92
92
6C
00
00
ENDCHAR

STARTCHAR uni0461
ENCODING 1121
SWIDTH 568 0
DWIDTH 8 0
BBX 8 13 0 -2
BITMAP
00
00
00
00
00
44
92
92
92
92
6C
00
00
ENDCHAR

STARTCHAR afii10146
ENCODING 1122
SWIDTH 568 0
DWIDTH 8 0
BBX 8 13 0 -2
BITMAP
00
00
20
F8
20
20
3C
22
22
22
3C
00
00
ENDCHAR

STARTCHAR afii10194
ENCODING 1123
SWIDTH 568 0
DWIDTH 8 0
BBX 8 13 0 -2
BITMAP
00
00
20
20
20
F8
20
3C
22
22
3C
00
00
ENDCHAR

STARTCHAR uni0464
ENCODING 1124
SWIDTH 568 0
DWIDTH 8 0
BBX 8 13 0 -2
BITMAP
00
00
8E
90
90
90
FC
90
90
90
8E
00
00
ENDCHAR

STARTCHAR uni0465
ENCODING 1125
SWIDTH 568 0
DWIDTH 8 0
BBX 8 13 0 -2
BITMAP
00
00
00
00
00
8E
90
FC
90
90
8E
00
00
ENDCHAR

STARTCHAR uni0466
ENCODING 1126
SWIDTH 568 0
DWIDTH 8 0
BBX 8 13 0 -2
BITMAP
00
00
10
28
28
44
44
6C
92
92
92
00
00
ENDCHAR

STARTCHAR uni0467
ENCODING 1127
SWIDTH 568 0
DWIDTH 8 0
BBX 8 13 0 -2
BITMAP
00
00
00
00
00
10
28
44
6C
92
92
00
00
ENDCHAR

STARTCHAR uni0468
ENCODING 1128
SWIDTH 568 0
DWIDTH 8 0
BBX 8 13 0 -2
BITMAP
00
00
90
90
A8
A8
A8
C4
D4
92
92
00
00
ENDCHAR

STARTCHAR uni0469
ENCODING 1129
SWIDTH 568 0
DWIDTH 8 0
BBX 8 13 0 -2
BITMAP
00
00
00
00
00
48
54
54
62
6A
4A
00
00
ENDCHAR

STARTCHAR uni046A
ENCODING 1130
SWIDTH 568 0
DWIDTH 8 0
BBX 8 13 0 -2
BITMAP
00
00
7C
44
44
28
38
54
92
92
92
00
00
ENDCHAR

STARTCHAR uni046B
ENCODING 1131
SWIDTH 568 0
DWIDTH 8 0
BBX 8 13 0 -2
BITMAP
00
00
00
00
00
38
28
28
7C
92
92
00
00
ENDCHAR

STARTCHAR uni046C
ENCODING 1132
SWIDTH 568 0
DWIDTH 8 0
BBX 8 13 0 -2
BITMAP
00
00
BE
A2
A2
94
F8
9C
AA
AA
AA
00
00
ENDCHAR

STARTCHAR uni046D
ENCODING 1133
SWIDTH 568 0
DWIDTH 8 0
BBX 8 13 0 -2
BITMAP
00
00
00
00
00
9C
94
F8
9C
AA
AA
00
00
ENDCHAR

STARTCHAR uni046E
ENCODING 1134
SWIDTH 568 0
DWIDTH 8 0
BBX 8 13 0 -2
BITMAP
00
22
1C
00
3C
42
02
1C
02
02
3C
40
38
ENDCHAR

STARTCHAR uni046F
ENCODING 1135
SWIDTH 568 0
DWIDTH 8 0
BBX 8 13 0 -2
BITMAP
00
22
1C
00
00
3C
42
1C
02
02
3C
40
38
ENDCHAR

STARTCHAR uni0470
ENCODING 1136
SWIDTH 568 0
DWIDTH 8 0
BBX 8 13 0 -2
BITMAP
00
00
92
92
92
92
92
7C
10
10
10
00
00
ENDCHAR

STARTCHAR uni0471
ENCODING 1137
SWIDTH 568 0
DWIDTH 8 0
BBX 8 13 0 -2
BITMAP
00
00
00
00
00
92
92
92
92
92
7C
10
10
ENDCHAR

STARTCHAR afii10147
ENCODING 1138
SWIDTH 568 0
DWIDTH 8 0
BBX 8 13 0 -2
BITMAP
00
00
3C
42
42
42
7E
42
42
42
3C
00
00
ENDCHAR

STARTCHAR afii10195
ENCODING 1139
SWIDTH 568 0
DWIDTH 8 0
BBX 8 13 0 -2
BITMAP
00
00
00
00
00
3C
42
7E
42
42
3C
00
00
ENDCHAR

STARTCHAR afii10148
ENCODING 1140
SWIDTH 568 0
DWIDTH 8 0
BBX 8 13 0 -2
BITMAP
00
00
42
44
44
48
28
28
28
10
10
00
00
ENDCHAR

STARTCHAR afii10196
ENCODING 1141
SWIDTH 568 0
DWIDTH 8 0
BBX 8 13 0 -2
BITMAP
00
00
00
00
00
42
44
48
28
28
10
00
00
ENDCHAR

STARTCHAR uni0476
ENCODING 1142
SWIDTH 568 0
DWIDTH 8 0
BBX 8 13 0 -2
BITMAP
00
48
24
00
42
44
48
28
28
10
10
00
00
ENDCHAR

STARTCHAR uni0477
ENCODING 1143
SWIDTH 568 0
DWIDTH 8 0
BBX 8 13 0 -2
BITMAP
00
00
48
24
00
42
44
48
28
28
10
00
00
ENDCHAR

STARTCHAR uni0478
ENCODING 1144
SWIDTH 568 0
DWIDTH 8 0
BBX 8 13 0 -2
BITMAP
00
00
40
A0
A0
AA
AA
AA
AA
AA
46
02
0C
ENDCHAR

STARTCHAR uni0479
ENCODING 1145
SWIDTH 568 0
DWIDTH 8 0
BBX 8 13 0 -2
BITMAP
00
00
00
00
00
4A
AA
AA
AA
AA
46
02
0C
ENDCHAR

STARTCHAR uni047A
ENCODING 1146
SWIDTH 568 0
DWIDTH 8 0
BBX 8 13 0 -2
BITMAP
00
10
7C
92
82
82
82
82
82
92
7C
10
00
ENDCHAR

STARTCHAR uni047B
ENCODING 1147
SWIDTH 568 0
DWIDTH 8 0
BBX 8 13 0 -2
BITMAP
00
00
00
00
10
7C
92
82
82
92
7C
10
00
ENDCHAR

STARTCHAR uni047C
ENCODING 1148
SWIDTH 568 0
DWIDTH 8 0
BBX 8 13 0 -2
BITMAP
04
7C
40
00
6C
82
92
92
92
92
6C
00
00
ENDCHAR

STARTCHAR uni047D
ENCODING 1149
SWIDTH 568 0
DWIDTH 8 0
BBX 8 13 0 -2
BITMAP
04
7C
40
00
00
6C
82
92
92
92
6C
00
00
ENDCHAR

STARTCHAR uni047E
ENCODING 1150
SWIDTH 568 0
DWIDTH 8 0
BBX 8 13 0 -2
BITMAP
00
7C
10
00
6C
82
92
92
92
92
6C
00
00
ENDCHAR

STARTCHAR uni047F
ENCODING 1151
SWIDTH 568 0
DWIDTH 8 0
BBX 8 13 0 -2
BITMAP
00
7C
10
00
00
92
92
92
54
54
28
00
00
ENDCHAR

STARTCHAR uni0480
ENCODING 1152
SWIDTH 568 0
DWIDTH 8 0
BBX 8 13 0 -2
BITMAP
00
00
3C
42
42
40
40
40
40
40
3C
04
0E
ENDCHAR

STARTCHAR uni0481
ENCODING 1153
SWIDTH 568 0
DWIDTH 8 0
BBX 8 13 0 -2
BITMAP
00
00
00
00
00
3C
42
40
40
3C
04
04
00
ENDCHAR

STARTCHAR uni0482
ENCODING 1154
SWIDTH 568 0
DWIDTH 8 0
BBX 8 13 0 -2
BITMAP
00
00
00
14
08
54
20
50
00
00
00
00
00
ENDCHAR

STARTCHAR uni0483
ENCODING 1155
SWIDTH 568 0
DWIDTH 8 0
BBX 8 13 0 -2
BITMAP
02
7E
40
00
00
00
00
00
00
00
00
00
00
ENDCHAR

STARTCHAR uni0484
ENCODING 1156
SWIDTH 568 0
DWIDTH 8 0
BBX 8 13 0 -2
BITMAP
38
46
00
00
00
00
00
00
00
00
00
00
00
ENDCHAR

STARTCHAR uni0485
ENCODING 1157
SWIDTH 568 0
DWIDTH 8 0
BBX 8 13 0 -2
BITMAP
78
66
00
00
00
00
00
00
00
00
00
00
00
ENDCHAR

STARTCHAR uni0486
ENCODING 1158
SWIDTH 568 0
DWIDTH 8 0
BBX 8 13 0 -2
BITMAP
1E
66
00
00
00
00
00
00
00
00
00
00
00
ENDCHAR

STARTCHAR uni0488
ENCODING 1160
SWIDTH 568 0
DWIDTH 8 0
BBX 8 13 0 -2
BITMAP
40
A4
0A
00
00
00
00
00
00
00
40
A4
0A
ENDCHAR

STARTCHAR uni0489
ENCODING 1161
SWIDTH 568 0
DWIDTH 8 0
BBX 8 13 0 -2
BITMAP
24
48
6C
00
00
00
00
00
00
20
44
68
0C
ENDCHAR

STARTCHAR uni048A
ENCODING 1162
SWIDTH 568 0
DWIDTH 8 0
BBX 8 13 0 -2
BITMAP
00
84
78
00
84
8C
94
A4
C4
84
86
02
04
ENDCHAR

STARTCHAR uni048B
ENCODING 1163
SWIDTH 568 0
DWIDTH 8 0
BBX 8 13 0 -2
BITMAP
00
00
84
78
00
84
8C
94
A4
C4
86
02
04
ENDCHAR

STARTCHAR uni048C
ENCODING 1164
SWIDTH 568 0
DWIDTH 8 0
BBX 8 13 0 -2
BITMAP
00
00
20
78
20
20
3C
22
22
22
3C
00
00
ENDCHAR

STARTCHAR uni048D
ENCODING 1165
SWIDTH 568 0
DWIDTH 8 0
BBX 8 13 0 -2
BITMAP
00
00
00
00
00
20
78
20
3C
22
3C
00
00
ENDCHAR

STARTCHAR uni048E
ENCODING 1166
SWIDTH 568 0
DWIDTH 8 0
BBX 8 13 0 -2
BITMAP
00
00
7C
42
42
4A
44
7A
40
40
40
00
00
ENDCHAR

STARTCHAR uni048F
ENCODING 1167
SWIDTH 568 0
DWIDTH 8 0
BBX 8 13 0 -2
BITMAP
00
00
00
00
00
7C
42
4A
44
7A
40
40
40
ENDCHAR

STARTCHAR afii10050
ENCODING 1168
SWIDTH 568 0
DWIDTH 8 0
BBX 8 13 0 -2
BITMAP
00
02
7E
40
40
40
40
40
40
40
40
00
00
ENDCHAR

STARTCHAR afii10098
ENCODING 1169
SWIDTH 568 0
DWIDTH 8 0
BBX 8 13 0 -2
BITMAP
00
00
00
00
02
7E
40
40
40
40
40
00
00
ENDCHAR

STARTCHAR uni0492
ENCODING 1170
SWIDTH 568 0
DWIDTH 8 0
BBX 8 13 0 -2
BITMAP
00
00
3E
22
20
20
70
20
20
20
20
00
00
ENDCHAR

STARTCHAR uni0493
ENCODING 1171
SWIDTH 568 0
DWIDTH 8 0
BBX 8 13 0 -2
BITMAP
00
00
00
00
00
3E
22
70
20
20
20
00
00
ENDCHAR

STARTCHAR uni0494
ENCODING 1172
SWIDTH 568 0
DWIDTH 8 0
BBX 8 13 0 -2
BITMAP
00
00
7E
40
40
40
7C
42
42
42
E2
0C
00
ENDCHAR

STARTCHAR uni0495
ENCODING 1173
SWIDTH 568 0
DWIDTH 8 0
BBX 8 13 0 -2
BITMAP
00
00
00
00
00
7E
40
7C
42
42
E2
0C
00
ENDCHAR

STARTCHAR uni0496
ENCODING 1174
SWIDTH 568 0
DWIDTH 8 0
BBX 8 13 0 -2
BITMAP
00
00
92
92
54
38
54
92
92
92
93
01
01
ENDCHAR

STARTCHAR uni0497
ENCODING 1175
SWIDTH 568 0
DWIDTH 8 0
BBX 8 13 0 -2
BITMAP
00
00
00
00
00
92
92
7C
54
92
93
01
01
ENDCHAR

STARTCHAR uni0498
ENCODING 1176
SWIDTH 568 0
DWIDTH 8 0
BBX 8 13 0 -2
BITMAP
00
00
3C
42
02
02
1C
02
02
42
3C
10
20
ENDCHAR

STARTCHAR uni0499
ENCODING 1177
SWIDTH 568 0
DWIDTH 8 0
BBX 8 13 0 -2
BITMAP
00
00
00
00
00
3C
42
1C
02
42
3C
10
20
ENDCHAR

STARTCHAR uni049A
ENCODING 1178
SWIDTH 568 0
DWIDTH 8 0
BBX 8 13 0 -2
BITMAP
00
00
42
44
48
50
60
50
48
44
42
02
02
ENDCHAR

STARTCHAR uni049B
ENCODING 1179
SWIDTH 568 0
DWIDTH 8 0
BBX 8 13 0 -2
BITMAP
00
00
00
00
00
48
50
60
50
48
44
04
04
ENDCHAR

STARTCHAR uni049C
ENCODING 1180
SWIDTH 568 0
DWIDTH 8 0
BBX 8 13 0 -2
BITMAP
00
00
42
42
54
54
78
54
54
42
42
00
00
ENDCHAR

STARTCHAR uni049D
ENCODING 1181
SWIDTH 568 0
DWIDTH 8 0
BBX 8 13 0 -2
BITMAP
00
00
00
00
00
42
54
78
54
44
42
00
00
ENDCHAR

STARTCHAR uni049E
ENCODING 1182
SWIDTH 568 0
DWIDTH 8 0
BBX 8 13 0 -2
BITMAP
00
00
22
74
28
30
30
30
28
24
22
00
00
ENDCHAR

STARTCHAR uni049F
ENCODING 1183
SWIDTH 568 0
DWIDTH 8 0
BBX 8 13 0 -2
BITMAP
00
00
20
20
72
24
28
30
28
24
22
00
00
ENDCHAR

STARTCHAR uni04A0
ENCODING 1184
SWIDTH 568 0
DWIDTH 8 0
BBX 8 13 0 -2
BITMAP
00
00
62
24
28
30
30
30
28
24
22
00
00
ENDCHAR

STARTCHAR uni04A1
ENCODING 1185
SWIDTH 568 0
DWIDTH 8 0
BBX 8 13 0 -2
BITMAP
00
00
00
00
00
64
28
30
28
24
22
00
00
ENDCHAR

STARTCHAR uni04A2
ENCODING 1186
SWIDTH 568 0
DWIDTH 8 0
BBX 8 13 0 -2
BITMAP
00
00
44
44
44
44
7C
44
44
44
46
02
02
ENDCHAR

STARTCHAR uni04A3
ENCODING 1187
SWIDTH 568 0
DWIDTH 8 0
BBX 8 13 0 -2
BITMAP
00
00
00
00
00
44
44
7C
44
44
46
02
02
ENDCHAR

STARTCHAR uni04A4
ENCODING 1188
SWIDTH 568 0
DWIDTH 8 0
BBX 8 13 0 -2
BITMAP
00
00
4E
48
48
48
78
48
48
48
48
00
00
ENDCHAR

STARTCHAR uni04A5
ENCODING 1189
SWIDTH 568 0
DWIDTH 8 0
BBX 8 13 0 -2
BITMAP
00
00
00
00
00
4E
48
78
48
48
48
00
00
ENDCHAR

STARTCHAR uni04A6
ENCODING 1190
SWIDTH 568 0
DWIDTH 8 0
BBX 8 13 0 -2
BITMAP
00
00
F0
90
90
90
9C
92
92
92
92
02
0C
ENDCHAR

STARTCHAR uni04A7
ENCODING 1191
SWIDTH 568 0
DWIDTH 8 0
BBX 8 13 0 -2
BITMAP
00
00
00
00
00
F0
90
9C
92
92
92
02
0C
ENDCHAR

STARTCHAR uni04A8
ENCODING 1192
SWIDTH 568 0
DWIDTH 8 0
BBX 8 13 0 -2
BITMAP
00
00
3C
42
40
4C
52
52
52
3C
10
0E
00
ENDCHAR

STARTCHAR uni04A9
ENCODING 1193
SWIDTH 568 0
DWIDTH 8 0
BBX 8 13 0 -2
BITMAP
00
00
00
00
00
3C
40
4C
52
3C
10
0E
00
ENDCHAR

STARTCHAR uni04AA
ENCODING 1194
SWIDTH 568 0
DWIDTH 8 0
BBX 8 13 0 -2
BITMAP
00
00
3C
42
40
40
40
40
40
42
3C
10
18
ENDCHAR

STARTCHAR uni04AB
ENCODING 1195
SWIDTH 568 0
DWIDTH 8 0
BBX 8 13 0 -2
BITMAP
00
00
00
00
00
3C
42
40
40
42
3C
10
18
ENDCHAR

STARTCHAR uni04AC
ENCODING 1196
SWIDTH 568 0
DWIDTH 8 0
BBX 8 13 0 -2
BITMAP
00
00
FE
10
10
10
10
10
10
10
18
08
08
ENDCHAR

STARTCHAR uni04AD
ENCODING 1197
SWIDTH 568 0
DWIDTH 8 0
BBX 8 13 0 -2
BITMAP
00
00
00
00
00
FE
92
10
10
10
18
08
08
ENDCHAR

STARTCHAR uni04AE
ENCODING 1198
SWIDTH 568 0
DWIDTH 8 0
BBX 8 13 0 -2
BITMAP
00
00
82
82
44
28
10
10
10
10
10
00
00
ENDCHAR

STARTCHAR uni04AF
ENCODING 1199
SWIDTH 568 0
DWIDTH 8 0
BBX 8 13 0 -2
BITMAP
00
00
00
00
00
82
82
44
28
10
10
10
10
ENDCHAR

STARTCHAR uni04B0
ENCODING 1200
SWIDTH 568 0
DWIDTH 8 0
BBX 8 13 0 -2
BITMAP
00
00
82
82
44
28
10
7C
10
10
10
00
00
ENDCHAR

STARTCHAR uni04B1
ENCODING 1201
SWIDTH 568 0
DWIDTH 8 0
BBX 8 13 0 -2
BITMAP
00
00
00
00
00
82
82
44
28
10
7C
10
10
ENDCHAR

STARTCHAR uni04B2
ENCODING 1202
SWIDTH 568 0
DWIDTH 8 0
BBX 8 13 0 -2
BITMAP
00
00
44
44
28
28
10
28
28
44
46
02
02
ENDCHAR

STARTCHAR uni04B3
ENCODING 1203
SWIDTH 568 0
DWIDTH 8 0
BBX 8 13 0 -2
BITMAP
00
00
00
00
00
44
28
10
28
44
46
02
02
ENDCHAR

STARTCHAR uni04B4
ENCODING 1204
SWIDTH 568 0
DWIDTH 8 0
BBX 8 13 0 -2
BITMAP
00
00
72
22
22
22
22
22
22
22
3E
02
02
ENDCHAR

STARTCHAR uni04B5
ENCODING 1205
SWIDTH 568 0
DWIDTH 8 0
BBX 8 13 0 -2
BITMAP
00
00
00
00
00
72
22
22
22
22
3E
02
02
ENDCHAR

STARTCHAR uni04B6
ENCODING 1206
SWIDTH 568 0
DWIDTH 8 0
BBX 8 13 0 -2
BITMAP
00
00
44
44
44
44
4C
34
04
04
06
02
02
ENDCHAR

STARTCHAR uni04B7
ENCODING 1207
SWIDTH 568 0
DWIDTH 8 0
BBX 8 13 0 -2
BITMAP
00
00
00
00
00
44
44
4C
34
04
06
02
02
ENDCHAR

STARTCHAR uni04B8
ENCODING 1208
SWIDTH 568 0
DWIDTH 8 0
BBX 8 13 0 -2
BITMAP
00
00
42
42
42
52
56
3A
12
12
02
00
00
ENDCHAR

STARTCHAR uni04B9
ENCODING 1209
SWIDTH 568 0
DWIDTH 8 0
BBX 8 13 0 -2
BITMAP
00
00
00
00
00
42
42
56
3A
12
02
00
00
ENDCHAR

STARTCHAR uni04BA
ENCODING 1210
SWIDTH 568 0
DWIDTH 8 0
BBX 8 13 0 -2
BITMAP
00
00
40
40
40
5C
62
42
42
42
42
00
00
ENDCHAR

STARTCHAR uni04BB
ENCODING 1211
SWIDTH 568 0
DWIDTH 8 0
BBX 8 13 0 -2
BITMAP
00
00
20
20
20
20
2C
32
22
22
22
00
00
ENDCHAR

STARTCHAR uni04BC
ENCODING 1212
SWIDTH 568 0
DWIDTH 8 0
BBX 8 13 0 -2
BITMAP
00
00
1C
22
A2
A2
7E
20
20
22
1C
00
00
ENDCHAR

STARTCHAR uni04BD
ENCODING 1213
SWIDTH 568 0
DWIDTH 8 0
BBX 8 13 0 -2
BITMAP
00
00
00
00
00
9C
A2
7E
20
22
1C
00
00
ENDCHAR

STARTCHAR uni04BE
ENCODING 1214
SWIDTH 568 0
DWIDTH 8 0
BBX 8 13 0 -2
BITMAP
00
00
1C
22
A2
A2
7E
20
20
22
1C
08
0C
ENDCHAR

STARTCHAR uni04BF
ENCODING 1215
SWIDTH 568 0
DWIDTH 8 0
BBX 8 13 0 -2
BITMAP
00
00
00
00
00
9C
A2
7E
20
22
1C
08
0C
ENDCHAR

STARTCHAR uni04C0
ENCODING 1216
SWIDTH 568 0
DWIDTH 8 0
BBX 8 13 0 -2
BITMAP
00
00
1C
08
08
08
08
08
08
08
1C
00
00
ENDCHAR

STARTCHAR uni04C1
ENCODING 1217
SWIDTH 568 0
DWIDTH 8 0
BBX 8 13 0 -2
BITMAP
44
38
00
92
92
54
38
54
92
92
92
00
00
ENDCHAR

STARTCHAR uni04C2
ENCODING 1218
SWIDTH 568 0
DWIDTH 8 0
BBX 8 13 0 -2
BITMAP
00
00
44
38
00
92
92
7C
54
92
92
00
00
ENDCHAR

STARTCHAR uni04C3
ENCODING 1219
SWIDTH 568 0
DWIDTH 8 0
BBX 8 13 0 -2
BITMAP
00
00
42
44
48
50
60
50
48
44
42
02
1C
ENDCHAR

STARTCHAR uni04C4
ENCODING 1220
SWIDTH 568 0
DWIDTH 8 0
BBX 8 13 0 -2
BITMAP
00
00
00
00
00
44
48
70
48
44
44
04
18
ENDCHAR

STARTCHAR uni04C5
ENCODING 1221
SWIDTH 568 0
DWIDTH 8 0
BBX 8 13 0 -2
BITMAP
00
00
3C
44
44
44
44
44
44
84
86
02
04
ENDCHAR

STARTCHAR uni04C6
ENCODING 1222
SWIDTH 568 0
DWIDTH 8 0
BBX 8 13 0 -2
BITMAP
00
00
00
00
00
3C
44
44
44
44
86
02
04
ENDCHAR

STARTCHAR uni04C7
ENCODING 1223
SWIDTH 568 0
DWIDTH 8 0
BBX 8 13 0 -2
BITMAP
00
00
42
42
42
42
7E
42
42
42
42
02
1C
ENDCHAR

STARTCHAR uni04C8
ENCODING 1224
SWIDTH 568 0
DWIDTH 8 0
BBX 8 13 0 -2
BITMAP
00
00
00
00
00
42
42
7E
42
42
42
02
1C
ENDCHAR

STARTCHAR uni04C9
ENCODING 1225
SWIDTH 568 0
DWIDTH 8 0
BBX 8 13 0 -2
BITMAP
00
00
84
84
84
84
FC
84
84
84
86
02
04
ENDCHAR

STARTCHAR uni04CA
ENCODING 1226
SWIDTH 568 0
DWIDTH 8 0
BBX 8 13 0 -2
BITMAP
00
00
00
00
00
84
84
FC
84
84
86
02
04
ENDCHAR

STARTCHAR uni04CB
ENCODING 1227
SWIDTH 568 0
DWIDTH 8 0
BBX 8 13 0 -2
BITMAP
00
00
42
42
42
42
46
3A
02
02
06
04
04
ENDCHAR

STARTCHAR uni04CC
ENCODING 1228
SWIDTH 568 0
DWIDTH 8 0
BBX 8 13 0 -2
BITMAP
00
00
00
00
00
42
42
46
3A
02
06
04
04
ENDCHAR

STARTCHAR uni04CD
ENCODING 1229
SWIDTH 568 0
DWIDTH 8 0
BBX 8 13 0 -2
BITMAP
00
00
82
82
C6
AA
92
92
82
82
83
01
02
ENDCHAR

STARTCHAR uni04CE
ENCODING 1230
SWIDTH 568 0
DWIDTH 8 0
BBX 8 13 0 -2
BITMAP
00
00
00
00
00
44
6C
54
54
44
46
02
04
ENDCHAR

STARTCHAR uni04D0
ENCODING 1232
SWIDTH 568 0
DWIDTH 8 0
BBX 8 13 0 -2
BITMAP
00
42
3C
00
18
24
42
42
7E
42
42
00
00
ENDCHAR

STARTCHAR uni04D1
ENCODING 1233
SWIDTH 568 0
DWIDTH 8 0
BBX 8 13 0 -2
BITMAP
00
00
42
3C
00
3C
02
3E
42
46
3A
00
00
ENDCHAR

STARTCHAR uni04D2
ENCODING 1234
SWIDTH 568 0
DWIDTH 8 0
BBX 8 13 0 -2
BITMAP
00
24
24
00
18
24
42
42
7E
42
42
00
00
ENDCHAR

STARTCHAR uni04D3
ENCODING 1235
SWIDTH 568 0
DWIDTH 8 0
BBX 8 13 0 -2
BITMAP
00
00
24
24
00
1C
02
3E
42
46
3A
00
00
ENDCHAR

STARTCHAR uni04D4
ENCODING 1236
SWIDTH 568 0
DWIDTH 8 0
BBX 8 13 0 -2
BITMAP
00
00
6E
90
90
90
9C
F0
90
90
9E
00
00
ENDCHAR

STARTCHAR uni04D5
ENCODING 1237
SWIDTH 568 0
DWIDTH 8 0
BBX 8 13 0 -2
BITMAP
00
00
00
00
00
7C
12
7C
90
92
6C
00
00
ENDCHAR

STARTCHAR uni04D6
ENCODING 1238
SWIDTH 568 0
DWIDTH 8 0
BBX 8 13 0 -2
BITMAP
00
42
3C
00
7E
40
40
7C
40
40
7E
00
00
ENDCHAR

STARTCHAR uni04D7
ENCODING 1239
SWIDTH 568 0
DWIDTH 8 0
BBX 8 13 0 -2
BITMAP
00
00
42
3C
00
3C
42
7E
40
42
3C
00
00
ENDCHAR

STARTCHAR uni04D8
ENCODING 1240
SWIDTH 568 0
DWIDTH 8 0
BBX 8 13 0 -2
BITMAP
00
00
3C
42
02
02
7E
42
42
42
3C
00
00
ENDCHAR

STARTCHAR afii10846
ENCODING 1241
SWIDTH 568 0
DWIDTH 8 0
BBX 8 13 0 -2
BITMAP
00
00
00
00
00
3C
42
02
7E
42
3C
00
00
ENDCHAR

STARTCHAR uni04DA
ENCODING 1242
SWIDTH 568 0
DWIDTH 8 0
BBX 8 13 0 -2
BITMAP
00
24
24
00
3C
42
02
7E
42
42
3C
00
00
ENDCHAR

STARTCHAR uni04DB
ENCODING 1243
SWIDTH 568 0
DWIDTH 8 0
BBX 8 13 0 -2
BITMAP
00
00
24
24
00
3C
42
02
7E
42
3C
00
00
ENDCHAR

STARTCHAR uni04DC
ENCODING 1244
SWIDTH 568 0
DWIDTH 8 0
BBX 8 13 0 -2
BITMAP
28
28
00
92
92
54
38
54
92
92
92
00
00
ENDCHAR

STARTCHAR uni04DD
ENCODING 1245
SWIDTH 568 0
DWIDTH 8 0
BBX 8 13 0 -2
BITMAP
00
00
28
28
00
92
92
7C
54
92
92
00
00
ENDCHAR

STARTCHAR uni04DE
ENCODING 1246
SWIDTH 568 0
DWIDTH 8 0
BBX 8 13 0 -2
BITMAP
00
24
24
00
3C
42
02
1C
02
42
3C
00
00
ENDCHAR

STARTCHAR uni04DF
ENCODING 1247
SWIDTH 568 0
DWIDTH 8 0
BBX 8 13 0 -2
BITMAP
00
00
24
24
00
3C
42
1C
02
42
3C
00
00
ENDCHAR

STARTCHAR uni04E0
ENCODING 1248
SWIDTH 568 0
DWIDTH 8 0
BBX 8 13 0 -2
BITMAP
00
00
7E
02
04
08
1C
02
02
42
3C
00
00
ENDCHAR

STARTCHAR uni04E1
ENCODING 1249
SWIDTH 568 0
DWIDTH 8 0
BBX 8 13 0 -2
BITMAP
00
00
00
00
00
7E
04
08
1C
02
02
42
3C
ENDCHAR

STARTCHAR uni04E2
ENCODING 1250
SWIDTH 568 0
DWIDTH 8 0
BBX 8 13 0 -2
BITMAP
00
00
7E
00
42
46
4A
52
62
42
42
00
00
ENDCHAR

STARTCHAR uni04E3
ENCODING 1251
SWIDTH 568 0
DWIDTH 8 0
BBX 8 13 0 -2
BITMAP
00
00
00
7E
00
42
46
4A
52
62
42
00
00
ENDCHAR

STARTCHAR uni04E4
ENCODING 1252
SWIDTH 568 0
DWIDTH 8 0
BBX 8 13 0 -2
BITMAP
00
24
24
00
42
46
4A
52
62
42
42
00
00
ENDCHAR

STARTCHAR uni04E5
ENCODING 1253
SWIDTH 568 0
DWIDTH 8 0
BBX 8 13 0 -2
BITMAP
00
00
24
24
00
42
46
4A
52
62
42
00
00
ENDCHAR

STARTCHAR uni04E6
ENCODING 1254
SWIDTH 568 0
DWIDTH 8 0
BBX 8 13 0 -2
BITMAP
00
24
24
00
3C
42
42
42
42
42
3C
00
00
ENDCHAR

STARTCHAR uni04E7
ENCODING 1255
SWIDTH 568 0
DWIDTH 8 0
BBX 8 13 0 -2
BITMAP
00
00
24
24
00
3C
42
42
42
42
3C
00
00
ENDCHAR

STARTCHAR uni04E8
ENCODING 1256
SWIDTH 568 0
DWIDTH 8 0
BBX 8 13 0 -2
BITMAP
00
00
3C
42
42
42
7E
42
42
42
3C
00
00
ENDCHAR

STARTCHAR uni04E9
ENCODING 1257
SWIDTH 568 0
DWIDTH 8 0
BBX 8 13 0 -2
BITMAP
00
00
00
00
00
3C
42
7E
42
42
3C
00
00
ENDCHAR

STARTCHAR uni04EA
ENCODING 1258
SWIDTH 568 0
DWIDTH 8 0
BBX 8 13 0 -2
BITMAP
00
24
24
00
3C
42
42
7E
42
42
3C
00
00
ENDCHAR

STARTCHAR uni04EB
ENCODING 1259
SWIDTH 568 0
DWIDTH 8 0
BBX 8 13 0 -2
BITMAP
00
00
24
24
00
3C
42
7E
42
42
3C
00
00
ENDCHAR

STARTCHAR uni04EC
ENCODING 1260
SWIDTH 568 0
DWIDTH 8 0
BBX 8 13 0 -2
BITMAP
28
00
78
04
02
02
3E
02
02
04
78
00
00
ENDCHAR

STARTCHAR uni04ED
ENCODING 1261
SWIDTH 568 0
DWIDTH 8 0
BBX 8 13 0 -2
BITMAP
00
00
00
14
00
3C
02
0E
02
02
3C
00
00
ENDCHAR

STARTCHAR uni04EE
ENCODING 1262
SWIDTH 568 0
DWIDTH 8 0
BBX 8 13 0 -2
BITMAP
00
00
7E
00
42
42
46
3A
02
42
3C
00
00
ENDCHAR

STARTCHAR uni04EF
ENCODING 1263
SWIDTH 568 0
DWIDTH 8 0
BBX 8 13 0 -2
BITMAP
00
00
00
7E
00
42
42
42
46
3A
02
42
3C
ENDCHAR

STARTCHAR uni04F0
ENCODING 1264
SWIDTH 568 0
DWIDTH 8 0
BBX 8 13 0 -2
BITMAP
00
24
24
00
42
42
46
3A
02
42
3C
00
00
ENDCHAR

STARTCHAR uni04F1
ENCODING 1265
SWIDTH 568 0
DWIDTH 8 0
BBX 8 13 0 -2
BITMAP
00
00
24
24
00
42
42
42
46
3A
02
42
3C
ENDCHAR

STARTCHAR uni04F2
ENCODING 1266
SWIDTH 568 0
DWIDTH 8 0
BBX 8 13 0 -2
BITMAP
00
12
24
00
42
42
46
3A
02
42
3C
00
00
ENDCHAR

STARTCHAR uni04F3
ENCODING 1267
SWIDTH 568 0
DWIDTH 8 0
BBX 8 13 0 -2
BITMAP
00
00
12
24
00
42
42
42
46
3A
02
42
3C
ENDCHAR

STARTCHAR uni04F4
ENCODING 1268
SWIDTH 568 0
DWIDTH 8 0
BBX 8 13 0 -2
BITMAP
00
24
24
00
42
42
46
3A
02
02
02
00
00
ENDCHAR

STARTCHAR uni04F5
ENCODING 1269
SWIDTH 568 0
DWIDTH 8 0
BBX 8 13 0 -2
BITMAP
00
00
24
24
00
42
42
46
3A
02
02
00
00
ENDCHAR

STARTCHAR uni04F8
ENCODING 1272
SWIDTH 568 0
DWIDTH 8 0
BBX 8 13 0 -2
BITMAP
00
24
24
00
42
42
72
4A
4A
4A
72
00
00
ENDCHAR

STARTCHAR uni04F9
ENCODING 1273
SWIDTH 568 0
DWIDTH 8 0
BBX 8 13 0 -2
BITMAP
00
00
24
24
00
42
42
72
4A
4A
72
00
00
ENDCHAR

STARTCHAR uni0500
ENCODING 1280
SWIDTH 568 0
DWIDTH 8 0
BBX 8 13 0 -2
BITMAP
00
00
02
02
02
3E
42
42
42
42
3E
00
00
ENDCHAR

STARTCHAR uni0501
ENCODING 1281
SWIDTH 568 0
DWIDTH 8 0
BBX 8 13 0 -2
BITMAP
00
00
04
04
04
3C
44
44
44
44
3C
00
00
ENDCHAR

STARTCHAR uni0502
ENCODING 1282
SWIDTH 568 0
DWIDTH 8 0
BBX 8 13 0 -2
BITMAP
00
00
08
08
08
78
88
8A
8A
8A
7C
00
00
ENDCHAR

STARTCHAR uni0503
ENCODING 1283
SWIDTH 568 0
DWIDTH 8 0
BBX 8 13 0 -2
BITMAP
00
00
08
08
08
38
48
48
4A
4A
3C
00
00
ENDCHAR

STARTCHAR uni0504
ENCODING 1284
SWIDTH 568 0
DWIDTH 8 0
BBX 8 13 0 -2
BITMAP
00
00
70
88
08
08
30
0A
0A
0A
04
00
00
ENDCHAR

STARTCHAR uni0505
ENCODING 1285
SWIDTH 568 0
DWIDTH 8 0
BBX 8 13 0 -2
BITMAP
00
00
00
00
00
30
48
08
32
0A
04
00
00
ENDCHAR

STARTCHAR uni0506
ENCODING 1286
SWIDTH 568 0
DWIDTH 8 0
BBX 8 13 0 -2
BITMAP
00
00
38
44
04
04
04
18
04
04
06
02
04
ENDCHAR

STARTCHAR uni0507
ENCODING 1287
SWIDTH 568 0
DWIDTH 8 0
BBX 8 13 0 -2
BITMAP
00
00
00
00
00
38
44
04
18
04
06
02
04
ENDCHAR

STARTCHAR uni0508
ENCODING 1288
SWIDTH 568 0
DWIDTH 8 0
BBX 8 13 0 -2
BITMAP
00
00
38
48
48
48
48
4A
4A
4A
84
00
00
ENDCHAR

STARTCHAR uni0509
ENCODING 1289
SWIDTH 568 0
DWIDTH 8 0
BBX 8 13 0 -2
BITMAP
00
00
00
00
00
38
48
48
4A
4A
84
00
00
ENDCHAR

STARTCHAR uni050A
ENCODING 1290
SWIDTH 568 0
DWIDTH 8 0
BBX 8 13 0 -2
BITMAP
00
00
88
88
88
88
F8
8A
8A
8A
84
00
00
ENDCHAR

STARTCHAR uni050B
ENCODING 1291
SWIDTH 568 0
DWIDTH 8 0
BBX 8 13 0 -2
BITMAP
00
00
00
00
00
88
88
F8
8A
8A
84
00
00
ENDCHAR

STARTCHAR uni050C
ENCODING 1292
SWIDTH 568 0
DWIDTH 8 0
BBX 8 13 0 -2
BITMAP
00
00
1C
22
40
40
40
46
42
22
1C
00
00
ENDCHAR

STARTCHAR uni050D
ENCODING 1293
SWIDTH 568 0
DWIDTH 8 0
BBX 8 13 0 -2
BITMAP
00
00
00
00
00
3C
42
40
46
42
3C
00
00
ENDCHAR

STARTCHAR uni050E
ENCODING 1294
SWIDTH 568 0
DWIDTH 8 0
BBX 8 13 0 -2
BITMAP
00
00
FE
10
10
10
10
14
14
14
08
00
00
ENDCHAR

STARTCHAR uni050F
ENCODING 1295
SWIDTH 568 0
DWIDTH 8 0
BBX 8 13 0 -2
BITMAP
00
00
00
00
00
7C
10
10
14
14
08
00
00
ENDCHAR

STARTCHAR uni0531
ENCODING 1329
SWIDTH 568 0
DWIDTH 8 0
BBX 8 13 0 -2
BITMAP
00
00
88
88
88
88
88
88
9C
8A
72
00
00
ENDCHAR

STARTCHAR uni0532
ENCODING 1330
SWIDTH 568 0
DWIDTH 8 0
BBX 8 13 0 -2
BITMAP
00
00
3C
42
42
40
40
7C
42
40
40
00
00
ENDCHAR

STARTCHAR uni0533
ENCODING 1331
SWIDTH 568 0
DWIDTH 8 0
BBX 8 13 0 -2
BITMAP
00
00
70
88
88
88
88
7C
0A
08
08
00
00
ENDCHAR

STARTCHAR uni0534
ENCODING 1332
SWIDTH 568 0
DWIDTH 8 0
BBX 8 13 0 -2
BITMAP
00
00
70
88
88
08
0C
0A
08
08
08
00
00
ENDCHAR

STARTCHAR uni0535
ENCODING 1333
SWIDTH 568 0
DWIDTH 8 0
BBX 8 13 0 -2
BITMAP
00
00
40
40
7C
42
40
40
42
42
3C
00
00
ENDCHAR

STARTCHAR uni0536
ENCODING 1334
SWIDTH 568 0
DWIDTH 8 0
BBX 8 13 0 -2
BITMAP
00
00
3C
42
42
42
3C
04
08
7C
42
00
00
ENDCHAR

STARTCHAR uni0537
ENCODING 1335
SWIDTH 568 0
DWIDTH 8 0
BBX 8 13 0 -2
BITMAP
00
00
40
40
40
7C
42
40
40
40
7C
02
00
ENDCHAR

STARTCHAR uni0538
ENCODING 1336
SWIDTH 568 0
DWIDTH 8 0
BBX 8 13 0 -2
BITMAP
00
00
3C
42
42
42
40
40
40
40
7C
02
00
ENDCHAR

STARTCHAR uni0539
ENCODING 1337
SWIDTH 568 0
DWIDTH 8 0
BBX 8 13 0 -2
BITMAP
00
00
78
84
84
84
9E
A4
A4
A4
98
00
00
ENDCHAR

STARTCHAR uni053A
ENCODING 1338
SWIDTH 568 0
DWIDTH 8 0
BBX 8 13 0 -2
BITMAP
00
00
04
04
04
7E
84
84
84
84
78
00
00
ENDCHAR

STARTCHAR uni053B
ENCODING 1339
SWIDTH 568 0
DWIDTH 8 0
BBX 8 13 0 -2
BITMAP
00
00
40
40
40
7C
42
42
40
40
40
00
00
ENDCHAR

STARTCHAR uni053C
ENCODING 1340
SWIDTH 568 0
DWIDTH 8 0
BBX 8 13 0 -2
BITMAP
00
00
40
40
40
40
40
40
40
40
7C
02
04
ENDCHAR

STARTCHAR uni053D
ENCODING 1341
SWIDTH 568 0
DWIDTH 8 0
BBX 8 13 0 -2
BITMAP
00
00
80
80
80
F2
92
92
92
92
8C
00
00
ENDCHAR

STARTCHAR uni053E
ENCODING 1342
SWIDTH 568 0
DWIDTH 8 0
BBX 8 13 0 -2
BITMAP
00
00
7E
18
24
42
42
42
42
42
3C
00
00
ENDCHAR

STARTCHAR uni053F
ENCODING 1343
SWIDTH 568 0
DWIDTH 8 0
BBX 8 13 0 -2
BITMAP
00
00
40
40
42
42
42
46
3A
02
02
00
00
ENDCHAR

STARTCHAR uni0540
ENCODING 1344
SWIDTH 568 0
DWIDTH 8 0
BBX 8 13 0 -2
BITMAP
00
00
08
10
08
10
20
40
60
18
06
00
00
ENDCHAR

STARTCHAR uni0541
ENCODING 1345
SWIDTH 568 0
DWIDTH 8 0
BBX 8 13 0 -2
BITMAP
00
00
3C
42
42
42
02
02
3C
44
3A
00
00
ENDCHAR

STARTCHAR uni0542
ENCODING 1346
SWIDTH 568 0
DWIDTH 8 0
BBX 8 13 0 -2
BITMAP
00
00
70
88
88
88
08
08
08
08
0C
02
00
ENDCHAR

STARTCHAR uni0543
ENCODING 1347
SWIDTH 568 0
DWIDTH 8 0
BBX 8 13 0 -2
BITMAP
00
00
CC
32
10
28
44
44
82
82
FE
00
00
ENDCHAR

STARTCHAR uni0544
ENCODING 1348
SWIDTH 568 0
DWIDTH 8 0
BBX 8 13 0 -2
BITMAP
00
00
8C
8A
8A
88
88
88
88
88
70
00
00
ENDCHAR

STARTCHAR uni0545
ENCODING 1349
SWIDTH 568 0
DWIDTH 8 0
BBX 8 13 0 -2
BITMAP
00
00
38
44
04
78
84
02
02
84
78
00
00
ENDCHAR

STARTCHAR uni0546
ENCODING 1350
SWIDTH 568 0
DWIDTH 8 0
BBX 8 13 0 -2
BITMAP
00
00
E0
20
20
20
20
22
22
22
1C
00
00
ENDCHAR

STARTCHAR uni0547
ENCODING 1351
SWIDTH 568 0
DWIDTH 8 0
BBX 8 13 0 -2
BITMAP
00
00
60
18
26
40
40
42
42
42
3C
00
00
ENDCHAR

STARTCHAR uni0548
ENCODING 1352
SWIDTH 568 0
DWIDTH 8 0
BBX 8 13 0 -2
BITMAP
00
00
3C
42
42
42
42
42
42
42
42
00
00
ENDCHAR

STARTCHAR uni0549
ENCODING 1353
SWIDTH 568 0
DWIDTH 8 0
BBX 8 13 0 -2
BITMAP
00
00
3C
42
42
42
02
02
64
18
06
00
00
ENDCHAR

STARTCHAR uni054A
ENCODING 1354
SWIDTH 568 0
DWIDTH 8 0
BBX 8 13 0 -2
BITMAP
00
00
7C
92
92
92
12
12
02
02
02
00
00
ENDCHAR

STARTCHAR uni054B
ENCODING 1355
SWIDTH 568 0
DWIDTH 8 0
BBX 8 13 0 -2
BITMAP
00
00
38
44
42
22
12
0C
08
7C
22
00
00
ENDCHAR

STARTCHAR uni054C
ENCODING 1356
SWIDTH 568 0
DWIDTH 8 0
BBX 8 13 0 -2
BITMAP
00
00
70
88
88
8C
8A
8A
88
88
88
00
00
ENDCHAR

STARTCHAR uni054D
ENCODING 1357
SWIDTH 568 0
DWIDTH 8 0
BBX 8 13 0 -2
BITMAP
00
00
42
42
42
42
42
42
42
42
3C
00
00
ENDCHAR

STARTCHAR uni054E
ENCODING 1358
SWIDTH 568 0
DWIDTH 8 0
BBX 8 13 0 -2
BITMAP
00
00
08
08
88
88
88
78
08
08
0C
02
02
ENDCHAR

STARTCHAR uni054F
ENCODING 1359
SWIDTH 568 0
DWIDTH 8 0
BBX 8 13 0 -2
BITMAP
00
00
3C
42
40
40
3C
02
02
42
3C
00
00
ENDCHAR

STARTCHAR uni0550
ENCODING 1360
SWIDTH 568 0
DWIDTH 8 0
BBX 8 13 0 -2
BITMAP
00
00
3C
42
42
40
40
40
40
40
40
00
00
ENDCHAR

STARTCHAR uni0551
ENCODING 1361
SWIDTH 568 0
DWIDTH 8 0
BBX 8 13 0 -2
BITMAP
00
00
38
44
44
38
C4
02
02
82
7C
00
00
ENDCHAR

STARTCHAR uni0552
ENCODING 1362
SWIDTH 568 0
DWIDTH 8 0
BBX 8 13 0 -2
BITMAP
00
00
40
40
40
78
44
40
40
40
40
00
00
ENDCHAR

STARTCHAR uni0553
ENCODING 1363
SWIDTH 568 0
DWIDTH 8 0
BBX 8 13 0 -2
BITMAP
00
00
10
7C
92
92
92
92
92
7C
10
00
00
ENDCHAR

STARTCHAR uni0554
ENCODING 1364
SWIDTH 568 0
DWIDTH 8 0
BBX 8 13 0 -2
BITMAP
00
00
1C
22
22
22
22
3C
A0
7C
22
00
00
ENDCHAR

STARTCHAR uni0555
ENCODING 1365
SWIDTH 568 0
DWIDTH 8 0
BBX 8 13 0 -2
BITMAP
00
00
38
44
82
82
82
82
82
44
38
00
00
ENDCHAR

STARTCHAR uni0556
ENCODING 1366
SWIDTH 568 0
DWIDTH 8 0
BBX 8 13 0 -2
BITMAP
00
00
60
90
90
7C
12
12
92
92
7C
00
00
ENDCHAR

STARTCHAR uni0559
ENCODING 1369
SWIDTH 568 0
DWIDTH 8 0
BBX 8 13 0 -2
BITMAP
00
20
40
40
20
00
00
00
00
00
00
00
00
ENDCHAR

STARTCHAR uni055A
ENCODING 1370
SWIDTH 568 0
DWIDTH 8 0
BBX 8 13 0 -2
BITMAP
00
20
10
10
20
00
00
00
00
00
00
00
00
ENDCHAR

STARTCHAR uni055B
ENCODING 1371
SWIDTH 568 0
DWIDTH 8 0
BBX 8 13 0 -2
BITMAP
00
00
08
10
00
00
00
00
00
00
00
00
00
ENDCHAR

STARTCHAR uni055C
ENCODING 1372
SWIDTH 568 0
DWIDTH 8 0
BBX 8 13 0 -2
BITMAP
00
04
38
40
00
00
00
00
00
00
00
00
00
ENDCHAR

STARTCHAR uni055D
ENCODING 1373
SWIDTH 568 0
DWIDTH 8 0
BBX 8 13 0 -2
BITMAP
00
00
10
08
00
00
00
00
00
00
00
00
00
ENDCHAR

STARTCHAR uni055E
ENCODING 1374
SWIDTH 568 0
DWIDTH 8 0
BBX 8 13 0 -2
BITMAP
00
00
38
44
54
48
00
00
00
00
00
00
00
ENDCHAR

STARTCHAR uni055F
ENCODING 1375
SWIDTH 568 0
DWIDTH 8 0
BBX 8 13 0 -2
BITMAP
00
00
60
44
38
00
00
00
00
00
00
00
00
ENDCHAR

STARTCHAR uni0561
ENCODING 1377
SWIDTH 568 0
DWIDTH 8 0
BBX 8 13 0 -2
BITMAP
00
00
00
00
00
82
92
92
92
92
6E
00
00
ENDCHAR

STARTCHAR uni0562
ENCODING 1378
SWIDTH 568 0
DWIDTH 8 0
BBX 8 13 0 -2
BITMAP
00
00
00
00
00
3C
42
42
42
40
7E
40
40
ENDCHAR

STARTCHAR uni0563
ENCODING 1379
SWIDTH 568 0
DWIDTH 8 0
BBX 8 13 0 -2
BITMAP
00
00
00
00
00
34
4C
44
44
44
3E
04
04
ENDCHAR

STARTCHAR uni0564
ENCODING 1380
SWIDTH 568 0
DWIDTH 8 0
BBX 8 13 0 -2
BITMAP
00
00
00
00
00
58
64
44
44
44
46
04
04
ENDCHAR

STARTCHAR uni0565
ENCODING 1381
SWIDTH 568 0
DWIDTH 8 0
BBX 8 13 0 -2
BITMAP
00
00
40
40
40
7E
40
42
42
46
3A
00
00
ENDCHAR

STARTCHAR uni0566
ENCODING 1382
SWIDTH 568 0
DWIDTH 8 0
BBX 8 13 0 -2
BITMAP
00
00
00
00
00
34
4C
44
44
4C
34
04
06
ENDCHAR

STARTCHAR uni0567
ENCODING 1383
SWIDTH 568 0
DWIDTH 8 0
BBX 8 13 0 -2
BITMAP
00
00
40
40
7C
40
40
40
40
40
3C
02
04
ENDCHAR

STARTCHAR uni0568
ENCODING 1384
SWIDTH 568 0
DWIDTH 8 0
BBX 8 13 0 -2
BITMAP
00
00
00
00
00
5C
62
42
42
42
42
40
7E
ENDCHAR

STARTCHAR uni0569
ENCODING 1385
SWIDTH 568 0
DWIDTH 8 0
BBX 8 13 0 -2
BITMAP
00
00
00
00
00
58
64
44
4E
54
48
40
40
ENDCHAR

STARTCHAR uni056A
ENCODING 1386
SWIDTH 568 0
DWIDTH 8 0
BBX 8 13 0 -2
BITMAP
00
00
04
04
04
3E
44
44
44
44
38
00
00
ENDCHAR

STARTCHAR uni056B
ENCODING 1387
SWIDTH 568 0
DWIDTH 8 0
BBX 8 13 0 -2
BITMAP
00
00
40
40
40
58
64
44
44
44
44
40
40
ENDCHAR

STARTCHAR uni056C
ENCODING 1388
SWIDTH 568 0
DWIDTH 8 0
BBX 8 13 0 -2
BITMAP
00
00
00
00
00
30
10
10
10
10
10
10
0C
ENDCHAR

STARTCHAR uni056D
ENCODING 1389
SWIDTH 568 0
DWIDTH 8 0
BBX 8 13 0 -2
BITMAP
00
00
40
40
40
40
72
52
52
52
4E
40
40
ENDCHAR

STARTCHAR uni056E
ENCODING 1390
SWIDTH 568 0
DWIDTH 8 0
BBX 8 13 0 -2
BITMAP
00
00
00
70
08
04
3E
44
44
44
38
00
00
ENDCHAR

STARTCHAR uni056F
ENCODING 1391
SWIDTH 568 0
DWIDTH 8 0
BBX 8 13 0 -2
BITMAP
00
00
40
40
40
40
42
42
42
46
3A
02
02
ENDCHAR

STARTCHAR uni0570
ENCODING 1392
SWIDTH 568 0
DWIDTH 8 0
BBX 8 13 0 -2
BITMAP
00
00
40
40
40
5C
62
42
42
42
42
00
00
ENDCHAR

STARTCHAR uni0571
ENCODING 1393
SWIDTH 568 0
DWIDTH 8 0
BBX 8 13 0 -2
BITMAP
00
00
08
10
08
3C
42
42
42
46
3A
00
00
ENDCHAR

STARTCHAR uni0572
ENCODING 1394
SWIDTH 568 0
DWIDTH 8 0
BBX 8 13 0 -2
BITMAP
00
00
00
00
00
58
64
44
44
44
44
04
06
ENDCHAR

STARTCHAR uni0573
ENCODING 1395
SWIDTH 568 0
DWIDTH 8 0
BBX 8 13 0 -2
BITMAP
00
00
1C
22
20
7C
22
22
22
26
3A
00
00
ENDCHAR

STARTCHAR uni0574
ENCODING 1396
SWIDTH 568 0
DWIDTH 8 0
BBX 8 13 0 -2
BITMAP
00
00
04
0A
08
44
44
44
44
4C
34
00
00
ENDCHAR

STARTCHAR uni0575
ENCODING 1397
SWIDTH 568 0
DWIDTH 8 0
BBX 8 13 0 -2
BITMAP
00
00
00
00
00
0C
04
04
04
04
04
04
38
ENDCHAR

STARTCHAR uni0576
ENCODING 1398
SWIDTH 568 0
DWIDTH 8 0
BBX 8 13 0 -2
BITMAP
00
00
30
40
40
22
22
22
22
26
1A
00
00
ENDCHAR

STARTCHAR uni0577
ENCODING 1399
SWIDTH 568 0
DWIDTH 8 0
BBX 8 13 0 -2
BITMAP
00
00
00
00
00
38
44
04
08
10
20
40
3C
ENDCHAR

STARTCHAR uni0578
ENCODING 1400
SWIDTH 568 0
DWIDTH 8 0
BBX 8 13 0 -2
BITMAP
00
00
00
00
00
5C
62
42
42
42
42
00
00
ENDCHAR

STARTCHAR uni0579
ENCODING 1401
SWIDTH 568 0
DWIDTH 8 0
BBX 8 13 0 -2
BITMAP
00
00
00
00
10
20
10
08
10
20
40
40
3E
ENDCHAR

STARTCHAR uni057A
ENCODING 1402
SWIDTH 568 0
DWIDTH 8 0
BBX 8 13 0 -2
BITMAP
00
00
00
00
00
82
92
92
92
92
6E
02
02
ENDCHAR

STARTCHAR uni057B
ENCODING 1403
SWIDTH 568 0
DWIDTH 8 0
BBX 8 13 0 -2
BITMAP
00
00
00
00
00
3C
42
42
42
34
08
10
1E
ENDCHAR

STARTCHAR uni057C
ENCODING 1404
SWIDTH 568 0
DWIDTH 8 0
BBX 8 13 0 -2
BITMAP
00
00
00
00
00
5C
62
42
44
48
5C
00
00
ENDCHAR

STARTCHAR uni057D
ENCODING 1405
SWIDTH 568 0
DWIDTH 8 0
BBX 8 13 0 -2
BITMAP
00
00
00
00
00
42
42
42
42
46
3A
00
00
ENDCHAR

STARTCHAR uni057E
ENCODING 1406
SWIDTH 568 0
DWIDTH 8 0
BBX 8 13 0 -2
BITMAP
00
00
04
04
04
44
44
44
44
4C
34
04
06
ENDCHAR

STARTCHAR uni057F
ENCODING 1407
SWIDTH 568 0
DWIDTH 8 0
BBX 8 13 0 -2
BITMAP
00
00
00
00
00
94
9A
92
92
B2
52
10
10
ENDCHAR

STARTCHAR uni0580
ENCODING 1408
SWIDTH 568 0
DWIDTH 8 0
BBX 8 13 0 -2
BITMAP
00
00
00
00
5C
62
42
42
42
42
42
40
40
ENDCHAR

STARTCHAR uni0581
ENCODING 1409
SWIDTH 568 0
DWIDTH 8 0
BBX 8 13 0 -2
BITMAP
00
00
00
00
00
3C
42
42
42
3E
02
42
3C
ENDCHAR

STARTCHAR uni0582
ENCODING 1410
SWIDTH 568 0
DWIDTH 8 0
BBX 8 13 0 -2
BITMAP
00
00
00
00
00
30
10
10
10
10
0C
00
00
ENDCHAR

STARTCHAR uni0583
ENCODING 1411
SWIDTH 568 0
DWIDTH 8 0
BBX 8 13 0 -2
BITMAP
00
00
10
10
10
94
9A
92
92
B2
52
10
10
ENDCHAR

STARTCHAR uni0584
ENCODING 1412
SWIDTH 568 0
DWIDTH 8 0
BBX 8 13 0 -2
BITMAP
00
00
1C
22
20
20
7C
20
20
20
20
00
00
ENDCHAR

STARTCHAR uni0585
ENCODING 1413
SWIDTH 568 0
DWIDTH 8 0
BBX 8 13 0 -2
BITMAP
00
00
00
00
00
3C
42
42
42
42
3C
00
00
ENDCHAR

STARTCHAR uni0586
ENCODING 1414
SWIDTH 568 0
DWIDTH 8 0
BBX 8 13 0 -2
BITMAP
00
00
70
90
90
7C
12
92
92
92
7C
10
10
ENDCHAR

STARTCHAR uni0587
ENCODING 1415
SWIDTH 568 0
DWIDTH 8 0
BBX 8 13 0 -2
BITMAP
00
00
40
40
40
44
44
44
44
44
3A
00
00
ENDCHAR

STARTCHAR uni0589
ENCODING 1417
SWIDTH 568 0
DWIDTH 8 0
BBX 8 13 0 -2
BITMAP
00
00
00
00
18
18
00
18
18
00
00
00
00
ENDCHAR

STARTCHAR uni058A
ENCODING 1418
SWIDTH 568 0
DWIDTH 8 0
BBX 8 13 0 -2
BITMAP
00
00
00
00
00
00
60
44
38
00
00
00
00
ENDCHAR

STARTCHAR afii57799
ENCODING 1456
SWIDTH 568 0
DWIDTH 8 0
BBX 8 13 0 -2
BITMAP
00
00
00
00
00
00
00
00
00
00
10
00
10
ENDCHAR

STARTCHAR afii57801
ENCODING 1457
SWIDTH 568 0
DWIDTH 8 0
BBX 8 13 0 -2
BITMAP
00
00
00
00
00
00
00
00
00
00
DB
00
33
ENDCHAR

STARTCHAR afii57800
ENCODING 1458
SWIDTH 568 0
DWIDTH 8 0
BBX 8 13 0 -2
BITMAP
00
00
00
00
00
00
00
00
00
00
76
00
06
ENDCHAR

STARTCHAR afii57802
ENCODING 1459
SWIDTH 568 0
DWIDTH 8 0
BBX 8 13 0 -2
BITMAP
00
00
00
00
00
00
00
00
00
00
76
20
26
ENDCHAR

STARTCHAR afii57793
ENCODING 1460
SWIDTH 568 0
DWIDTH 8 0
BBX 8 13 0 -2
BITMAP
00
00
00
00
00
00
00
00
00
00
00
30
00
ENDCHAR

STARTCHAR afii57794
ENCODING 1461
SWIDTH 568 0
DWIDTH 8 0
BBX 8 13 0 -2
BITMAP
00
00
00
00
00
00
00
00
00
00
00
6C
00
ENDCHAR

STARTCHAR afii57795
ENCODING 1462
SWIDTH 568 0
DWIDTH 8 0
BBX 8 13 0 -2
BITMAP
00
00
00
00
00
00
00
00
00
00
CC
00
30
ENDCHAR

STARTCHAR afii57798
ENCODING 1463
SWIDTH 568 0
DWIDTH 8 0
BBX 8 13 0 -2
BITMAP
00
00
00
00
00
00
00
00
00
00
00
78
00
ENDCHAR

STARTCHAR afii57797
ENCODING 1464
SWIDTH 568 0
DWIDTH 8 0
BBX 8 13 0 -2
BITMAP
00
00
00
00
00
00
00
00
00
00
7C
10
10
ENDCHAR

STARTCHAR afii57806
ENCODING 1465
SWIDTH 568 0
DWIDTH 8 0
BBX 8 13 0 -2
BITMAP
00
00
00
10
00
00
00
00
00
00
00
00
00
ENDCHAR

STARTCHAR afii57796
ENCODING 1467
SWIDTH 568 0
DWIDTH 8 0
BBX 8 13 0 -2
BITMAP
00
00
00
00
00
00
00
00
00
00
40
10
04
ENDCHAR

STARTCHAR afii57807
ENCODING 1468
SWIDTH 568 0
DWIDTH 8 0
BBX 8 13 0 -2
BITMAP
00
00
00
00
00
00
10
00
00
00
00
00
00
ENDCHAR

STARTCHAR afii57839
ENCODING 1469
SWIDTH 568 0
DWIDTH 8 0
BBX 8 13 0 -2
BITMAP
00
00
00
00
00
00
00
00
00
00
00
10
10
ENDCHAR

STARTCHAR afii57645
ENCODING 1470
SWIDTH 568 0
DWIDTH 8 0
BBX 8 13 0 -2
BITMAP
00
00
3E
7C
00
00
00
00
00
00
00
00
00
ENDCHAR

STARTCHAR afii57841
ENCODING 1471
SWIDTH 568 0
DWIDTH 8 0
BBX 8 13 0 -2
BITMAP
00
3C
00
00
00
00
00
00
00
00
00
00
00
ENDCHAR

STARTCHAR afii57842
ENCODING 1472
SWIDTH 568 0
DWIDTH 8 0
BBX 8 13 0 -2
BITMAP
00
00
00
00
00
10
10
10
10
10
10
00
00
ENDCHAR

STARTCHAR afii57804
ENCODING 1473
SWIDTH 568 0
DWIDTH 8 0
BBX 8 13 0 -2
BITMAP
00
00
00
0C
00
00
00
00
00
00
00
00
00
ENDCHAR

STARTCHAR afii57803
ENCODING 1474
SWIDTH 568 0
DWIDTH 8 0
BBX 8 13 0 -2
BITMAP
00
00
00
60
00
00
00
00
00
00
00
00
00
ENDCHAR

STARTCHAR afii57658
ENCODING 1475
SWIDTH 568 0
DWIDTH 8 0
BBX 8 13 0 -2
BITMAP
00
00
00
00
00
10
10
00
00
10
10
00
00
ENDCHAR

STARTCHAR uni05C4
ENCODING 1476
SWIDTH 568 0
DWIDTH 8 0
BBX 8 13 0 -2
BITMAP
00
00
00
18
00
00
00
00
00
00
00
00
00
ENDCHAR

STARTCHAR afii57664
ENCODING 1488
SWIDTH 568 0
DWIDTH 8 0
BBX 8 13 0 -2
BITMAP
00
00
00
00
44
22
12
2C
44
42
62
00
00
ENDCHAR

STARTCHAR afii57665
ENCODING 1489
SWIDTH 568 0
DWIDTH 8 0
BBX 8 13 0 -2
BITMAP
00
00
00
00
7C
04
04
04
04
04
7E
00
00
ENDCHAR

STARTCHAR afii57666
ENCODING 1490
SWIDTH 568 0
DWIDTH 8 0
BBX 8 13 0 -2
BITMAP
00
00
00
00
30
08
08
04
0C
12
62
00
00
ENDCHAR

STARTCHAR afii57667
ENCODING 1491
SWIDTH 568 0
DWIDTH 8 0
BBX 8 13 0 -2
BITMAP
00
00
00
00
7E
04
04
04
04
04
04
00
00
ENDCHAR

STARTCHAR afii57668
ENCODING 1492
SWIDTH 568 0
DWIDTH 8 0
BBX 8 13 0 -2
BITMAP
00
00
00
00
7E
02
02
22
22
22
22
00
00
ENDCHAR

STARTCHAR afii57669
ENCODING 1493
SWIDTH 568 0
DWIDTH 8 0
BBX 8 13 0 -2
BITMAP
00
00
00
00
18
08
08
08
08
08
08
00
00
ENDCHAR

STARTCHAR afii57670
ENCODING 1494
SWIDTH 568 0
DWIDTH 8 0
BBX 8 13 0 -2
BITMAP
00
00
00
00
7C
10
10
08
08
08
08
00
00
ENDCHAR

STARTCHAR afii57671
ENCODING 1495
SWIDTH 568 0
DWIDTH 8 0
BBX 8 13 0 -2
BITMAP
00
00
00
00
7E
22
22
22
22
22
22
00
00
ENDCHAR

STARTCHAR afii57672
ENCODING 1496
SWIDTH 568 0
DWIDTH 8 0
BBX 8 13 0 -2
BITMAP
00
00
00
00
46
4A
42
42
42
44
78
00
00
ENDCHAR

STARTCHAR afii57673
ENCODING 1497
SWIDTH 568 0
DWIDTH 8 0
BBX 8 13 0 -2
BITMAP
00
00
00
00
18
08
08
08
00
00
00
00
00
ENDCHAR

STARTCHAR afii57674
ENCODING 1498
SWIDTH 568 0
DWIDTH 8 0
BBX 8 13 0 -2
BITMAP
00
00
00
00
7E
02
02
02
02
02
02
02
02
ENDCHAR

STARTCHAR afii57675
ENCODING 1499
SWIDTH 568 0
DWIDTH 8 0
BBX 8 13 0 -2
BITMAP
00
00
00
00
7E
02
02
02
02
04
78
00
00
ENDCHAR

STARTCHAR afii57676
ENCODING 1500
SWIDTH 568 0
DWIDTH 8 0
BBX 8 13 0 -2
BITMAP
00
00
40
40
7E
02
02
02
04
08
30
00
00
ENDCHAR

STARTCHAR afii57677
ENCODING 1501
SWIDTH 568 0
DWIDTH 8 0
BBX 8 13 0 -2
BITMAP
00
00
00
00
7E
22
22
22
22
22
3E
00
00
ENDCHAR

STARTCHAR afii57678
ENCODING 1502
SWIDTH 568 0
DWIDTH 8 0
BBX 8 13 0 -2
BITMAP
00
00
00
00
4C
52
22
42
42
42
5E
00
00
ENDCHAR

STARTCHAR afii57679
ENCODING 1503
SWIDTH 568 0
DWIDTH 8 0
BBX 8 13 0 -2
BITMAP
00
00
00
00
18
08
08
08
08
08
08
08
08
ENDCHAR

STARTCHAR afii57680
ENCODING 1504
SWIDTH 568 0
DWIDTH 8 0
BBX 8 13 0 -2
BITMAP
00
00
00
00
06
02
02
02
02
02
3E
00
00
ENDCHAR

STARTCHAR afii57681
ENCODING 1505
SWIDTH 568 0
DWIDTH 8 0
BBX 8 13 0 -2
BITMAP
00
00
00
00
7E
22
22
22
22
24
38
00
00
ENDCHAR

STARTCHAR afii57682
ENCODING 1506
SWIDTH 568 0
DWIDTH 8 0
BBX 8 13 0 -2
BITMAP
00
00
00
00
66
22
22
22
22
24
78
00
00
ENDCHAR

STARTCHAR afii57683
ENCODING 1507
SWIDTH 568 0
DWIDTH 8 0
BBX 8 13 0 -2
BITMAP
00
00
00
00
7E
22
22
22
02
02
02
02
02
ENDCHAR

STARTCHAR afii57684
ENCODING 1508
SWIDTH 568 0
DWIDTH 8 0
BBX 8 13 0 -2
BITMAP
00
00
00
00
7E
22
22
22
02
04
78
00
00
ENDCHAR

STARTCHAR afii57685
ENCODING 1509
SWIDTH 568 0
DWIDTH 8 0
BBX 8 13 0 -2
BITMAP
00
00
00
00
44
22
22
22
24
38
20
20
20
ENDCHAR

STARTCHAR afii57686
ENCODING 1510
SWIDTH 568 0
DWIDTH 8 0
BBX 8 13 0 -2
BITMAP
00
00
00
00
44
22
12
0C
04
02
7E
00
00
ENDCHAR

STARTCHAR afii57687
ENCODING 1511
SWIDTH 568 0
DWIDTH 8 0
BBX 8 13 0 -2
BITMAP
00
00
00
00
7E
02
02
42
42
44
58
40
40
ENDCHAR

STARTCHAR afii57688
ENCODING 1512
SWIDTH 568 0
DWIDTH 8 0
BBX 8 13 0 -2
BITMAP
00
00
00
00
7E
02
02
02
02
02
02
00
00
ENDCHAR

STARTCHAR afii57689
ENCODING 1513
SWIDTH 568 0
DWIDTH 8 0
BBX 8 13 0 -2
BITMAP
00
00
00
00
49
49
49
49
71
42
7C
00
00
ENDCHAR

STARTCHAR afii57690
ENCODING 1514
SWIDTH 568 0
DWIDTH 8 0
BBX 8 13 0 -2
BITMAP
00
00
00
00
7E
22
22
22
22
22
62
00
00
ENDCHAR

STARTCHAR afii57716
ENCODING 1520
SWIDTH 568 0
DWIDTH 8 0
BBX 8 13 0 -2
BITMAP
00
00
00
00
66
22
22
22
22
22
22
00
00
ENDCHAR

STARTCHAR afii57717
ENCODING 1521
SWIDTH 568 0
DWIDTH 8 0
BBX 8 13 0 -2
BITMAP
00
00
00
00
66
22
22
02
02
02
02
00
00
ENDCHAR

STARTCHAR afii57718
ENCODING 1522
SWIDTH 568 0
DWIDTH 8 0
BBX 8 13 0 -2
BITMAP
00
00
00
00
66
22
22
00
00
00
00
00
00
ENDCHAR

STARTCHAR uni05F3
ENCODING 1523
SWIDTH 568 0
DWIDTH 8 0
BBX 8 13 0 -2
BITMAP
00
00
00
00
08
10
00
00
00
00
00
00
00
ENDCHAR

STARTCHAR uni05F4
ENCODING 1524
SWIDTH 568 0
DWIDTH 8 0
BBX 8 13 0 -2
BITMAP
00
00
00
00
24
48
00
00
00
00
00
00
00
ENDCHAR

STARTCHAR uni0E01
ENCODING 3585
SWIDTH 568 0
DWIDTH 8 0
BBX 8 13 0 -2
BITMAP
00
00
00
00
00
3C
42
62
22
22
22
00
00
ENDCHAR

STARTCHAR uni0E02
ENCODING 3586
SWIDTH 568 0
DWIDTH 8 0
BBX 8 13 0 -2
BITMAP
00
00
00
00
00
74
74
14
64
44
38
00
00
ENDCHAR

STARTCHAR uni0E03
ENCODING 3587
SWIDTH 568 0
DWIDTH 8 0
BBX 8 13 0 -2
BITMAP
00
00
00
00
00
4A
7A
0A
32
22
1C
00
00
ENDCHAR

STARTCHAR uni0E04
ENCODING 3588
SWIDTH 568 0
DWIDTH 8 0
BBX 8 13 0 -2
BITMAP
00
00
00
00
00
3C
42
5A
5A
52
32
00
00
ENDCHAR

STARTCHAR uni0E05
ENCODING 3589
SWIDTH 568 0
DWIDTH 8 0
BBX 8 13 0 -2
BITMAP
00
00
00
00
00
34
4A
5A
5A
52
32
00
00
ENDCHAR

STARTCHAR uni0E06
ENCODING 3590
SWIDTH 568 0
DWIDTH 8 0
BBX 8 13 0 -2
BITMAP
00
00
00
00
00
52
72
12
22
72
6C
00
00
ENDCHAR

STARTCHAR uni0E07
ENCODING 3591
SWIDTH 568 0
DWIDTH 8 0
BBX 8 13 0 -2
BITMAP
00
00
00
00
00
0C
0C
44
24
24
1C
00
00
ENDCHAR

STARTCHAR uni0E08
ENCODING 3592
SWIDTH 568 0
DWIDTH 8 0
BBX 8 13 0 -2
BITMAP
00
00
00
00
00
3C
42
1A
1A
0A
0C
00
00
ENDCHAR

STARTCHAR uni0E09
ENCODING 3593
SWIDTH 568 0
DWIDTH 8 0
BBX 8 13 0 -2
BITMAP
00
00
00
00
00
78
04
64
64
2E
36
00
00
ENDCHAR

STARTCHAR uni0E0A
ENCODING 3594
SWIDTH 568 0
DWIDTH 8 0
BBX 8 13 0 -2
BITMAP
00
00
00
00
04
64
68
24
44
44
38
00
00
ENDCHAR

STARTCHAR uni0E0B
ENCODING 3595
SWIDTH 568 0
DWIDTH 8 0
BBX 8 13 0 -2
BITMAP
00
00
00
00
02
52
74
12
22
22
1C
00
00
ENDCHAR

STARTCHAR uni0E0C
ENCODING 3596
SWIDTH 568 0
DWIDTH 8 0
BBX 8 13 0 -2
BITMAP
00
00
00
00
00
39
45
25
45
6F
6D
00
00
ENDCHAR

STARTCHAR uni0E0D
ENCODING 3597
SWIDTH 568 0
DWIDTH 8 0
BBX 8 13 0 -2
BITMAP
00
00
00
00
00
32
4A
2A
4E
68
6E
00
00
ENDCHAR

STARTCHAR uni0E0E
ENCODING 3598
SWIDTH 568 0
DWIDTH 8 0
BBX 8 13 0 -2
BITMAP
00
00
00
00
00
3C
42
22
22
62
6A
12
2E
ENDCHAR

STARTCHAR uni0E0F
ENCODING 3599
SWIDTH 568 0
DWIDTH 8 0
BBX 8 13 0 -2
BITMAP
00
00
00
00
00
3C
42
22
22
62
6A
1E
2A
ENDCHAR

STARTCHAR uni0E10
ENCODING 3600
SWIDTH 568 0
DWIDTH 8 0
BBX 8 13 0 -2
BITMAP
00
00
00
00
00
3E
40
3C
32
32
0C
2A
56
ENDCHAR

STARTCHAR uni0E11
ENCODING 3601
SWIDTH 568 0
DWIDTH 8 0
BBX 8 13 0 -2
BITMAP
00
00
00
00
00
54
7A
12
22
22
22
00
00
ENDCHAR

STARTCHAR uni0E12
ENCODING 3602
SWIDTH 568 0
DWIDTH 8 0
BBX 8 13 0 -2
BITMAP
00
00
00
00
00
29
55
45
75
5F
6D
00
00
ENDCHAR

STARTCHAR uni0E13
ENCODING 3603
SWIDTH 568 0
DWIDTH 8 0
BBX 8 13 0 -2
BITMAP
00
00
00
00
00
32
4A
2A
4A
6F
6B
00
00
ENDCHAR

STARTCHAR uni0E14
ENCODING 3604
SWIDTH 568 0
DWIDTH 8 0
BBX 8 13 0 -2
BITMAP
00
00
00
00
00
3C
42
5A
5A
4A
32
00
00
ENDCHAR

STARTCHAR uni0E15
ENCODING 3605
SWIDTH 568 0
DWIDTH 8 0
BBX 8 13 0 -2
BITMAP
00
00
00
00
00
34
4A
5A
5A
4A
32
00
00
ENDCHAR

STARTCHAR uni0E16
ENCODING 3606
SWIDTH 568 0
DWIDTH 8 0
BBX 8 13 0 -2
BITMAP
00
00
00
00
00
3C
42
62
22
32
32
00
00
ENDCHAR

STARTCHAR uni0E17
ENCODING 3607
SWIDTH 568 0
DWIDTH 8 0
BBX 8 13 0 -2
BITMAP
00
00
00
00
00
64
6A
32
22
22
22
00
00
ENDCHAR

STARTCHAR uni0E18
ENCODING 3608
SWIDTH 568 0
DWIDTH 8 0
BBX 8 13 0 -2
BITMAP
00
00
00
00
00
3E
40
7C
22
22
1C
00
00
ENDCHAR

STARTCHAR uni0E19
ENCODING 3609
SWIDTH 568 0
DWIDTH 8 0
BBX 8 13 0 -2
BITMAP
00
00
00
00
00
64
64
24
44
4E
36
00
00
ENDCHAR

STARTCHAR uni0E1A
ENCODING 3610
SWIDTH 568 0
DWIDTH 8 0
BBX 8 13 0 -2
BITMAP
00
00
00
00
00
62
62
22
22
22
1C
00
00
ENDCHAR

STARTCHAR uni0E1B
ENCODING 3611
SWIDTH 568 0
DWIDTH 8 0
BBX 8 13 0 -2
BITMAP
00
00
00
02
02
62
62
22
22
22
1C
00
00
ENDCHAR

STARTCHAR uni0E1C
ENCODING 3612
SWIDTH 568 0
DWIDTH 8 0
BBX 8 13 0 -2
BITMAP
00
00
00
00
00
62
62
42
4A
4A
34
00
00
ENDCHAR

STARTCHAR uni0E1D
ENCODING 3613
SWIDTH 568 0
DWIDTH 8 0
BBX 8 13 0 -2
BITMAP
00
00
00
02
02
62
62
42
4A
4A
34
00
00
ENDCHAR

STARTCHAR uni0E1E
ENCODING 3614
SWIDTH 568 0
DWIDTH 8 0
BBX 8 13 0 -2
BITMAP
00
00
00
00
00
6A
6A
2A
2A
2A
14
00
00
ENDCHAR

STARTCHAR uni0E1F
ENCODING 3615
SWIDTH 568 0
DWIDTH 8 0
BBX 8 13 0 -2
BITMAP
00
00
00
02
02
6A
6A
2A
2A
2A
14
00
00
ENDCHAR

STARTCHAR uni0E20
ENCODING 3616
SWIDTH 568 0
DWIDTH 8 0
BBX 8 13 0 -2
BITMAP
00
00
00
00
00
3C
42
62
22
62
62
00
00
ENDCHAR

STARTCHAR uni0E21
ENCODING 3617
SWIDTH 568 0
DWIDTH 8 0
BBX 8 13 0 -2
BITMAP
00
00
00
00
00
62
62
22
22
72
6C
00
00
ENDCHAR

STARTCHAR uni0E22
ENCODING 3618
SWIDTH 568 0
DWIDTH 8 0
BBX 8 13 0 -2
BITMAP
00
00
00
00
00
62
62
42
32
42
3C
00
00
ENDCHAR

STARTCHAR uni0E23
ENCODING 3619
SWIDTH 568 0
DWIDTH 8 0
BBX 8 13 0 -2
BITMAP
00
00
00
00
00
3C
42
78
04
0C
0C
00
00
ENDCHAR

STARTCHAR uni0E24
ENCODING 3620
SWIDTH 568 0
DWIDTH 8 0
BBX 8 13 0 -2
BITMAP
00
00
00
00
00
3C
42
62
22
32
32
02
02
ENDCHAR

STARTCHAR uni0E25
ENCODING 3621
SWIDTH 568 0
DWIDTH 8 0
BBX 8 13 0 -2
BITMAP
00
00
00
00
00
3C
42
1A
26
32
32
00
00
ENDCHAR

STARTCHAR uni0E26
ENCODING 3622
SWIDTH 568 0
DWIDTH 8 0
BBX 8 13 0 -2
BITMAP
00
00
00
00
00
3C
42
62
22
62
62
02
02
ENDCHAR

STARTCHAR uni0E27
ENCODING 3623
SWIDTH 568 0
DWIDTH 8 0
BBX 8 13 0 -2
BITMAP
00
00
00
00
00
3C
42
02
02
06
06
00
00
ENDCHAR

STARTCHAR uni0E28
ENCODING 3624
SWIDTH 568 0
DWIDTH 8 0
BBX 8 13 0 -2
BITMAP
00
00
00
02
02
3C
42
5A
5A
52
32
00
00
ENDCHAR

STARTCHAR uni0E29
ENCODING 3625
SWIDTH 568 0
DWIDTH 8 0
BBX 8 13 0 -2
BITMAP
00
00
00
00
00
62
62
2A
2E
22
1C
00
00
ENDCHAR

STARTCHAR uni0E2A
ENCODING 3626
SWIDTH 568 0
DWIDTH 8 0
BBX 8 13 0 -2
BITMAP
00
00
00
02
02
3C
42
1A
26
32
32
00
00
ENDCHAR

STARTCHAR uni0E2B
ENCODING 3627
SWIDTH 568 0
DWIDTH 8 0
BBX 8 13 0 -2
BITMAP
00
00
00
00
00
66
66
24
2A
32
22
00
00
ENDCHAR

STARTCHAR uni0E2C
ENCODING 3628
SWIDTH 568 0
DWIDTH 8 0
BBX 8 13 0 -2
BITMAP
00
00
00
02
02
6C
62
2A
2A
2A
14
00
00
ENDCHAR

STARTCHAR uni0E2D
ENCODING 3629
SWIDTH 568 0
DWIDTH 8 0
BBX 8 13 0 -2
BITMAP
00
00
00
00
00
3C
42
32
32
22
1C
00
00
ENDCHAR

STARTCHAR uni0E2E
ENCODING 3630
SWIDTH 568 0
DWIDTH 8 0
BBX 8 13 0 -2
BITMAP
00
00
00
02
02
3C
7A
32
32
22
1C
00
00
ENDCHAR

STARTCHAR uni0E2F
ENCODING 3631
SWIDTH 568 0
DWIDTH 8 0
BBX 8 13 0 -2
BITMAP
00
00
00
00
00
66
7A
02
02
02
04
00
00
ENDCHAR

STARTCHAR uni0E30
ENCODING 3632
SWIDTH 568 0
DWIDTH 8 0
BBX 8 13 0 -2
BITMAP
00
00
00
00
00
00
64
78
00
64
78
00
00
ENDCHAR

STARTCHAR uni0E31
ENCODING 3633
SWIDTH 568 0
DWIDTH 8 0
BBX 8 13 0 -2
BITMAP
00
00
40
7C
00
00
00
00
00
00
00
00
00
ENDCHAR

STARTCHAR uni0E32
ENCODING 3634
SWIDTH 568 0
DWIDTH 8 0
BBX 8 13 0 -2
BITMAP
00
00
00
00
00
3C
42
02
02
02
02
00
00
ENDCHAR

STARTCHAR uni0E33
ENCODING 3635
SWIDTH 568 0
DWIDTH 8 0
BBX 8 13 0 -2
BITMAP
00
00
00
60
60
1C
22
02
02
02
02
00
00
ENDCHAR

STARTCHAR uni0E34
ENCODING 3636
SWIDTH 568 0
DWIDTH 8 0
BBX 8 13 0 -2
BITMAP
00
00
00
7E
00
00
00
00
00
00
00
00
00
ENDCHAR

STARTCHAR uni0E35
ENCODING 3637
SWIDTH 568 0
DWIDTH 8 0
BBX 8 13 0 -2
BITMAP
00
00
02
7E
00
00
00
00
00
00
00
00
00
ENDCHAR

STARTCHAR uni0E36
ENCODING 3638
SWIDTH 568 0
DWIDTH 8 0
BBX 8 13 0 -2
BITMAP
00
00
06
7E
00
00
00
00
00
00
00
00
00
ENDCHAR

STARTCHAR uni0E37
ENCODING 3639
SWIDTH 568 0
DWIDTH 8 0
BBX 8 13 0 -2
BITMAP
00
00
0A
7E
00
00
00
00
00
00
00
00
00
ENDCHAR

STARTCHAR uni0E38
ENCODING 3640
SWIDTH 568 0
DWIDTH 8 0
BBX 8 13 0 -2
BITMAP
00
00
00
00
00
00
00
00
00
00
00
06
02
ENDCHAR

STARTCHAR uni0E39
ENCODING 3641
SWIDTH 568 0
DWIDTH 8 0
BBX 8 13 0 -2
BITMAP
00
00
00
00
00
00
00
00
00
00
00
1A
0E
ENDCHAR

STARTCHAR uni0E3A
ENCODING 3642
SWIDTH 568 0
DWIDTH 8 0
BBX 8 13 0 -2
BITMAP
00
00
00
00
00
00
00
00
00
00
00
0C
0C
ENDCHAR

STARTCHAR uni0E3F
ENCODING 3647
SWIDTH 568 0
DWIDTH 8 0
BBX 8 13 0 -2
BITMAP
00
00
00
14
7C
56
56
7C
56
56
7C
14
00
ENDCHAR

STARTCHAR uni0E40
ENCODING 3648
SWIDTH 568 0
DWIDTH 8 0
BBX 8 13 0 -2
BITMAP
00
00
00
00
00
10
10
10
10
18
18
00
00
ENDCHAR

STARTCHAR uni0E41
ENCODING 3649
SWIDTH 568 0
DWIDTH 8 0
BBX 8 13 0 -2
BITMAP
00
00
00
00
00
24
24
24
24
36
36
00
00
ENDCHAR

STARTCHAR uni0E42
ENCODING 3650
SWIDTH 568 0
DWIDTH 8 0
BBX 8 13 0 -2
BITMAP
00
00
00
3E
40
7C
04
04
04
06
06
00
00
ENDCHAR

STARTCHAR uni0E43
ENCODING 3651
SWIDTH 568 0
DWIDTH 8 0
BBX 8 13 0 -2
BITMAP
00
00
00
38
44
54
34
04
04
06
06
00
00
ENDCHAR

STARTCHAR uni0E44
ENCODING 3652
SWIDTH 568 0
DWIDTH 8 0
BBX 8 13 0 -2
BITMAP
00
00
00
6C
14
04
04
04
04
06
06
00
00
ENDCHAR

STARTCHAR uni0E45
ENCODING 3653
SWIDTH 568 0
DWIDTH 8 0
BBX 8 13 0 -2
BITMAP
00
00
00
00
00
3C
42
02
02
02
02
02
02
ENDCHAR

STARTCHAR uni0E46
ENCODING 3654
SWIDTH 568 0
DWIDTH 8 0
BBX 8 13 0 -2
BITMAP
00
00
00
00
00
74
6A
02
02
02
02
04
08
ENDCHAR

STARTCHAR uni0E47
ENCODING 3655
SWIDTH 568 0
DWIDTH 8 0
BBX 8 13 0 -2
BITMAP
02
3C
54
2C
00
00
00
00
00
00
00
00
00
ENDCHAR

STARTCHAR uni0E48
ENCODING 3656
SWIDTH 568 0
DWIDTH 8 0
BBX 8 13 0 -2
BITMAP
02
02
00
00
00
00
00
00
00
00
00
00
00
ENDCHAR

STARTCHAR uni0E49
ENCODING 3657
SWIDTH 568 0
DWIDTH 8 0
BBX 8 13 0 -2
BITMAP
34
18
00
00
00
00
00
00
00
00
00
00
00
ENDCHAR

STARTCHAR uni0E4A
ENCODING 3658
SWIDTH 568 0
DWIDTH 8 0
BBX 8 13 0 -2
BITMAP
2A
3C
00
00
00
00
00
00
00
00
00
00
00
ENDCHAR

STARTCHAR uni0E4B
ENCODING 3659
SWIDTH 568 0
DWIDTH 8 0
BBX 8 13 0 -2
BITMAP
02
07
02
00
00
00
00
00
00
00
00
00
00
ENDCHAR

STARTCHAR uni0E4C
ENCODING 3660
SWIDTH 568 0
DWIDTH 8 0
BBX 8 13 0 -2
BITMAP
06
04
00
00
00
00
00
00
00
00
00
00
00
ENDCHAR

STARTCHAR uni0E4D
ENCODING 3661
SWIDTH 568 0
DWIDTH 8 0
BBX 8 13 0 -2
BITMAP
06
06
00
00
00
00
00
00
00
00
00
00
00
ENDCHAR

STARTCHAR uni0E4E
ENCODING 3662
SWIDTH 568 0
DWIDTH 8 0
BBX 8 13 0 -2
BITMAP
07
04
08
0C
00
00
00
00
00
00
00
00
00
ENDCHAR

STARTCHAR uni0E4F
ENCODING 3663
SWIDTH 568 0
DWIDTH 8 0
BBX 8 13 0 -2
BITMAP
00
00
00
00
00
00
38
44
54
44
38
00
00
ENDCHAR

STARTCHAR uni0E50
ENCODING 3664
SWIDTH 568 0
DWIDTH 8 0
BBX 8 13 0 -2
BITMAP
00
00
00
00
00
00
3C
42
42
42
3C
00
00
ENDCHAR

STARTCHAR uni0E51
ENCODING 3665
SWIDTH 568 0
DWIDTH 8 0
BBX 8 13 0 -2
BITMAP
00
00
00
00
00
00
3C
5A
3A
02
3C
00
00
ENDCHAR

STARTCHAR uni0E52
ENCODING 3666
SWIDTH 568 0
DWIDTH 8 0
BBX 8 13 0 -2
BITMAP
00
00
00
00
40
40
4A
56
5A
5A
3C
00
00
ENDCHAR

STARTCHAR uni0E53
ENCODING 3667
SWIDTH 568 0
DWIDTH 8 0
BBX 8 13 0 -2
BITMAP
00
00
00
00
00
00
34
4A
4A
6A
6A
00
00
ENDCHAR

STARTCHAR uni0E54
ENCODING 3668
SWIDTH 568 0
DWIDTH 8 0
BBX 8 13 0 -2
BITMAP
00
00
00
00
02
02
3C
40
4C
4C
3E
00
00
ENDCHAR

STARTCHAR uni0E55
ENCODING 3669
SWIDTH 568 0
DWIDTH 8 0
BBX 8 13 0 -2
BITMAP
00
00
00
00
02
1A
3C
40
4C
4C
3E
00
00
ENDCHAR

STARTCHAR uni0E56
ENCODING 3670
SWIDTH 568 0
DWIDTH 8 0
BBX 8 13 0 -2
BITMAP
00
00
00
00
00
40
2C
12
02
1A
1C
00
00
ENDCHAR

STARTCHAR uni0E57
ENCODING 3671
SWIDTH 568 0
DWIDTH 8 0
BBX 8 13 0 -2
BITMAP
00
00
00
00
02
02
2A
5A
4A
4A
64
00
00
ENDCHAR

STARTCHAR uni0E58
ENCODING 3672
SWIDTH 568 0
DWIDTH 8 0
BBX 8 13 0 -2
BITMAP
00
00
00
00
00
02
3C
40
46
76
2C
00
00
ENDCHAR

STARTCHAR uni0E59
ENCODING 3673
SWIDTH 568 0
DWIDTH 8 0
BBX 8 13 0 -2
BITMAP
00
00
00
00
02
02
0C
38
48
74
32
00
00
ENDCHAR

STARTCHAR uni0E5A
ENCODING 3674
SWIDTH 568 0
DWIDTH 8 0
BBX 8 13 0 -2
BITMAP
00
00
00
00
00
6A
7A
0A
0A
0A
14
00
00
ENDCHAR

STARTCHAR uni0E5B
ENCODING 3675
SWIDTH 568 0
DWIDTH 8 0
BBX 8 13 0 -2
BITMAP
00
00
00
00
00
60
60
56
58
50
20
00
00
ENDCHAR

STARTCHAR uni10A0
ENCODING 4256
SWIDTH 568 0
DWIDTH 8 0
BBX 8 13 0 -2
BITMAP
00
00
7E
10
20
40
40
40
40
42
3C
00
00
ENDCHAR

STARTCHAR uni10A1
ENCODING 4257
SWIDTH 568 0
DWIDTH 8 0
BBX 8 13 0 -2
BITMAP
00
00
88
88
88
98
68
08
08
08
0E
00
00
ENDCHAR

STARTCHAR uni10A2
ENCODING 4258
SWIDTH 568 0
DWIDTH 8 0
BBX 8 13 0 -2
BITMAP
00
F8
88
88
88
08
08
08
08
08
0E
02
02
ENDCHAR

STARTCHAR uni10A3
ENCODING 4259
SWIDTH 568 0
DWIDTH 8 0
BBX 8 13 0 -2
BITMAP
00
00
FE
10
6C
82
82
82
82
82
7C
00
00
ENDCHAR

STARTCHAR uni10A4
ENCODING 4260
SWIDTH 568 0
DWIDTH 8 0
BBX 8 13 0 -2
BITMAP
00
00
7E
42
42
02
02
02
02
02
02
00
00
ENDCHAR

STARTCHAR uni10A5
ENCODING 4261
SWIDTH 568 0
DWIDTH 8 0
BBX 8 13 0 -2
BITMAP
00
00
F8
88
88
0E
0A
0A
08
08
08
00
00
ENDCHAR

STARTCHAR uni10A6
ENCODING 4262
SWIDTH 568 0
DWIDTH 8 0
BBX 8 13 0 -2
BITMAP
00
00
E0
20
20
2C
32
22
22
22
1C
00
00
ENDCHAR

STARTCHAR uni10A7
ENCODING 4263
SWIDTH 568 0
DWIDTH 8 0
BBX 8 13 0 -2
BITMAP
00
00
38
48
88
8E
8A
8A
88
48
38
00
00
ENDCHAR

STARTCHAR uni10A8
ENCODING 4264
SWIDTH 568 0
DWIDTH 8 0
BBX 8 13 0 -2
BITMAP
00
00
7E
02
02
02
02
02
02
02
02
00
00
ENDCHAR

STARTCHAR uni10A9
ENCODING 4265
SWIDTH 568 0
DWIDTH 8 0
BBX 8 13 0 -2
BITMAP
00
00
40
40
58
64
42
26
1A
02
02
00
00
ENDCHAR

STARTCHAR uni10AA
ENCODING 4266
SWIDTH 568 0
DWIDTH 8 0
BBX 8 13 0 -2
BITMAP
00
00
E0
A0
A0
2C
32
22
22
22
1C
00
00
ENDCHAR

STARTCHAR uni10AB
ENCODING 4267
SWIDTH 568 0
DWIDTH 8 0
BBX 8 13 0 -2
BITMAP
00
00
F8
08
08
7E
88
88
88
88
70
00
00
ENDCHAR

STARTCHAR uni10AC
ENCODING 4268
SWIDTH 568 0
DWIDTH 8 0
BBX 8 13 0 -2
BITMAP
00
00
7E
40
40
40
7E
42
42
42
42
00
00
ENDCHAR

STARTCHAR uni10AD
ENCODING 4269
SWIDTH 568 0
DWIDTH 8 0
BBX 8 13 0 -2
BITMAP
00
00
60
90
90
90
90
90
90
92
6E
00
00
ENDCHAR

STARTCHAR uni10AE
ENCODING 4270
SWIDTH 568 0
DWIDTH 8 0
BBX 8 13 0 -2
BITMAP
00
00
E2
22
22
22
22
22
22
22
1C
00
00
ENDCHAR

STARTCHAR uni10AF
ENCODING 4271
SWIDTH 568 0
DWIDTH 8 0
BBX 8 13 0 -2
BITMAP
00
00
E2
22
22
22
26
1A
02
02
02
00
00
ENDCHAR

STARTCHAR uni10B0
ENCODING 4272
SWIDTH 568 0
DWIDTH 8 0
BBX 8 13 0 -2
BITMAP
00
00
08
08
08
0E
0A
8A
88
88
70
00
00
ENDCHAR

STARTCHAR uni10B1
ENCODING 4273
SWIDTH 568 0
DWIDTH 8 0
BBX 8 13 0 -2
BITMAP
00
00
40
40
40
40
40
42
42
42
3C
00
00
ENDCHAR

STARTCHAR uni10B2
ENCODING 4274
SWIDTH 568 0
DWIDTH 8 0
BBX 8 13 0 -2
BITMAP
00
00
7C
42
42
42
7C
40
40
40
7E
00
00
ENDCHAR

STARTCHAR uni10B3
ENCODING 4275
SWIDTH 568 0
DWIDTH 8 0
BBX 8 13 0 -2
BITMAP
00
60
90
90
90
90
90
90
94
9A
62
00
00
ENDCHAR

STARTCHAR uni10B4
ENCODING 4276
SWIDTH 568 0
DWIDTH 8 0
BBX 8 13 0 -2
BITMAP
00
00
7C
92
92
92
7C
10
10
10
10
00
00
ENDCHAR

STARTCHAR uni10B5
ENCODING 4277
SWIDTH 568 0
DWIDTH 8 0
BBX 8 13 0 -2
BITMAP
00
00
10
90
90
FE
12
10
10
10
10
00
00
ENDCHAR

STARTCHAR uni10B6
ENCODING 4278
SWIDTH 568 0
DWIDTH 8 0
BBX 8 13 0 -2
BITMAP
00
00
3C
42
42
42
42
42
42
42
42
00
00
ENDCHAR

STARTCHAR uni10B7
ENCODING 4279
SWIDTH 568 0
DWIDTH 8 0
BBX 8 13 0 -2
BITMAP
00
00
22
42
42
46
3A
02
02
02
02
00
00
ENDCHAR

STARTCHAR uni10B8
ENCODING 4280
SWIDTH 568 0
DWIDTH 8 0
BBX 8 13 0 -2
BITMAP
00
00
22
42
42
46
3A
02
42
42
3C
00
00
ENDCHAR

STARTCHAR uni10B9
ENCODING 4281
SWIDTH 568 0
DWIDTH 8 0
BBX 8 13 0 -2
BITMAP
00
00
40
40
40
7E
42
42
42
42
42
00
00
ENDCHAR

STARTCHAR uni10BA
ENCODING 4282
SWIDTH 568 0
DWIDTH 8 0
BBX 8 13 0 -2
BITMAP
00
00
3C
42
40
40
40
40
40
42
3C
04
04
ENDCHAR

STARTCHAR uni10BB
ENCODING 4283
SWIDTH 568 0
DWIDTH 8 0
BBX 8 13 0 -2
BITMAP
00
00
08
08
08
3E
4A
4A
48
48
30
00
00
ENDCHAR

STARTCHAR uni10BC
ENCODING 4284
SWIDTH 568 0
DWIDTH 8 0
BBX 8 13 0 -2
BITMAP
00
00
7C
42
42
7C
40
78
48
48
40
00
00
ENDCHAR

STARTCHAR uni10BD
ENCODING 4285
SWIDTH 568 0
DWIDTH 8 0
BBX 8 13 0 -2
BITMAP
00
00
3C
42
40
40
3C
02
02
42
3C
00
00
ENDCHAR

STARTCHAR uni10BE
ENCODING 4286
SWIDTH 568 0
DWIDTH 8 0
BBX 8 13 0 -2
BITMAP
00
00
42
42
42
42
7E
40
40
40
7E
00
00
ENDCHAR

STARTCHAR uni10BF
ENCODING 4287
SWIDTH 568 0
DWIDTH 8 0
BBX 8 13 0 -2
BITMAP
00
00
7E
42
22
14
08
14
22
40
40
00
00
ENDCHAR

STARTCHAR uni10C0
ENCODING 4288
SWIDTH 568 0
DWIDTH 8 0
BBX 8 13 0 -2
BITMAP
00
00
E0
A0
A0
20
20
22
22
22
1C
00
00
ENDCHAR

STARTCHAR uni10C1
ENCODING 4289
SWIDTH 568 0
DWIDTH 8 0
BBX 8 13 0 -2
BITMAP
00
00
40
40
40
78
46
40
40
40
40
00
00
ENDCHAR

STARTCHAR uni10C2
ENCODING 4290
SWIDTH 568 0
DWIDTH 8 0
BBX 8 13 0 -2
BITMAP
00
00
00
40
40
3C
02
02
42
44
38
00
00
ENDCHAR

STARTCHAR uni10C3
ENCODING 4291
SWIDTH 568 0
DWIDTH 8 0
BBX 8 13 0 -2
BITMAP
00
00
02
22
42
46
3A
02
02
02
02
00
00
ENDCHAR

STARTCHAR uni10C4
ENCODING 4292
SWIDTH 568 0
DWIDTH 8 0
BBX 8 13 0 -2
BITMAP
00
00
82
82
82
82
7C
10
10
10
10
00
00
ENDCHAR

STARTCHAR uni10C5
ENCODING 4293
SWIDTH 568 0
DWIDTH 8 0
BBX 8 13 0 -2
BITMAP
00
00
1C
12
1C
10
7C
92
90
90
60
00
00
ENDCHAR

STARTCHAR uni10D0
ENCODING 4304
SWIDTH 568 0
DWIDTH 8 0
BBX 8 13 0 -2
BITMAP
00
00
00
00
00
10
10
0C
02
42
3C
00
00
ENDCHAR

STARTCHAR uni10D1
ENCODING 4305
SWIDTH 568 0
DWIDTH 8 0
BBX 8 13 0 -2
BITMAP
00
00
20
30
10
10
38
44
44
44
38
00
00
ENDCHAR

STARTCHAR uni10D2
ENCODING 4306
SWIDTH 568 0
DWIDTH 8 0
BBX 8 13 0 -2
BITMAP
00
00
00
00
30
48
48
08
3C
42
42
42
3C
ENDCHAR

STARTCHAR uni10D3
ENCODING 4307
SWIDTH 568 0
DWIDTH 8 0
BBX 8 13 0 -2
BITMAP
00
00
00
00
00
00
3C
52
52
4C
40
38
04
ENDCHAR

STARTCHAR uni10D4
ENCODING 4308
SWIDTH 568 0
DWIDTH 8 0
BBX 8 13 0 -2
BITMAP
00
00
00
00
3C
42
42
02
02
02
42
42
3C
ENDCHAR

STARTCHAR uni10D5
ENCODING 4309
SWIDTH 568 0
DWIDTH 8 0
BBX 8 13 0 -2
BITMAP
00
00
00
00
3C
42
42
1C
02
02
42
42
3C
ENDCHAR

STARTCHAR uni10D6
ENCODING 4310
SWIDTH 568 0
DWIDTH 8 0
BBX 8 13 0 -2
BITMAP
00
00
20
50
54
38
1C
12
12
12
0C
00
00
ENDCHAR

STARTCHAR uni10D7
ENCODING 4311
SWIDTH 568 0
DWIDTH 8 0
BBX 8 13 0 -2
BITMAP
00
00
00
00
00
00
34
4A
4A
4A
32
00
00
ENDCHAR

STARTCHAR uni10D8
ENCODING 4312
SWIDTH 568 0
DWIDTH 8 0
BBX 8 13 0 -2
BITMAP
00
00
00
00
00
00
3C
42
42
42
24
00
00
ENDCHAR

STARTCHAR uni10D9
ENCODING 4313
SWIDTH 568 0
DWIDTH 8 0
BBX 8 13 0 -2
BITMAP
00
00
00
00
0C
02
02
1C
02
02
42
42
3C
ENDCHAR

STARTCHAR uni10DA
ENCODING 4314
SWIDTH 568 0
DWIDTH 8 0
BBX 8 13 0 -2
BITMAP
00
00
00
00
00
00
54
AA
AA
82
84
70
08
ENDCHAR

STARTCHAR uni10DB
ENCODING 4315
SWIDTH 568 0
DWIDTH 8 0
BBX 8 13 0 -2
BITMAP
00
00
3C
42
42
02
3E
42
42
42
3C
00
00
ENDCHAR

STARTCHAR uni10DC
ENCODING 4316
SWIDTH 568 0
DWIDTH 8 0
BBX 8 13 0 -2
BITMAP
00
00
3E
40
40
40
7C
42
42
42
3C
00
00
ENDCHAR

STARTCHAR uni10DD
ENCODING 4317
SWIDTH 568 0
DWIDTH 8 0
BBX 8 13 0 -2
BITMAP
00
00
00
00
00
00
28
54
54
54
44
00
00
ENDCHAR

STARTCHAR uni10DE
ENCODING 4318
SWIDTH 568 0
DWIDTH 8 0
BBX 8 13 0 -2
BITMAP
00
00
10
0C
02
02
1C
02
42
42
3C
00
00
ENDCHAR

STARTCHAR uni10DF
ENCODING 4319
SWIDTH 568 0
DWIDTH 8 0
BBX 8 13 0 -2
BITMAP
00
00
00
00
00
06
0A
52
52
22
02
22
1C
ENDCHAR

STARTCHAR uni10E0
ENCODING 4320
SWIDTH 568 0
DWIDTH 8 0
BBX 8 13 0 -2
BITMAP
00
00
00
04
38
40
68
54
54
54
44
00
00
ENDCHAR

STARTCHAR uni10E1
ENCODING 4321
SWIDTH 568 0
DWIDTH 8 0
BBX 8 13 0 -2
BITMAP
00
00
40
40
40
48
50
48
44
44
38
00
00
ENDCHAR

STARTCHAR uni10E2
ENCODING 4322
SWIDTH 568 0
DWIDTH 8 0
BBX 8 13 0 -2
BITMAP
00
00
18
24
24
3C
66
66
5A
42
42
42
3C
ENDCHAR

STARTCHAR uni10E3
ENCODING 4323
SWIDTH 568 0
DWIDTH 8 0
BBX 8 13 0 -2
BITMAP
00
00
00
00
6C
12
12
02
02
02
22
22
1C
ENDCHAR

STARTCHAR uni10E4
ENCODING 4324
SWIDTH 568 0
DWIDTH 8 0
BBX 8 13 0 -2
BITMAP
00
00
00
00
00
00
34
4A
4A
34
02
12
0C
ENDCHAR

STARTCHAR uni10E5
ENCODING 4325
SWIDTH 568 0
DWIDTH 8 0
BBX 8 13 0 -2
BITMAP
00
00
04
0C
04
04
1C
24
04
04
04
44
38
ENDCHAR

STARTCHAR uni10E6
ENCODING 4326
SWIDTH 568 0
DWIDTH 8 0
BBX 8 13 0 -2
BITMAP
00
00
00
00
00
00
28
54
54
44
40
38
04
ENDCHAR

STARTCHAR uni10E7
ENCODING 4327
SWIDTH 568 0
DWIDTH 8 0
BBX 8 13 0 -2
BITMAP
00
00
00
00
00
00
22
42
46
3A
02
42
3C
ENDCHAR

STARTCHAR uni10E8
ENCODING 4328
SWIDTH 568 0
DWIDTH 8 0
BBX 8 13 0 -2
BITMAP
00
00
28
54
54
54
44
1C
24
24
18
00
00
ENDCHAR

STARTCHAR uni10E9
ENCODING 4329
SWIDTH 568 0
DWIDTH 8 0
BBX 8 13 0 -2
BITMAP
00
00
30
48
48
70
40
5C
62
42
42
00
00
ENDCHAR

STARTCHAR uni10EA
ENCODING 4330
SWIDTH 568 0
DWIDTH 8 0
BBX 8 13 0 -2
BITMAP
00
00
00
00
4C
42
42
5C
42
42
42
42
3C
ENDCHAR

STARTCHAR uni10EB
ENCODING 4331
SWIDTH 568 0
DWIDTH 8 0
BBX 8 13 0 -2
BITMAP
00
00
0C
02
02
02
3E
42
42
42
3C
00
00
ENDCHAR

STARTCHAR uni10EC
ENCODING 4332
SWIDTH 568 0
DWIDTH 8 0
BBX 8 13 0 -2
BITMAP
00
00
28
54
54
40
40
7C
44
28
28
10
10
ENDCHAR

STARTCHAR uni10ED
ENCODING 4333
SWIDTH 568 0
DWIDTH 8 0
BBX 8 13 0 -2
BITMAP
00
00
08
18
28
08
2A
5C
2A
08
08
48
30
ENDCHAR

STARTCHAR uni10EE
ENCODING 4334
SWIDTH 568 0
DWIDTH 8 0
BBX 8 13 0 -2
BITMAP
00
00
40
40
48
50
78
44
44
44
38
00
00
ENDCHAR

STARTCHAR uni10EF
ENCODING 4335
SWIDTH 568 0
DWIDTH 8 0
BBX 8 13 0 -2
BITMAP
00
00
00
00
00
00
44
28
10
28
44
20
40
ENDCHAR

STARTCHAR uni10F0
ENCODING 4336
SWIDTH 568 0
DWIDTH 8 0
BBX 8 13 0 -2
BITMAP
00
20
1C
02
1C
02
02
1C
42
42
3C
00
00
ENDCHAR

STARTCHAR uni10F1
ENCODING 4337
SWIDTH 568 0
DWIDTH 8 0
BBX 8 13 0 -2
BITMAP
00
58
44
42
5C
42
42
5C
42
42
3C
00
00
ENDCHAR

STARTCHAR uni10F2
ENCODING 4338
SWIDTH 568 0
DWIDTH 8 0
BBX 8 13 0 -2
BITMAP
00
00
00
00
00
3C
42
42
42
24
7E
00
00
ENDCHAR

STARTCHAR uni10F3
ENCODING 4339
SWIDTH 568 0
DWIDTH 8 0
BBX 8 13 0 -2
BITMAP
00
00
00
00
00
7E
04
08
1C
02
02
42
3C
ENDCHAR

STARTCHAR uni10F4
ENCODING 4340
SWIDTH 568 0
DWIDTH 8 0
BBX 8 13 0 -2
BITMAP
00
00
10
20
1C
02
02
1C
02
02
42
42
3C
ENDCHAR

STARTCHAR uni10F5
ENCODING 4341
SWIDTH 568 0
DWIDTH 8 0
BBX 8 13 0 -2
BITMAP
00
00
38
44
44
3E
04
3E
44
44
38
00
00
ENDCHAR

STARTCHAR uni10F6
ENCODING 4342
SWIDTH 568 0
DWIDTH 8 0
BBX 8 13 0 -2
BITMAP
00
00
00
20
10
10
38
54
54
38
10
10
08
ENDCHAR

STARTCHAR uni10F7
ENCODING 4343
SWIDTH 568 0
DWIDTH 8 0
BBX 8 13 0 -2
BITMAP
00
00
1C
22
02
0C
30
40
40
42
3C
00
00
ENDCHAR

STARTCHAR uni10F8
ENCODING 4344
SWIDTH 568 0
DWIDTH 8 0
BBX 8 13 0 -2
BITMAP
00
00
42
42
42
7C
40
42
42
42
3C
00
00
ENDCHAR

STARTCHAR uni10FB
ENCODING 4347
SWIDTH 568 0
DWIDTH 8 0
BBX 8 13 0 -2
BITMAP
00
00
00
00
60
60
0C
0C
60
60
00
00
00
ENDCHAR

STARTCHAR uni16A0
ENCODING 5792
SWIDTH 568 0
DWIDTH 8 0
BBX 8 13 0 -2
BITMAP
00
00
12
14
18
12
14
18
10
10
10
00
00
ENDCHAR

STARTCHAR uni16A1
ENCODING 5793
SWIDTH 568 0
DWIDTH 8 0
BBX 8 13 0 -2
BITMAP
04
00
12
14
18
12
14
18
10
10
10
00
00
ENDCHAR

STARTCHAR uni16A2
ENCODING 5794
SWIDTH 568 0
DWIDTH 8 0
BBX 8 13 0 -2
BITMAP
00
00
70
48
44
44
42
42
42
42
42
00
00
ENDCHAR

STARTCHAR uni16A3
ENCODING 5795
SWIDTH 568 0
DWIDTH 8 0
BBX 8 13 0 -2
BITMAP
00
00
60
50
48
44
54
54
54
54
54
00
00
ENDCHAR

STARTCHAR uni16A4
ENCODING 5796
SWIDTH 568 0
DWIDTH 8 0
BBX 8 13 0 -2
BITMAP
00
00
70
48
44
44
52
52
42
42
42
00
00
ENDCHAR

STARTCHAR uni16A5
ENCODING 5797
SWIDTH 568 0
DWIDTH 8 0
BBX 8 13 0 -2
BITMAP
00
00
70
48
44
64
52
4A
4A
4A
4A
00
00
ENDCHAR

STARTCHAR uni16A6
ENCODING 5798
SWIDTH 568 0
DWIDTH 8 0
BBX 8 13 0 -2
BITMAP
00
00
10
10
1C
12
12
12
1C
10
10
00
00
ENDCHAR

STARTCHAR uni16A7
ENCODING 5799
SWIDTH 568 0
DWIDTH 8 0
BBX 8 13 0 -2
BITMAP
00
00
20
20
3C
22
2A
22
3C
20
20
00
00
ENDCHAR

STARTCHAR uni16A8
ENCODING 5800
SWIDTH 568 0
DWIDTH 8 0
BBX 8 13 0 -2
BITMAP
00
00
30
28
24
30
28
24
20
20
20
00
00
ENDCHAR

STARTCHAR uni16A9
ENCODING 5801
SWIDTH 568 0
DWIDTH 8 0
BBX 8 13 0 -2
BITMAP
00
00
44
68
50
44
68
50
40
40
40
00
00
ENDCHAR

STARTCHAR uni16AA
ENCODING 5802
SWIDTH 568 0
DWIDTH 8 0
BBX 8 13 0 -2
BITMAP
00
00
44
68
50
40
60
50
48
40
40
00
00
ENDCHAR

STARTCHAR uni16AB
ENCODING 5803
SWIDTH 568 0
DWIDTH 8 0
BBX 8 13 0 -2
BITMAP
00
00
40
60
50
48
60
50
48
40
40
00
00
ENDCHAR

STARTCHAR uni16AC
ENCODING 5804
SWIDTH 568 0
DWIDTH 8 0
BBX 8 13 0 -2
BITMAP
00
00
10
50
30
18
54
30
18
14
10
00
00
ENDCHAR

STARTCHAR uni16AD
ENCODING 5805
SWIDTH 568 0
DWIDTH 8 0
BBX 8 13 0 -2
BITMAP
00
00
20
20
30
28
24
30
28
24
20
00
00
ENDCHAR

STARTCHAR uni16AE
ENCODING 5806
SWIDTH 568 0
DWIDTH 8 0
BBX 8 13 0 -2
BITMAP
00
00
04
04
0C
14
24
0C
14
24
04
00
00
ENDCHAR

STARTCHAR uni16AF
ENCODING 5807
SWIDTH 568 0
DWIDTH 8 0
BBX 8 13 0 -2
BITMAP
00
00
10
14
18
30
54
18
30
50
10
00
00
ENDCHAR

STARTCHAR uni16B0
ENCODING 5808
SWIDTH 568 0
DWIDTH 8 0
BBX 8 13 0 -2
BITMAP
00
00
10
14
18
30
50
10
30
50
10
00
00
ENDCHAR

STARTCHAR uni16B1
ENCODING 5809
SWIDTH 568 0
DWIDTH 8 0
BBX 8 13 0 -2
BITMAP
00
00
30
28
24
28
30
28
24
20
20
00
00
ENDCHAR

STARTCHAR uni16B2
ENCODING 5810
SWIDTH 568 0
DWIDTH 8 0
BBX 8 13 0 -2
BITMAP
00
00
00
00
08
10
20
10
08
00
00
00
00
ENDCHAR

STARTCHAR uni16B3
ENCODING 5811
SWIDTH 568 0
DWIDTH 8 0
BBX 8 13 0 -2
BITMAP
00
00
20
20
20
20
20
20
30
28
24
00
00
ENDCHAR

STARTCHAR uni16B4
ENCODING 5812
SWIDTH 568 0
DWIDTH 8 0
BBX 8 13 0 -2
BITMAP
00
00
22
22
22
24
38
20
20
20
20
00
00
ENDCHAR

STARTCHAR uni16B5
ENCODING 5813
SWIDTH 568 0
DWIDTH 8 0
BBX 8 13 0 -2
BITMAP
00
00
2A
2A
22
24
38
20
20
20
20
00
00
ENDCHAR

STARTCHAR uni16B6
ENCODING 5814
SWIDTH 568 0
DWIDTH 8 0
BBX 8 13 0 -2
BITMAP
00
00
22
22
22
74
78
70
20
20
20
00
00
ENDCHAR

STARTCHAR uni16B7
ENCODING 5815
SWIDTH 568 0
DWIDTH 8 0
BBX 8 13 0 -2
BITMAP
00
00
44
44
28
28
10
28
28
44
44
00
00
ENDCHAR

STARTCHAR uni16B8
ENCODING 5816
SWIDTH 568 0
DWIDTH 8 0
BBX 8 13 0 -2
BITMAP
00
00
44
44
38
28
54
28
38
44
44
00
00
ENDCHAR

STARTCHAR uni16B9
ENCODING 5817
SWIDTH 568 0
DWIDTH 8 0
BBX 8 13 0 -2
BITMAP
00
00
60
50
48
50
60
40
40
40
40
00
00
ENDCHAR

STARTCHAR uni16BA
ENCODING 5818
SWIDTH 568 0
DWIDTH 8 0
BBX 8 13 0 -2
BITMAP
00
00
44
44
44
64
54
4C
44
44
44
00
00
ENDCHAR

STARTCHAR uni16BB
ENCODING 5819
SWIDTH 568 0
DWIDTH 8 0
BBX 8 13 0 -2
BITMAP
00
00
44
44
64
54
4C
64
54
4C
44
00
00
ENDCHAR

STARTCHAR uni16BC
ENCODING 5820
SWIDTH 568 0
DWIDTH 8 0
BBX 8 13 0 -2
BITMAP
00
00
10
10
54
38
10
38
54
10
10
00
00
ENDCHAR

STARTCHAR uni16BD
ENCODING 5821
SWIDTH 568 0
DWIDTH 8 0
BBX 8 13 0 -2
BITMAP
00
00
10
10
10
38
38
38
10
10
10
00
00
ENDCHAR

STARTCHAR uni16BE
ENCODING 5822
SWIDTH 568 0
DWIDTH 8 0
BBX 8 13 0 -2
BITMAP
00
00
10
10
50
30
10
18
14
10
10
00
00
ENDCHAR

STARTCHAR uni16BF
ENCODING 5823
SWIDTH 568 0
DWIDTH 8 0
BBX 8 13 0 -2
BITMAP
00
00
10
10
10
10
18
14
10
10
10
00
00
ENDCHAR

STARTCHAR uni16C0
ENCODING 5824
SWIDTH 568 0
DWIDTH 8 0
BBX 8 13 0 -2
BITMAP
00
00
10
10
50
38
38
38
14
10
10
00
00
ENDCHAR

STARTCHAR uni16C1
ENCODING 5825
SWIDTH 568 0
DWIDTH 8 0
BBX 8 13 0 -2
BITMAP
00
00
10
10
10
10
10
10
10
10
10
00
00
ENDCHAR

STARTCHAR uni16C2
ENCODING 5826
SWIDTH 568 0
DWIDTH 8 0
BBX 8 13 0 -2
BITMAP
00
00
10
10
10
38
38
38
10
10
10
00
00
ENDCHAR

STARTCHAR uni16C3
ENCODING 5827
SWIDTH 568 0
DWIDTH 8 0
BBX 8 13 0 -2
BITMAP
00
00
00
10
20
48
24
12
04
08
00
00
00
ENDCHAR

STARTCHAR uni16C4
ENCODING 5828
SWIDTH 568 0
DWIDTH 8 0
BBX 8 13 0 -2
BITMAP
00
00
10
10
38
54
92
54
38
10
10
00
00
ENDCHAR

STARTCHAR uni16C5
ENCODING 5829
SWIDTH 568 0
DWIDTH 8 0
BBX 8 13 0 -2
BITMAP
00
00
10
10
14
18
10
30
50
10
10
00
00
ENDCHAR

STARTCHAR uni16C6
ENCODING 5830
SWIDTH 568 0
DWIDTH 8 0
BBX 8 13 0 -2
BITMAP
00
00
08
08
08
08
18
28
48
08
08
00
00
ENDCHAR

STARTCHAR uni16C7
ENCODING 5831
SWIDTH 568 0
DWIDTH 8 0
BBX 8 13 0 -2
BITMAP
00
00
10
18
14
12
10
90
50
30
10
00
00
ENDCHAR

STARTCHAR uni16C8
ENCODING 5832
SWIDTH 568 0
DWIDTH 8 0
BBX 8 13 0 -2
BITMAP
00
00
44
68
50
40
40
40
50
68
44
00
00
ENDCHAR

STARTCHAR uni16C9
ENCODING 5833
SWIDTH 568 0
DWIDTH 8 0
BBX 8 13 0 -2
BITMAP
00
00
92
54
38
10
10
10
10
10
10
00
00
ENDCHAR

STARTCHAR uni16CA
ENCODING 5834
SWIDTH 568 0
DWIDTH 8 0
BBX 8 13 0 -2
BITMAP
00
00
08
10
20
10
08
10
20
10
08
00
00
ENDCHAR

STARTCHAR uni16CB
ENCODING 5835
SWIDTH 568 0
DWIDTH 8 0
BBX 8 13 0 -2
BITMAP
00
00
40
40
44
4C
54
64
44
04
04
00
00
ENDCHAR

STARTCHAR uni16CC
ENCODING 5836
SWIDTH 568 0
DWIDTH 8 0
BBX 8 13 0 -2
BITMAP
00
00
10
10
10
10
10
00
00
00
00
00
00
ENDCHAR

STARTCHAR uni16CD
ENCODING 5837
SWIDTH 568 0
DWIDTH 8 0
BBX 8 13 0 -2
BITMAP
00
00
10
10
10
10
38
38
00
00
00
00
00
ENDCHAR

STARTCHAR uni16CE
ENCODING 5838
SWIDTH 568 0
DWIDTH 8 0
BBX 8 13 0 -2
BITMAP
00
00
10
10
10
54
38
10
00
00
00
00
00
ENDCHAR

STARTCHAR uni16CF
ENCODING 5839
SWIDTH 568 0
DWIDTH 8 0
BBX 8 13 0 -2
BITMAP
00
00
10
38
54
10
10
10
10
10
10
00
00
ENDCHAR

STARTCHAR uni16D0
ENCODING 5840
SWIDTH 568 0
DWIDTH 8 0
BBX 8 13 0 -2
BITMAP
00
00
04
0C
14
24
04
04
04
04
04
00
00
ENDCHAR

STARTCHAR uni16D1
ENCODING 5841
SWIDTH 568 0
DWIDTH 8 0
BBX 8 13 0 -2
BITMAP
00
00
04
0C
14
24
0E
0E
04
04
04
00
00
ENDCHAR

STARTCHAR uni16D2
ENCODING 5842
SWIDTH 568 0
DWIDTH 8 0
BBX 8 13 0 -2
BITMAP
00
00
60
50
48
50
60
50
48
50
60
00
00
ENDCHAR

STARTCHAR uni16D3
ENCODING 5843
SWIDTH 568 0
DWIDTH 8 0
BBX 8 13 0 -2
BITMAP
00
00
20
24
28
30
24
28
30
20
20
00
00
ENDCHAR

STARTCHAR uni16D4
ENCODING 5844
SWIDTH 568 0
DWIDTH 8 0
BBX 8 13 0 -2
BITMAP
00
00
78
44
54
44
78
44
54
44
78
00
00
ENDCHAR

STARTCHAR uni16D5
ENCODING 5845
SWIDTH 568 0
DWIDTH 8 0
BBX 8 13 0 -2
BITMAP
00
00
42
44
48
50
60
50
48
44
42
00
00
ENDCHAR

STARTCHAR uni16D6
ENCODING 5846
SWIDTH 568 0
DWIDTH 8 0
BBX 8 13 0 -2
BITMAP
00
00
82
C6
AA
92
82
82
82
82
82
00
00
ENDCHAR

STARTCHAR uni16D7
ENCODING 5847
SWIDTH 568 0
DWIDTH 8 0
BBX 8 13 0 -2
BITMAP
00
00
82
C6
AA
92
AA
C6
82
82
82
00
00
ENDCHAR

STARTCHAR uni16D8
ENCODING 5848
SWIDTH 568 0
DWIDTH 8 0
BBX 8 13 0 -2
BITMAP
00
00
92
92
92
7C
10
10
10
10
10
00
00
ENDCHAR

STARTCHAR uni16D9
ENCODING 5849
SWIDTH 568 0
DWIDTH 8 0
BBX 8 13 0 -2
BITMAP
00
00
38
38
10
10
10
10
10
10
10
00
00
ENDCHAR

STARTCHAR uni16DA
ENCODING 5850
SWIDTH 568 0
DWIDTH 8 0
BBX 8 13 0 -2
BITMAP
00
00
20
30
28
24
20
20
20
20
20
00
00
ENDCHAR

STARTCHAR uni16DB
ENCODING 5851
SWIDTH 568 0
DWIDTH 8 0
BBX 8 13 0 -2
BITMAP
00
00
20
30
28
24
70
70
20
20
20
00
00
ENDCHAR

STARTCHAR uni16DC
ENCODING 5852
SWIDTH 568 0
DWIDTH 8 0
BBX 8 13 0 -2
BITMAP
00
00
00
00
10
28
44
28
10
00
00
00
00
ENDCHAR

STARTCHAR uni16DD
ENCODING 5853
SWIDTH 568 0
DWIDTH 8 0
BBX 8 13 0 -2
BITMAP
00
00
44
28
10
28
44
28
10
28
44
00
00
ENDCHAR

STARTCHAR uni16DE
ENCODING 5854
SWIDTH 568 0
DWIDTH 8 0
BBX 8 13 0 -2
BITMAP
00
00
82
82
C6
AA
92
AA
C6
82
82
00
00
ENDCHAR

STARTCHAR uni16DF
ENCODING 5855
SWIDTH 568 0
DWIDTH 8 0
BBX 8 13 0 -2
BITMAP
00
00
10
28
44
28
10
28
44
44
44
00
00
ENDCHAR

STARTCHAR uni16E0
ENCODING 5856
SWIDTH 568 0
DWIDTH 8 0
BBX 8 13 0 -2
BITMAP
00
00
92
BA
54
10
10
10
10
10
10
00
00
ENDCHAR

STARTCHAR uni16E1
ENCODING 5857
SWIDTH 568 0
DWIDTH 8 0
BBX 8 13 0 -2
BITMAP
00
00
10
92
54
38
10
38
54
92
10
00
00
ENDCHAR

STARTCHAR uni16E2
ENCODING 5858
SWIDTH 568 0
DWIDTH 8 0
BBX 8 13 0 -2
BITMAP
00
00
1A
14
10
10
10
10
10
50
B0
00
00
ENDCHAR

STARTCHAR uni16E3
ENCODING 5859
SWIDTH 568 0
DWIDTH 8 0
BBX 8 13 0 -2
BITMAP
00
00
10
10
10
10
10
10
38
54
92
00
00
ENDCHAR

STARTCHAR uni16E4
ENCODING 5860
SWIDTH 568 0
DWIDTH 8 0
BBX 8 13 0 -2
BITMAP
00
00
92
92
54
38
54
38
54
92
92
00
00
ENDCHAR

STARTCHAR uni16E5
ENCODING 5861
SWIDTH 568 0
DWIDTH 8 0
BBX 8 13 0 -2
BITMAP
00
00
44
6C
54
6C
44
6C
54
6C
44
00
00
ENDCHAR

STARTCHAR uni16E6
ENCODING 5862
SWIDTH 568 0
DWIDTH 8 0
BBX 8 13 0 -2
BITMAP
00
00
10
10
10
10
10
7C
92
92
92
00
00
ENDCHAR

STARTCHAR uni16E7
ENCODING 5863
SWIDTH 568 0
DWIDTH 8 0
BBX 8 13 0 -2
BITMAP
00
00
00
00
00
00
10
10
10
10
10
00
00
ENDCHAR

STARTCHAR uni16E8
ENCODING 5864
SWIDTH 568 0
DWIDTH 8 0
BBX 8 13 0 -2
BITMAP
00
00
10
38
54
10
10
10
54
38
10
00
00
ENDCHAR

STARTCHAR uni16E9
ENCODING 5865
SWIDTH 568 0
DWIDTH 8 0
BBX 8 13 0 -2
BITMAP
00
00
18
28
48
28
18
08
08
08
08
00
00
ENDCHAR

STARTCHAR uni16EA
ENCODING 5866
SWIDTH 568 0
DWIDTH 8 0
BBX 8 13 0 -2
BITMAP
00
00
40
E0
44
4C
54
64
44
0E
04
00
00
ENDCHAR

STARTCHAR uni16EB
ENCODING 5867
SWIDTH 568 0
DWIDTH 8 0
BBX 8 13 0 -2
BITMAP
00
00
00
00
00
00
10
00
00
00
00
00
00
ENDCHAR

STARTCHAR uni16EC
ENCODING 5868
SWIDTH 568 0
DWIDTH 8 0
BBX 8 13 0 -2
BITMAP
00
00
00
00
00
10
00
10
00
00
00
00
00
ENDCHAR

STARTCHAR uni16ED
ENCODING 5869
SWIDTH 568 0
DWIDTH 8 0
BBX 8 13 0 -2
BITMAP
00
00
00
38
10
54
7C
54
10
38
00
00
00
ENDCHAR

STARTCHAR uni16EE
ENCODING 5870
SWIDTH 568 0
DWIDTH 8 0
BBX 8 13 0 -2
BITMAP
00
00
10
18
14
10
30
50
10
10
10
00
00
ENDCHAR

STARTCHAR uni16EF
ENCODING 5871
SWIDTH 568 0
DWIDTH 8 0
BBX 8 13 0 -2
BITMAP
00
00
92
92
92
7C
10
7C
92
92
92
00
00
ENDCHAR

STARTCHAR uni16F0
ENCODING 5872
SWIDTH 568 0
DWIDTH 8 0
BBX 8 13 0 -2
BITMAP
00
00
10
10
7C
92
92
92
7C
10
10
00
00
ENDCHAR

STARTCHAR uni1E00
ENCODING 7680
SWIDTH 568 0
DWIDTH 8 0
BBX 8 13 0 -2
BITMAP
00
00
18
24
42
42
42
7E
42
42
18
24
18
ENDCHAR

STARTCHAR uni1E01
ENCODING 7681
SWIDTH 568 0
DWIDTH 8 0
BBX 8 13 0 -2
BITMAP
00
00
00
00
3C
02
3E
42
46
3A
18
24
18
ENDCHAR

STARTCHAR uni1E02
ENCODING 7682
SWIDTH 568 0
DWIDTH 8 0
BBX 8 13 0 -2
BITMAP
00
18
00
7C
42
42
7C
42
42
42
7C
00
00
ENDCHAR

STARTCHAR uni1E03
ENCODING 7683
SWIDTH 568 0
DWIDTH 8 0
BBX 8 13 0 -2
BITMAP
00
08
40
40
40
5C
62
42
42
62
5C
00
00
ENDCHAR

STARTCHAR uni1E04
ENCODING 7684
SWIDTH 568 0
DWIDTH 8 0
BBX 8 13 0 -2
BITMAP
00
00
78
44
42
44
78
44
42
44
78
00
18
ENDCHAR

STARTCHAR uni1E05
ENCODING 7685
SWIDTH 568 0
DWIDTH 8 0
BBX 8 13 0 -2
BITMAP
00
00
40
40
40
5C
62
42
42
62
5C
00
18
ENDCHAR

STARTCHAR uni1E06
ENCODING 7686
SWIDTH 568 0
DWIDTH 8 0
BBX 8 13 0 -2
BITMAP
00
00
78
44
42
44
78
44
42
44
78
00
7C
ENDCHAR

STARTCHAR uni1E07
ENCODING 7687
SWIDTH 568 0
DWIDTH 8 0
BBX 8 13 0 -2
BITMAP
00
00
40
40
40
5C
62
42
42
62
5C
00
7E
ENDCHAR

STARTCHAR uni1E08
ENCODING 7688
SWIDTH 568 0
DWIDTH 8 0
BBX 8 13 0 -2
BITMAP
00
08
10
00
3C
42
40
40
40
42
3C
08
10
ENDCHAR

STARTCHAR uni1E09
ENCODING 7689
SWIDTH 568 0
DWIDTH 8 0
BBX 8 13 0 -2
BITMAP
00
00
08
10
00
3C
42
40
40
42
3C
08
10
ENDCHAR

STARTCHAR uni1E0A
ENCODING 7690
SWIDTH 568 0
DWIDTH 8 0
BBX 8 13 0 -2
BITMAP
00
18
00
78
44
42
42
42
42
44
78
00
00
ENDCHAR

STARTCHAR uni1E0B
ENCODING 7691
SWIDTH 568 0
DWIDTH 8 0
BBX 8 13 0 -2
BITMAP
00
18
02
02
02
3A
46
42
42
46
3A
00
00
ENDCHAR

STARTCHAR uni1E0C
ENCODING 7692
SWIDTH 568 0
DWIDTH 8 0
BBX 8 13 0 -2
BITMAP
00
00
78
44
42
42
42
42
42
44
78
00
18
ENDCHAR

STARTCHAR uni1E0D
ENCODING 7693
SWIDTH 568 0
DWIDTH 8 0
BBX 8 13 0 -2
BITMAP
00
00
02
02
02
3A
46
42
42
46
3A
00
18
ENDCHAR

STARTCHAR uni1E0E
ENCODING 7694
SWIDTH 568 0
DWIDTH 8 0
BBX 8 13 0 -2
BITMAP
00
00
78
44
42
42
42
42
42
44
78
00
7C
ENDCHAR

STARTCHAR uni1E0F
ENCODING 7695
SWIDTH 568 0
DWIDTH 8 0
BBX 8 13 0 -2
BITMAP
00
00
02
02
02
3A
46
42
42
46
3A
00
7E
ENDCHAR

STARTCHAR uni1E10
ENCODING 7696
SWIDTH 568 0
DWIDTH 8 0
BBX 8 13 0 -2
BITMAP
00
00
78
44
42
42
42
42
42
44
78
08
10
ENDCHAR

STARTCHAR uni1E11
ENCODING 7697
SWIDTH 568 0
DWIDTH 8 0
BBX 8 13 0 -2
BITMAP
00
00
02
02
02
3A
46
42
42
46
3A
08
10
ENDCHAR

STARTCHAR uni1E12
ENCODING 7698
SWIDTH 568 0
DWIDTH 8 0
BBX 8 13 0 -2
BITMAP
00
00
78
44
42
42
42
42
42
44
78
18
24
ENDCHAR

STARTCHAR uni1E13
ENCODING 7699
SWIDTH 568 0
DWIDTH 8 0
BBX 8 13 0 -2
BITMAP
00
00
02
02
3A
46
42
42
46
3A
00
18
24
ENDCHAR

STARTCHAR uni1E14
ENCODING 7700
SWIDTH 568 0
DWIDTH 8 0
BBX 8 13 0 -2
BITMAP
10
08
3C
00
7E
40
40
78
40
40
7E
00
00
ENDCHAR

STARTCHAR uni1E15
ENCODING 7701
SWIDTH 568 0
DWIDTH 8 0
BBX 8 13 0 -2
BITMAP
10
08
00
3C
00
3C
42
7E
40
42
3C
00
00
ENDCHAR

STARTCHAR uni1E16
ENCODING 7702
SWIDTH 568 0
DWIDTH 8 0
BBX 8 13 0 -2
BITMAP
08
10
3C
00
7E
40
40
78
40
40
7E
00
00
ENDCHAR

STARTCHAR uni1E17
ENCODING 7703
SWIDTH 568 0
DWIDTH 8 0
BBX 8 13 0 -2
BITMAP
08
10
00
3C
00
3C
42
7E
40
42
3C
00
00
ENDCHAR

STARTCHAR uni1E18
ENCODING 7704
SWIDTH 568 0
DWIDTH 8 0
BBX 8 13 0 -2
BITMAP
00
00
7E
40
40
78
40
40
40
7E
00
18
24
ENDCHAR

STARTCHAR uni1E19
ENCODING 7705
SWIDTH 568 0
DWIDTH 8 0
BBX 8 13 0 -2
BITMAP
00
00
00
00
3C
42
7E
40
42
3C
00
18
24
ENDCHAR

STARTCHAR uni1E1A
ENCODING 7706
SWIDTH 568 0
DWIDTH 8 0
BBX 8 13 0 -2
BITMAP
00
00
7E
40
40
78
40
40
40
7E
00
32
4C
ENDCHAR

STARTCHAR uni1E1B
ENCODING 7707
SWIDTH 568 0
DWIDTH 8 0
BBX 8 13 0 -2
BITMAP
00
00
00
00
3C
42
7E
40
42
3C
00
32
4C
ENDCHAR

STARTCHAR uni1E1C
ENCODING 7708
SWIDTH 568 0
DWIDTH 8 0
BBX 8 13 0 -2
BITMAP
00
42
3C
00
7E
40
40
78
40
40
7E
08
10
ENDCHAR

STARTCHAR uni1E1D
ENCODING 7709
SWIDTH 568 0
DWIDTH 8 0
BBX 8 13 0 -2
BITMAP
00
00
42
3C
00
3C
42
7E
40
42
3C
08
10
ENDCHAR

STARTCHAR uni1E1E
ENCODING 7710
SWIDTH 568 0
DWIDTH 8 0
BBX 8 13 0 -2
BITMAP
00
18
00
7E
40
40
78
40
40
40
40
00
00
ENDCHAR

STARTCHAR uni1E1F
ENCODING 7711
SWIDTH 568 0
DWIDTH 8 0
BBX 8 13 0 -2
BITMAP
00
18
00
1C
22
20
7C
20
20
20
20
00
00
ENDCHAR

STARTCHAR uni1E20
ENCODING 7712
SWIDTH 568 0
DWIDTH 8 0
BBX 8 13 0 -2
BITMAP
00
7E
00
3C
42
40
40
4E
42
46
3A
00
00
ENDCHAR

STARTCHAR uni1E21
ENCODING 7713
SWIDTH 568 0
DWIDTH 8 0
BBX 8 13 0 -2
BITMAP
00
00
00
7E
00
3A
44
44
38
40
3C
42
3C
ENDCHAR

STARTCHAR uni1E22
ENCODING 7714
SWIDTH 568 0
DWIDTH 8 0
BBX 8 13 0 -2
BITMAP
00
18
00
42
42
42
7E
42
42
42
42
00
00
ENDCHAR

STARTCHAR uni1E23
ENCODING 7715
SWIDTH 568 0
DWIDTH 8 0
BBX 8 13 0 -2
BITMAP
00
08
40
40
40
5C
62
42
42
42
42
00
00
ENDCHAR

STARTCHAR uni1E24
ENCODING 7716
SWIDTH 568 0
DWIDTH 8 0
BBX 8 13 0 -2
BITMAP
00
00
42
42
42
42
7E
42
42
42
42
00
18
ENDCHAR

STARTCHAR uni1E25
ENCODING 7717
SWIDTH 568 0
DWIDTH 8 0
BBX 8 13 0 -2
BITMAP
00
00
40
40
40
5C
62
42
42
42
42
00
18
ENDCHAR

STARTCHAR uni1E26
ENCODING 7718
SWIDTH 568 0
DWIDTH 8 0
BBX 8 13 0 -2
BITMAP
00
24
24
00
42
42
42
7E
42
42
42
00
00
ENDCHAR

STARTCHAR uni1E27
ENCODING 7719
SWIDTH 568 0
DWIDTH 8 0
BBX 8 13 0 -2
BITMAP
00
24
24
00
40
40
5C
62
42
42
42
00
00
ENDCHAR

STARTCHAR uni1E28
ENCODING 7720
SWIDTH 568 0
DWIDTH 8 0
BBX 8 13 0 -2
BITMAP
00
00
42
42
42
42
7E
42
42
42
42
04
08
ENDCHAR

STARTCHAR uni1E29
ENCODING 7721
SWIDTH 568 0
DWIDTH 8 0
BBX 8 13 0 -2
BITMAP
00
00
40
40
40
5C
62
42
42
42
42
04
08
ENDCHAR

STARTCHAR uni1E2A
ENCODING 7722
SWIDTH 568 0
DWIDTH 8 0
BBX 8 13 0 -2
BITMAP
00
00
42
42
42
7E
42
42
42
42
00
42
3C
ENDCHAR

STARTCHAR uni1E2B
ENCODING 7723
SWIDTH 568 0
DWIDTH 8 0
BBX 8 13 0 -2
BITMAP
00
00
40
40
40
5C
62
42
42
42
00
42
3C
ENDCHAR

STARTCHAR uni1E2C
ENCODING 7724
SWIDTH 568 0
DWIDTH 8 0
BBX 8 13 0 -2
BITMAP
00
00
3E
08
08
08
08
08
08
3E
00
32
4C
ENDCHAR

STARTCHAR uni1E2D
ENCODING 7725
SWIDTH 568 0
DWIDTH 8 0
BBX 8 13 0 -2
BITMAP
00
00
00
18
00
18
08
08
08
3E
00
32
4C
ENDCHAR

STARTCHAR uni1E2E
ENCODING 7726
SWIDTH 568 0
DWIDTH 8 0
BBX 8 13 0 -2
BITMAP
08
10
44
00
7C
10
10
10
10
10
7C
00
00
ENDCHAR

STARTCHAR uni1E2F
ENCODING 7727
SWIDTH 568 0
DWIDTH 8 0
BBX 8 13 0 -2
BITMAP
08
10
00
48
00
30
10
10
10
10
7C
00
00
ENDCHAR

STARTCHAR uni1E30
ENCODING 7728
SWIDTH 568 0
DWIDTH 8 0
BBX 8 13 0 -2
BITMAP
08
10
42
44
48
50
60
50
48
44
42
00
00
ENDCHAR

STARTCHAR uni1E31
ENCODING 7729
SWIDTH 568 0
DWIDTH 8 0
BBX 8 13 0 -2
BITMAP
00
04
48
40
40
44
48
70
48
44
42
00
00
ENDCHAR

STARTCHAR uni1E32
ENCODING 7730
SWIDTH 568 0
DWIDTH 8 0
BBX 8 13 0 -2
BITMAP
00
00
42
44
48
50
60
50
48
44
42
00
18
ENDCHAR

STARTCHAR uni1E33
ENCODING 7731
SWIDTH 568 0
DWIDTH 8 0
BBX 8 13 0 -2
BITMAP
00
00
40
40
40
44
48
70
48
44
42
00
18
ENDCHAR

STARTCHAR uni1E34
ENCODING 7732
SWIDTH 568 0
DWIDTH 8 0
BBX 8 13 0 -2
BITMAP
00
00
42
44
48
50
60
50
48
44
42
00
7E
ENDCHAR

STARTCHAR uni1E35
ENCODING 7733
SWIDTH 568 0
DWIDTH 8 0
BBX 8 13 0 -2
BITMAP
00
00
40
40
40
44
48
70
48
44
42
00
7E
ENDCHAR

STARTCHAR uni1E36
ENCODING 7734
SWIDTH 568 0
DWIDTH 8 0
BBX 8 13 0 -2
BITMAP
00
00
40
40
40
40
40
40
40
40
7E
00
18
ENDCHAR

STARTCHAR uni1E37
ENCODING 7735
SWIDTH 568 0
DWIDTH 8 0
BBX 8 13 0 -2
BITMAP
00
00
30
10
10
10
10
10
10
10
7C
00
18
ENDCHAR

STARTCHAR uni1E38
ENCODING 7736
SWIDTH 568 0
DWIDTH 8 0
BBX 8 13 0 -2
BITMAP
00
7E
00
40
40
40
40
40
40
40
7E
00
18
ENDCHAR

STARTCHAR uni1E39
ENCODING 7737
SWIDTH 568 0
DWIDTH 8 0
BBX 8 13 0 -2
BITMAP
00
7C
00
30
10
10
10
10
10
10
7C
00
18
ENDCHAR

STARTCHAR uni1E3A
ENCODING 7738
SWIDTH 568 0
DWIDTH 8 0
BBX 8 13 0 -2
BITMAP
00
00
40
40
40
40
40
40
40
40
7E
00
7E
ENDCHAR

STARTCHAR uni1E3B
ENCODING 7739
SWIDTH 568 0
DWIDTH 8 0
BBX 8 13 0 -2
BITMAP
00
00
30
10
10
10
10
10
10
10
7C
00
7C
ENDCHAR

STARTCHAR uni1E3C
ENCODING 7740
SWIDTH 568 0
DWIDTH 8 0
BBX 8 13 0 -2
BITMAP
00
00
40
40
40
40
40
40
40
7E
00
18
24
ENDCHAR

STARTCHAR uni1E3D
ENCODING 7741
SWIDTH 568 0
DWIDTH 8 0
BBX 8 13 0 -2
BITMAP
00
00
30
10
10
10
10
10
10
7C
00
10
28
ENDCHAR

STARTCHAR uni1E3E
ENCODING 7742
SWIDTH 568 0
DWIDTH 8 0
BBX 8 13 0 -2
BITMAP
00
08
10
82
C6
AA
92
92
82
82
82
00
00
ENDCHAR

STARTCHAR uni1E3F
ENCODING 7743
SWIDTH 568 0
DWIDTH 8 0
BBX 8 13 0 -2
BITMAP
00
00
08
10
00
EC
92
92
92
92
82
00
00
ENDCHAR

STARTCHAR uni1E40
ENCODING 7744
SWIDTH 568 0
DWIDTH 8 0
BBX 8 13 0 -2
BITMAP
00
30
00
82
C6
AA
92
82
82
82
82
00
00
ENDCHAR

STARTCHAR uni1E41
ENCODING 7745
SWIDTH 568 0
DWIDTH 8 0
BBX 8 13 0 -2
BITMAP
00
00
10
10
00
EC
92
92
92
92
82
00
00
ENDCHAR

STARTCHAR uni1E42
ENCODING 7746
SWIDTH 568 0
DWIDTH 8 0
BBX 8 13 0 -2
BITMAP
00
00
82
82
C6
AA
92
92
82
82
82
10
10
ENDCHAR

STARTCHAR uni1E43
ENCODING 7747
SWIDTH 568 0
DWIDTH 8 0
BBX 8 13 0 -2
BITMAP
00
00
00
00
00
EC
92
92
92
92
82
10
10
ENDCHAR

STARTCHAR uni1E44
ENCODING 7748
SWIDTH 568 0
DWIDTH 8 0
BBX 8 13 0 -2
BITMAP
00
18
00
42
42
62
52
4A
46
42
42
00
00
ENDCHAR

STARTCHAR uni1E45
ENCODING 7749
SWIDTH 568 0
DWIDTH 8 0
BBX 8 13 0 -2
BITMAP
00
00
00
18
00
5C
62
42
42
42
42
00
00
ENDCHAR

STARTCHAR uni1E46
ENCODING 7750
SWIDTH 568 0
DWIDTH 8 0
BBX 8 13 0 -2
BITMAP
00
00
42
42
62
52
4A
46
42
42
42
00
18
ENDCHAR

STARTCHAR uni1E47
ENCODING 7751
SWIDTH 568 0
DWIDTH 8 0
BBX 8 13 0 -2
BITMAP
00
00
00
00
00
5C
62
42
42
42
42
00
18
ENDCHAR

STARTCHAR uni1E48
ENCODING 7752
SWIDTH 568 0
DWIDTH 8 0
BBX 8 13 0 -2
BITMAP
00
00
42
42
62
52
4A
46
42
42
42
00
7E
ENDCHAR

STARTCHAR uni1E49
ENCODING 7753
SWIDTH 568 0
DWIDTH 8 0
BBX 8 13 0 -2
BITMAP
00
00
00
00
00
5C
62
42
42
42
42
00
7E
ENDCHAR

STARTCHAR uni1E4A
ENCODING 7754
SWIDTH 568 0
DWIDTH 8 0
BBX 8 13 0 -2
BITMAP
00
00
42
42
62
52
4A
46
42
42
00
18
24
ENDCHAR

STARTCHAR uni1E4B
ENCODING 7755
SWIDTH 568 0
DWIDTH 8 0
BBX 8 13 0 -2
BITMAP
00
00
00
00
00
5C
62
42
42
42
42
18
24
ENDCHAR

STARTCHAR uni1E4C
ENCODING 7756
SWIDTH 568 0
DWIDTH 8 0
BBX 8 13 0 -2
BITMAP
04
08
32
4C
00
7C
82
82
82
82
7C
00
00
ENDCHAR

STARTCHAR uni1E4D
ENCODING 7757
SWIDTH 568 0
DWIDTH 8 0
BBX 8 13 0 -2
BITMAP
04
08
00
32
4C
00
3C
42
42
42
3C
00
00
ENDCHAR

STARTCHAR uni1E4E
ENCODING 7758
SWIDTH 568 0
DWIDTH 8 0
BBX 8 13 0 -2
BITMAP
24
00
32
4C
00
7C
82
82
82
82
7C
00
00
ENDCHAR

STARTCHAR uni1E4F
ENCODING 7759
SWIDTH 568 0
DWIDTH 8 0
BBX 8 13 0 -2
BITMAP
00
24
00
32
4C
00
3C
42
42
42
3C
00
00
ENDCHAR

STARTCHAR uni1E50
ENCODING 7760
SWIDTH 568 0
DWIDTH 8 0
BBX 8 13 0 -2
BITMAP
20
10
7C
00
7C
82
82
82
82
82
7C
00
00
ENDCHAR

STARTCHAR uni1E51
ENCODING 7761
SWIDTH 568 0
DWIDTH 8 0
BBX 8 13 0 -2
BITMAP
20
10
00
3C
00
3C
42
42
42
42
3C
00
00
ENDCHAR

STARTCHAR uni1E52
ENCODING 7762
SWIDTH 568 0
DWIDTH 8 0
BBX 8 13 0 -2
BITMAP
08
10
7C
00
7C
82
82
82
82
82
7C
00
00
ENDCHAR

STARTCHAR uni1E53
ENCODING 7763
SWIDTH 568 0
DWIDTH 8 0
BBX 8 13 0 -2
BITMAP
04
08
00
3C
00
3C
42
42
42
42
3C
00
00
ENDCHAR

STARTCHAR uni1E54
ENCODING 7764
SWIDTH 568 0
DWIDTH 8 0
BBX 8 13 0 -2
BITMAP
00
08
10
00
7C
42
42
7C
40
40
40
00
00
ENDCHAR

STARTCHAR uni1E55
ENCODING 7765
SWIDTH 568 0
DWIDTH 8 0
BBX 8 13 0 -2
BITMAP
00
00
08
10
00
5C
62
42
62
5C
40
40
40
ENDCHAR

ENDFONT
